{"glyphs":{":":{"x_min":0,"x_max":292,"ha":292,"o":"m 123 160 b 120 163 117 163 117 163 b 103 163 93 163 83 160 b 70 160 58 157 53 147 b 38 133 26 116 11 106 b -2 93 -2 83 -2 66 b -2 59 -2 53 8 53 b 16 53 18 46 26 46 b 38 39 53 29 65 29 b 83 29 103 32 117 46 b 133 63 140 83 147 103 b 153 126 143 150 123 160 z m 247 480 b 241 483 237 483 234 483 b 211 490 164 470 153 450 b 150 440 143 433 140 426 b 123 399 127 379 150 362 b 164 356 177 356 194 356 b 217 349 231 366 244 379 b 261 399 268 423 271 450 b 271 467 264 477 247 480 z"},"$":{"x_min":0,"x_max":593,"ha":593,"o":"m 107 26 b 107 26 107 26 107 26 b 107 19 107 16 107 9 b 107 -1 110 -8 117 -12 b 130 -15 137 -12 141 -1 b 147 12 154 23 158 33 b 164 53 178 63 195 63 b 219 67 239 67 260 74 b 287 80 314 87 338 104 b 372 121 396 149 396 193 b 396 220 393 244 376 268 b 366 285 355 299 335 305 b 328 312 318 316 311 319 b 297 329 294 343 301 357 b 304 360 308 367 308 370 b 314 387 318 404 325 418 b 342 452 359 483 372 517 b 396 578 424 636 447 694 b 451 698 451 701 454 704 b 458 711 464 718 475 715 b 482 711 488 701 488 691 b 478 653 478 616 458 578 b 437 544 420 507 386 476 b 379 469 372 459 379 452 b 386 438 396 425 413 425 b 454 425 485 438 505 479 b 509 490 516 496 519 507 b 526 513 529 520 536 530 b 550 565 560 599 567 633 b 574 667 567 694 546 718 b 533 735 519 749 502 762 b 492 776 485 786 492 803 b 499 817 488 837 478 844 b 468 851 451 848 444 834 b 437 820 430 807 424 790 b 420 783 413 779 407 779 b 355 776 318 752 280 725 b 250 701 219 677 195 643 b 178 616 158 588 141 561 b 137 558 137 554 134 551 b 130 534 127 517 124 500 b 120 476 117 452 124 428 b 124 425 127 421 127 418 b 124 391 137 370 161 353 b 171 346 182 340 195 329 b 202 323 209 316 209 309 b 212 292 216 275 202 261 b 199 254 195 244 192 234 b 182 217 175 200 164 183 b 161 176 151 166 141 159 b 137 155 130 155 127 155 b 110 162 96 169 79 176 b 42 190 35 234 55 265 b 62 275 59 285 45 285 b 42 285 35 282 32 278 b 11 258 -6 234 -3 203 b 1 196 1 193 -3 186 b -3 166 4 149 21 132 b 32 121 42 115 55 104 b 69 98 83 87 93 77 b 103 70 113 63 107 46 b 107 40 107 33 107 26 z m 205 449 b 205 449 205 445 205 445 b 205 442 205 438 205 438 b 205 438 205 438 202 438 b 205 438 205 442 205 445 b 205 445 205 449 205 449 z m 195 493 b 195 493 195 496 199 496 b 199 496 199 496 195 500 b 192 507 202 507 202 510 b 199 510 192 510 188 513 b 188 513 185 513 188 517 b 188 517 188 517 188 520 b 199 524 205 520 209 513 b 212 510 212 503 212 500 b 212 500 212 496 216 496 b 216 496 212 496 212 496 b 212 496 212 500 212 500 b 209 500 202 496 199 496 l 199 493 b 202 493 205 490 205 490 b 205 490 202 486 199 486 b 199 486 195 483 195 483 b 195 483 195 483 195 483 b 195 483 199 486 199 486 b 199 486 199 490 199 493 b 195 493 195 493 195 493 b 195 493 195 493 195 493 z m 342 715 b 342 715 345 715 345 715 b 345 715 345 715 345 715 b 349 711 352 711 355 708 b 355 708 355 708 352 708 b 345 704 345 708 345 715 b 345 715 342 715 342 715 z m 233 336 b 233 336 233 336 236 336 b 236 340 236 340 236 340 b 239 340 243 343 246 343 b 243 340 243 340 239 336 b 239 336 239 336 236 336 b 236 336 233 336 233 336 z m 372 694 b 376 694 376 691 379 691 b 379 691 379 687 379 687 b 376 684 376 681 372 677 l 372 677 b 369 677 369 677 366 681 b 366 681 366 684 369 684 b 369 687 376 687 379 687 l 379 691 b 376 691 372 691 372 691 b 369 694 369 694 366 698 b 369 694 372 694 372 694 z m 195 401 b 195 401 195 398 195 398 b 195 398 195 401 195 401 z m 219 350 b 222 350 222 350 226 350 b 226 346 226 346 226 346 b 222 346 219 346 219 350 b 219 350 219 350 219 350 z m 383 711 b 383 708 383 708 379 704 b 379 708 379 708 376 708 b 379 708 379 711 383 711 z m 188 128 b 185 125 185 125 185 121 b 182 121 182 121 182 125 b 185 125 185 125 188 128 z m 212 466 b 205 462 202 462 199 469 b 199 469 195 473 195 473 b 195 473 199 473 199 473 b 199 473 199 469 199 469 b 202 469 209 466 212 466 z m 178 452 b 182 449 185 449 185 445 b 185 445 182 442 182 442 b 182 442 178 442 178 445 b 178 449 178 449 178 452 z m 407 698 b 410 698 413 701 413 701 b 417 701 417 698 417 698 b 413 698 410 698 407 698 z m 171 469 b 171 469 171 466 171 466 b 171 462 168 462 168 459 b 168 459 164 462 164 462 b 164 462 164 466 168 469 b 168 469 171 469 171 469 z m 335 677 b 335 677 335 674 332 674 b 332 674 332 670 328 670 b 328 670 325 670 328 674 b 328 674 328 677 332 677 b 332 677 332 677 335 677 z m 400 715 b 396 715 393 718 393 721 b 393 721 396 725 400 725 b 400 721 400 718 400 715 z m 239 571 b 236 571 236 571 233 571 b 233 571 233 571 233 571 b 233 575 233 578 233 582 b 236 578 236 575 239 571 z m 202 534 b 202 537 202 537 202 541 b 202 541 199 541 199 541 b 199 544 202 544 202 544 b 202 544 202 541 202 541 b 205 544 205 548 209 548 b 212 551 216 551 219 551 b 219 548 219 544 216 544 b 212 541 205 537 202 534 z m 219 432 b 226 418 226 415 209 415 b 205 415 205 415 202 415 b 202 415 199 415 199 415 b 195 411 192 411 192 408 b 188 411 188 415 188 415 b 188 418 188 421 188 421 b 178 428 178 428 188 435 b 188 435 192 438 195 438 l 195 438 b 195 432 199 425 199 415 b 202 415 202 415 202 415 b 202 425 209 432 219 432 z m 236 367 b 236 367 239 367 239 367 b 243 367 243 377 250 370 b 250 367 246 357 243 357 b 239 353 229 357 229 360 b 226 367 233 367 236 367 z m 219 387 b 216 387 212 391 212 391 b 212 398 209 401 209 404 b 212 404 219 408 222 408 b 226 408 229 408 233 408 l 233 408 b 236 401 236 394 239 384 b 239 384 236 380 236 377 b 236 380 233 380 229 380 b 229 384 229 387 226 391 b 226 394 226 398 222 401 b 222 398 222 394 219 391 b 219 391 219 387 219 387 z m 239 459 b 236 483 243 507 257 527 b 260 530 263 537 263 541 b 280 588 311 623 345 657 b 349 660 355 663 359 660 b 362 660 366 653 366 650 b 366 643 366 636 362 629 b 352 606 342 582 328 554 b 328 554 328 551 325 548 b 308 507 287 466 270 421 b 267 421 267 418 263 415 b 260 411 257 408 250 404 b 246 411 239 418 239 425 b 236 435 239 445 239 459 z m 239 159 b 229 159 222 173 222 183 b 222 186 226 190 226 190 b 236 210 243 230 253 251 b 260 265 270 275 287 271 b 291 271 294 271 297 268 b 314 258 328 241 332 220 b 332 217 332 210 332 207 b 308 176 277 162 239 159 z m 359 684 b 355 681 352 681 352 677 b 352 681 349 681 349 684 b 349 684 352 687 352 687 b 355 687 355 684 359 684 z m 171 125 b 168 128 164 132 164 132 b 164 135 168 135 171 138 b 171 135 175 135 175 132 b 175 128 171 128 171 125 z m 393 735 b 393 732 393 732 389 728 b 389 728 386 732 386 732 b 386 735 389 735 389 738 b 393 738 393 735 393 735 z m 216 571 b 216 568 219 568 219 565 b 219 565 216 561 216 561 b 216 565 212 565 212 568 b 212 568 212 568 216 571 z m 164 517 b 168 517 168 513 171 513 b 171 513 168 510 168 510 b 164 510 164 513 161 513 b 161 517 161 517 164 517 z m 192 108 b 188 108 185 111 185 115 b 188 115 188 115 192 115 b 192 115 195 111 195 111 b 195 111 192 108 192 108 z m 205 558 b 202 558 202 554 199 554 b 199 554 195 558 199 558 b 199 561 202 561 202 561 b 202 561 205 561 205 558 z m 386 701 b 389 698 389 694 389 694 b 389 694 389 694 389 691 b 386 694 386 694 386 694 b 386 698 386 698 386 701 z m 171 111 b 168 111 168 108 168 108 b 164 111 164 111 164 115 b 164 115 168 115 168 115 b 168 115 171 111 171 111 z m 185 558 b 182 558 182 554 182 554 b 182 554 182 558 182 558 b 182 558 182 558 182 558 b 182 558 182 558 185 558 z m 151 483 b 151 483 151 483 151 483 b 151 483 151 483 151 483 b 151 483 151 483 151 483 b 151 483 151 483 151 483 z m 185 138 b 185 135 182 135 182 135 b 182 132 178 135 178 135 b 178 135 178 138 182 138 b 182 138 182 138 185 138 z m 182 524 b 178 524 178 524 178 524 b 178 524 178 527 178 527 b 178 527 178 527 178 527 b 182 527 182 524 182 524 z m 407 735 b 407 735 407 732 403 732 b 403 735 403 735 403 735 b 403 735 403 738 407 738 b 407 738 407 735 407 735 z m 250 623 b 250 626 250 626 250 626 b 250 626 253 626 253 623 b 253 623 250 623 250 623 b 250 623 250 623 250 623 z m 209 582 b 209 582 209 585 209 585 b 209 585 209 585 212 585 b 209 585 209 582 209 582 z m 161 455 b 161 455 164 455 164 455 b 164 452 161 452 161 452 b 161 452 161 452 161 452 b 161 452 161 455 161 455 z m 226 374 b 226 374 222 374 222 374 b 222 374 222 374 222 374 b 222 377 222 377 222 377 b 222 377 226 377 226 374 z m 396 708 b 396 704 396 704 396 704 b 393 704 393 704 393 708 b 393 708 393 708 393 708 b 396 708 396 708 396 708 z m 372 738 b 372 738 372 738 372 742 b 372 742 372 742 376 742 b 376 742 376 738 376 738 b 376 738 372 738 372 738 z m 219 609 b 219 609 219 609 219 609 b 219 609 219 612 219 612 b 219 612 219 612 219 612 b 219 612 219 612 219 609 z m 171 449 l 171 445 z m 216 476 b 216 476 216 476 212 473 b 212 476 212 476 212 476 b 212 476 212 476 212 476 b 216 476 216 476 216 476 z m 222 554 l 226 554 z m 171 490 b 171 490 171 490 171 490 b 171 490 168 490 168 490 b 168 493 171 493 171 493 b 171 493 171 493 171 490 z m 212 377 b 216 377 216 377 216 377 b 216 377 216 377 212 377 b 212 377 212 377 212 377 z m 178 111 b 178 111 175 111 175 111 b 175 111 175 111 175 111 b 175 111 175 111 175 115 b 178 111 178 111 178 111 z m 362 691 b 362 691 359 691 359 691 b 359 691 359 691 359 691 b 359 694 359 694 362 694 b 362 691 362 691 362 691 z m 335 704 l 338 704 z m 396 698 b 396 698 396 694 396 694 b 396 694 396 694 396 691 b 400 694 400 694 400 694 b 400 694 400 694 396 698 z m 195 118 b 195 118 199 118 199 118 b 199 121 199 121 199 121 b 199 121 195 121 195 121 b 195 118 195 118 195 118 z m 158 132 b 158 135 158 135 158 135 b 158 135 154 135 154 132 b 154 132 158 132 158 132 b 158 132 158 132 158 132 z m 219 357 l 222 360 l 219 360 z"},"?":{"x_min":0,"x_max":543,"ha":543,"o":"m 527 715 b 527 718 527 718 527 723 b 527 739 517 753 505 766 b 497 772 491 778 484 786 b 475 796 461 802 443 805 b 434 808 424 813 413 819 b 383 819 353 819 327 819 b 317 813 311 813 303 819 b 297 819 290 819 284 819 b 273 816 267 813 257 813 b 230 805 203 802 180 792 b 150 778 123 756 93 739 b 79 729 66 715 55 706 b 43 688 33 672 22 655 b 13 632 3 605 -5 578 b -11 545 3 508 9 475 b 9 472 13 469 13 464 b 19 458 22 450 30 444 b 39 428 63 417 82 420 b 90 425 96 431 93 438 b 79 469 76 499 82 529 b 90 565 99 598 117 625 b 123 636 129 642 133 652 b 159 688 189 723 227 748 b 243 759 260 766 281 772 b 293 775 311 775 327 778 b 358 783 380 775 404 756 b 427 736 437 706 434 672 b 434 646 431 611 407 589 b 407 589 407 584 404 584 b 388 545 361 512 333 478 b 323 464 311 450 300 438 b 297 434 293 431 290 428 b 281 417 267 404 257 395 b 249 390 246 384 240 381 b 210 357 186 327 159 300 b 142 281 139 256 139 231 b 139 210 159 190 180 187 b 189 187 200 190 207 201 b 210 207 216 214 219 220 b 237 250 257 278 287 300 b 290 305 293 308 297 311 b 311 330 323 344 341 357 b 347 365 353 368 361 378 b 383 404 410 428 431 458 b 451 488 475 518 494 548 b 508 568 517 592 524 614 b 535 649 541 682 527 715 z m 169 133 b 142 127 117 117 96 97 b 90 87 79 73 76 59 b 73 43 73 26 87 13 b 99 2 112 -1 126 -4 b 159 -4 200 29 203 56 b 203 56 203 59 203 59 b 207 67 207 73 210 80 b 216 94 216 106 207 120 b 200 133 186 136 169 133 z"},"<":{"x_min":0,"x_max":381,"ha":381,"o":"m 375 543 b 369 549 361 549 355 546 b 344 543 334 535 324 532 b 317 529 314 521 307 518 b 279 509 258 484 227 477 b 224 477 221 473 218 470 b 176 446 131 422 90 398 b 84 395 76 395 70 387 b 56 381 39 370 25 361 b 8 347 8 330 25 316 b 56 291 87 268 118 240 b 125 237 128 230 135 223 b 145 216 153 209 159 202 b 170 196 176 185 187 177 b 190 171 196 160 204 154 b 210 143 221 137 232 140 b 252 140 258 148 261 165 b 261 191 252 216 235 233 b 221 247 210 260 196 274 b 184 288 170 302 156 316 b 153 319 153 322 149 322 b 139 336 142 342 153 353 b 159 361 170 364 176 367 b 232 398 289 429 341 463 b 361 477 372 495 383 512 b 386 526 383 532 375 543 z"},"'":{"x_min":0,"x_max":357,"ha":357,"o":"m 200 799 b 174 799 174 799 174 777 b 174 766 172 755 168 747 b 168 741 161 730 161 723 b 161 690 139 658 146 625 b 146 625 146 622 146 622 b 135 603 146 586 146 564 b 146 561 150 561 153 557 b 164 542 179 539 192 539 b 211 535 222 542 229 561 b 229 564 229 572 229 579 b 236 607 246 636 264 662 b 275 679 283 697 283 719 b 290 747 275 769 244 780 b 236 784 233 788 225 791 b 218 795 207 795 200 799 z"},"=":{"x_min":0,"x_max":530,"ha":530,"o":"m 353 277 b 330 275 305 267 278 275 b 274 275 268 271 265 271 b 247 271 230 267 209 267 b 168 271 124 275 76 277 b 48 275 17 267 1 233 b -3 224 4 210 17 210 b 17 210 20 210 24 210 b 48 210 76 212 100 210 b 124 210 148 202 176 206 b 189 206 203 202 217 202 b 243 202 274 199 302 199 b 305 199 309 199 312 196 b 330 189 347 196 360 206 b 367 210 374 220 378 230 b 380 237 380 247 380 255 b 384 275 374 286 353 277 z m 384 442 b 360 435 340 435 316 435 b 296 435 271 439 251 429 b 247 429 243 429 240 429 b 220 435 195 435 176 431 b 161 429 145 429 130 431 b 110 435 89 431 69 429 b 48 425 45 408 38 394 b 35 384 45 367 54 367 b 72 367 93 364 110 374 b 114 374 120 374 127 374 b 148 367 164 367 186 367 b 203 367 224 364 243 367 b 247 367 251 367 251 367 b 271 364 288 360 299 360 b 330 360 349 364 371 364 b 378 364 384 367 391 370 b 409 381 415 398 415 417 b 419 446 412 452 384 442 z"},"a":{"x_min":0,"x_max":561,"ha":561,"o":"m 590 338 b 587 341 578 341 575 341 b 566 341 563 341 560 335 b 549 320 532 296 523 282 b 517 273 511 267 505 258 b 496 248 487 233 481 224 b 469 207 458 195 446 177 b 437 168 428 153 416 146 b 413 143 413 140 410 137 b 398 120 386 105 372 93 b 366 90 360 81 354 75 b 345 69 336 63 321 63 b 321 63 318 57 318 57 b 315 66 309 69 306 75 b 306 75 306 78 306 78 b 309 81 309 81 309 84 b 309 93 312 99 315 105 b 318 108 321 114 321 117 b 336 146 345 177 357 207 b 357 207 360 209 360 209 b 360 221 363 230 369 242 b 377 258 383 279 386 296 b 389 308 392 320 404 329 b 407 335 410 350 413 360 b 416 375 416 392 422 404 b 428 416 428 422 422 428 b 419 434 416 437 416 446 b 410 459 398 470 386 473 b 380 476 372 482 366 485 b 363 485 360 485 357 485 b 348 485 339 485 333 485 b 330 485 330 485 327 482 b 321 473 318 462 315 453 b 315 443 312 434 306 431 b 303 428 283 428 283 431 b 274 437 271 443 265 449 b 259 459 247 467 238 473 b 223 479 211 485 203 494 b 197 494 197 497 194 497 b 188 494 182 497 173 497 b 167 500 158 500 152 503 b 146 503 143 503 140 503 b 134 500 128 497 120 494 b 114 494 108 488 105 482 b 87 470 72 453 60 434 b 57 428 51 425 45 419 b 42 410 39 407 37 401 b 31 380 19 363 7 350 b -5 344 -8 335 -11 323 b -11 311 -17 305 -20 296 b -29 285 -32 279 -38 270 b -38 261 -41 255 -44 248 b -44 248 -44 245 -44 245 b -52 242 -55 233 -55 227 b -58 218 -64 204 -67 195 b -67 192 -67 189 -70 183 b -70 183 -70 180 -70 177 b -73 159 -82 140 -88 123 b -88 114 -88 102 -88 93 b -82 81 -70 72 -64 63 b -58 44 -44 33 -32 27 b -17 24 -5 15 7 6 b 16 3 22 0 34 0 b 37 0 37 0 39 0 b 54 0 63 3 78 12 b 87 15 96 21 105 27 b 111 39 120 44 128 51 b 131 57 134 63 137 69 b 140 75 146 78 158 81 b 158 81 161 81 161 81 b 164 78 167 78 173 75 b 173 75 173 72 179 72 b 179 63 182 51 182 44 b 185 33 188 30 194 24 b 208 15 223 6 241 12 b 244 12 244 6 247 6 b 253 6 253 6 256 3 b 262 0 271 -3 280 0 b 291 0 306 3 318 3 b 327 3 330 3 330 6 b 336 15 342 21 345 24 b 354 27 360 30 363 33 b 369 39 377 41 380 47 b 413 81 446 117 478 156 b 487 171 496 183 508 198 b 511 204 517 207 520 215 b 529 221 532 227 535 233 b 541 242 541 248 543 252 b 546 258 555 267 558 273 b 570 282 587 308 587 323 b 587 323 590 329 590 329 b 590 332 590 335 590 338 z m 259 201 b 259 198 259 198 259 195 b 256 195 256 195 256 195 b 256 195 256 198 253 198 b 256 198 256 201 259 201 b 259 201 259 204 259 204 b 259 204 262 204 265 204 b 265 204 265 201 265 198 b 262 198 259 201 259 201 z m 283 168 b 283 171 283 177 283 180 b 283 180 286 180 286 180 b 286 177 286 174 289 171 b 286 171 283 168 283 168 b 283 165 286 159 286 156 b 283 156 283 156 280 156 b 280 159 280 165 280 168 b 280 168 280 168 283 168 z m 297 239 b 297 242 303 245 303 245 b 306 245 303 239 309 239 b 312 239 315 239 318 233 b 312 233 309 227 303 233 b 303 233 297 233 297 233 b 294 230 291 230 289 230 b 289 230 289 230 286 233 b 289 227 289 224 289 221 b 286 224 280 227 271 230 b 280 233 274 239 271 242 b 271 242 271 245 271 245 b 280 242 283 242 283 239 b 286 242 286 242 283 245 b 283 248 283 252 283 255 b 280 255 280 255 274 255 b 274 255 274 255 271 255 b 274 255 274 255 274 258 b 280 258 280 258 283 258 b 283 255 283 255 283 255 b 289 255 289 255 291 248 b 291 245 291 245 289 245 b 291 242 294 239 297 239 z m 247 189 b 247 189 253 189 253 189 b 256 189 256 192 259 195 b 262 192 262 189 259 180 b 262 189 265 183 271 183 b 265 180 262 177 259 174 b 259 174 259 171 262 171 b 259 168 253 168 253 159 b 247 165 247 165 244 165 b 241 165 238 159 235 159 b 235 159 235 165 232 165 b 232 165 232 168 229 168 b 229 165 223 159 223 156 b 220 156 220 159 220 159 b 220 159 220 159 223 159 b 220 159 220 165 220 165 b 220 165 220 165 220 159 b 217 159 217 165 217 165 b 217 165 217 165 220 165 b 217 168 214 171 214 171 b 217 174 223 174 229 171 b 229 174 235 174 232 180 b 232 180 232 180 235 180 b 235 180 235 177 238 177 b 238 174 238 174 238 171 b 241 168 244 168 247 171 b 247 174 253 177 253 180 b 247 180 247 180 244 180 b 244 183 247 189 247 189 b 244 189 241 189 238 189 b 238 192 238 192 238 192 b 238 192 241 195 241 195 b 244 195 247 192 247 189 z m 229 105 b 220 108 217 114 214 120 b 211 120 211 120 208 120 b 208 123 208 123 211 123 b 211 125 211 125 211 128 b 211 131 211 137 211 140 b 214 140 217 143 220 137 b 220 137 229 137 229 137 b 232 137 235 140 232 143 b 232 146 229 150 229 153 b 235 156 238 156 241 153 b 244 153 244 156 247 156 b 253 159 256 159 259 159 b 262 156 262 156 265 165 b 265 165 265 165 268 165 b 268 165 271 159 271 156 b 271 156 271 156 268 153 b 271 153 271 150 271 150 b 271 146 268 146 265 146 b 265 146 265 150 262 153 b 256 146 247 146 241 146 b 241 146 241 150 241 150 b 235 150 235 150 238 140 b 241 140 247 140 253 143 b 253 140 256 140 256 137 b 247 128 244 123 247 114 b 244 108 244 108 238 120 b 238 120 238 123 241 123 b 238 123 238 123 238 123 b 238 123 235 120 235 120 b 235 120 232 120 232 120 b 232 123 232 125 232 125 l 232 125 b 232 125 229 125 229 125 b 223 125 220 125 220 125 b 223 120 229 120 232 120 b 232 117 232 114 229 105 b 232 105 232 105 235 105 b 235 105 235 105 235 105 b 235 105 232 102 232 102 b 232 102 229 105 229 105 z m 229 407 b 238 404 247 404 256 401 b 265 398 271 392 280 383 b 283 378 286 372 283 363 b 280 357 274 350 271 344 b 265 332 256 320 247 305 b 247 302 244 299 244 296 b 241 291 238 282 235 279 b 214 258 197 233 185 207 b 173 189 164 168 146 153 b 140 146 134 137 128 125 b 122 120 120 114 114 105 b 105 96 93 84 84 75 b 78 66 66 66 57 69 b 57 69 57 69 57 69 b 57 72 54 72 54 75 b 51 78 51 84 54 90 b 57 96 57 102 57 108 b 60 128 66 150 78 171 b 78 174 81 177 81 180 b 87 198 93 215 96 230 b 102 239 105 245 111 252 b 111 252 114 255 114 258 b 120 276 131 296 143 311 b 143 317 146 323 146 326 b 152 332 152 335 155 341 b 164 350 173 363 182 375 b 188 383 194 392 206 398 b 211 404 217 407 229 404 b 229 404 229 404 229 407 z m 283 207 b 283 209 283 209 283 215 b 274 215 271 215 265 215 b 271 218 274 218 280 221 b 283 218 283 218 283 215 b 286 215 286 215 289 218 b 289 215 291 209 291 209 b 289 209 286 207 283 207 z m 51 242 b 45 242 45 242 45 242 b 42 242 42 239 42 239 b 42 239 45 239 45 239 b 45 239 45 239 51 239 b 45 230 39 233 37 239 b 37 239 37 242 37 242 b 37 245 37 245 39 248 b 42 248 45 245 51 242 z m 268 125 b 265 123 268 120 262 120 b 259 125 262 131 256 137 b 259 137 262 140 262 140 b 262 140 265 137 265 131 b 265 128 265 128 268 125 z m 256 90 b 256 93 253 96 253 99 b 253 99 253 99 253 99 b 247 99 247 102 244 105 b 247 108 256 108 259 114 b 256 108 256 105 256 102 b 256 99 256 99 256 96 b 256 96 256 93 256 90 b 256 90 256 90 256 84 b 256 84 256 90 256 90 z m 280 180 b 280 189 271 192 265 192 b 265 195 268 195 268 195 b 271 195 274 192 280 198 b 280 198 280 198 283 198 b 283 192 283 189 283 183 b 283 180 283 180 280 180 z m -8 159 b -8 156 -8 153 -8 150 b -8 150 -11 150 -14 150 b -14 146 -14 143 -14 140 b -17 143 -17 150 -17 153 b -17 156 -11 156 -8 159 z m 87 344 b 87 347 87 347 87 347 b 84 350 81 357 78 357 b 72 357 72 360 72 363 b 72 363 72 363 78 363 b 81 363 84 360 87 357 b 87 357 87 357 87 357 b 87 354 87 350 87 344 z m 357 372 b 345 369 339 369 333 369 b 339 378 345 378 357 372 z m 22 215 b 16 215 13 215 10 215 b 13 215 13 215 13 215 b 19 218 19 221 19 227 b 19 227 19 230 19 230 b 19 230 19 230 19 233 b 19 230 22 230 22 230 b 22 224 22 221 22 215 z m 294 189 b 294 183 291 180 291 177 b 289 177 289 180 286 180 b 289 189 291 192 294 189 z m 256 230 b 262 230 265 233 268 233 b 265 230 265 224 262 224 b 259 224 259 227 256 230 z m 268 207 b 280 204 280 204 274 198 b 271 198 268 201 268 207 z m 143 401 b 140 404 137 404 131 407 b 134 410 137 407 143 407 b 143 404 143 404 143 401 z m 117 401 b 120 398 128 401 128 395 b 120 392 117 395 117 401 z m 297 195 b 291 195 289 198 286 198 b 286 198 286 198 286 198 b 289 201 291 201 294 201 b 294 198 294 198 297 195 z m 60 276 b 57 276 54 279 51 279 b 51 279 51 279 51 279 b 54 282 54 282 57 282 b 60 279 60 279 60 276 z m -5 189 b -5 192 -2 192 4 195 b 4 192 4 189 4 183 b -5 183 -5 183 -5 189 z m 10 131 b 7 131 4 128 -2 131 b 4 137 7 137 10 131 z m 268 174 b 271 177 271 177 274 177 b 280 174 274 171 280 171 b 274 171 271 171 268 174 z m 90 386 b 93 386 96 386 96 392 b 102 383 102 383 102 378 b 96 380 93 383 90 386 z m 78 323 b 78 326 78 329 72 329 b 78 329 81 329 84 332 b 84 329 81 326 78 323 z m 256 204 b 256 207 253 209 253 209 b 256 215 259 215 262 215 b 259 209 259 207 256 204 z m 22 242 b 28 242 31 242 31 242 b 31 239 31 233 31 233 b 31 233 31 233 31 233 b 28 233 28 239 22 242 b 22 242 22 242 22 242 z m 37 201 b 39 201 39 201 42 201 b 42 198 42 195 39 195 b 39 195 39 195 39 195 b 39 195 37 198 37 201 z m -14 114 b -14 117 -14 120 -14 123 b -14 123 -11 123 -11 123 b -11 120 -11 117 -11 114 b -11 114 -11 114 -14 114 z m 238 204 b 241 204 241 204 244 204 b 244 201 244 201 244 198 b 241 198 241 198 241 198 b 241 201 238 201 238 204 z m 283 140 b 280 140 280 140 274 140 b 274 143 280 146 280 150 b 280 150 280 150 280 150 b 280 146 283 143 283 140 z m 31 285 b 34 285 34 285 34 285 b 34 282 34 279 34 276 b 34 276 34 276 34 276 b 34 279 31 282 31 285 z m 31 204 b 31 201 31 198 31 195 b 31 195 28 195 22 195 b 28 198 28 201 31 204 z m 78 341 b 78 344 78 347 78 350 b 78 350 78 350 78 350 b 78 350 78 350 78 350 b 81 347 81 344 81 341 b 81 341 78 341 78 341 z m 10 102 b 7 99 7 99 4 96 b 4 99 4 99 4 102 b 4 102 7 102 10 102 z m 339 320 b 339 323 339 326 339 326 b 339 326 339 326 339 326 b 339 326 342 326 342 323 b 342 323 339 320 339 320 b 339 320 339 320 339 320 z m 229 102 b 229 102 229 99 229 99 b 229 96 229 96 223 96 b 223 96 223 96 223 96 b 223 99 223 99 223 102 b 223 102 223 102 229 102 z m 357 354 b 357 357 357 360 354 360 b 354 363 357 363 357 363 b 357 363 357 363 357 363 b 357 360 357 357 360 354 b 357 354 357 354 357 354 z m 69 347 b 60 344 60 344 60 350 b 63 350 66 347 69 347 z m 274 128 b 274 125 271 125 268 128 b 268 131 271 131 274 128 z m 10 120 b 7 123 4 123 4 125 b 10 125 10 125 10 120 z m 78 369 b 78 375 81 372 84 372 b 84 369 81 369 78 369 z m 87 344 b 90 344 93 344 93 344 b 93 341 93 341 90 341 b 90 341 87 341 87 344 b 87 344 87 344 87 344 z m 84 380 b 87 380 87 378 87 378 b 87 375 87 375 84 375 b 84 375 84 378 84 380 b 84 380 84 380 84 380 z m 303 204 b 306 201 309 201 309 201 b 309 198 309 198 309 198 b 309 198 306 198 303 201 b 303 201 303 201 303 204 z m 342 350 b 342 350 339 347 339 344 b 339 344 339 344 339 344 b 339 344 339 347 339 347 b 339 350 339 350 339 354 b 339 350 339 350 342 350 z m 286 273 b 289 270 289 267 286 261 b 286 267 286 270 286 273 z m 345 335 b 345 332 345 329 342 329 b 339 332 342 332 345 335 z m 10 150 b 10 150 13 153 13 156 b 16 150 16 150 10 150 z m 330 302 b 327 302 327 302 321 302 b 321 305 321 305 321 305 b 321 305 327 305 330 305 b 330 305 330 305 330 302 z m 247 90 b 244 90 241 90 241 90 b 241 90 241 90 241 90 b 241 90 244 90 247 93 b 247 93 247 90 247 90 z m 108 363 b 114 369 114 369 114 363 b 114 363 111 363 108 363 z m 60 270 b 60 270 63 270 66 270 b 66 270 66 270 66 270 b 63 270 63 270 60 267 b 60 270 60 270 60 270 z m -14 201 b -14 198 -14 195 -14 195 b -14 195 -17 195 -17 195 b -17 198 -17 198 -17 201 b -17 201 -17 201 -14 201 z m 262 84 b 265 84 265 84 262 78 b 262 81 262 81 262 84 z m 256 120 b 256 123 256 123 253 125 b 253 125 256 125 256 125 b 256 125 256 125 256 125 b 256 123 256 123 259 120 b 256 120 256 120 256 120 z m 208 123 b 208 125 206 125 206 128 b 206 128 208 128 208 131 b 208 128 208 125 208 123 z m -23 114 b -23 117 -20 117 -20 117 b -20 117 -17 114 -17 114 b -20 114 -23 114 -23 114 b -23 114 -23 114 -23 114 z m 31 258 b 31 261 28 261 28 267 b 28 267 28 267 31 267 b 31 267 31 267 31 267 b 31 261 31 261 31 258 b 31 258 31 258 31 258 z m -32 177 b -29 180 -29 180 -23 180 b -23 177 -23 177 -32 177 z m 72 299 b 72 302 78 302 81 302 b 78 299 72 299 72 299 b 72 299 72 299 72 299 z m 232 125 b 232 125 232 125 232 125 b 238 125 241 125 244 125 b 244 128 244 131 244 137 b 241 131 238 131 235 131 b 232 131 232 128 232 125 z"},"L":{"x_min":0,"x_max":537,"ha":537,"o":"m -134 66 b -134 61 -134 60 -134 55 b -134 52 -130 46 -130 39 b -126 31 -124 25 -116 18 b -112 14 -106 14 -102 11 b -96 8 -86 0 -80 -1 b -76 -6 -70 -6 -67 -1 b -62 -1 -61 -1 -56 -1 b -56 -6 -52 -6 -50 -6 b -46 -6 -40 -1 -37 -1 b -32 -1 -31 -1 -26 -1 b -22 -6 -20 -6 -13 -1 b -10 -1 -7 -1 -2 -1 b 8 0 17 5 23 8 b 32 11 34 14 41 14 b 47 18 53 18 62 21 b 63 21 72 25 74 21 b 92 18 108 11 123 8 b 141 5 157 -1 176 -10 b 182 -11 193 -16 199 -19 b 206 -22 208 -22 217 -25 b 226 -31 232 -35 242 -41 b 247 -41 248 -41 253 -46 b 256 -46 259 -49 266 -49 b 272 -52 278 -55 286 -59 b 286 -59 288 -61 292 -61 b 296 -65 298 -70 302 -70 b 312 -70 323 -76 330 -79 b 332 -79 332 -79 336 -83 b 336 -83 341 -85 342 -85 b 360 -89 372 -95 386 -103 b 399 -113 416 -119 432 -119 b 446 -123 452 -125 464 -133 b 466 -135 470 -135 476 -135 b 486 -139 496 -139 504 -143 b 505 -145 511 -145 515 -145 b 517 -145 521 -145 521 -145 b 524 -149 527 -149 530 -145 b 536 -143 545 -143 554 -143 b 560 -143 571 -143 577 -143 b 595 -143 608 -139 620 -133 b 629 -129 638 -129 648 -123 b 659 -119 665 -113 668 -103 b 668 -100 668 -100 668 -100 b 671 -94 674 -89 674 -83 b 674 -71 674 -65 674 -59 b 671 -59 668 -55 665 -55 b 660 -55 659 -55 659 -55 b 650 -61 644 -65 638 -71 b 630 -79 620 -83 611 -85 b 601 -85 587 -89 575 -94 b 575 -94 571 -94 571 -94 b 565 -89 554 -89 545 -89 b 536 -89 527 -89 521 -89 b 505 -85 494 -79 480 -76 b 480 -76 476 -71 474 -71 b 470 -70 464 -65 460 -61 b 442 -52 422 -46 405 -35 b 392 -31 383 -25 371 -16 b 371 -16 366 -11 362 -11 b 356 -6 347 0 336 5 b 336 5 332 5 332 5 b 330 8 323 14 320 18 b 298 31 276 46 256 55 b 236 66 217 73 199 79 b 193 84 187 85 178 90 b 172 90 163 94 162 96 b 162 100 157 100 157 100 b 157 106 157 115 162 124 b 168 133 176 145 182 155 b 196 175 206 196 212 217 b 223 237 229 257 238 277 b 248 299 259 323 266 347 b 272 358 276 372 278 382 b 282 388 286 391 286 397 b 288 418 298 434 306 448 b 308 454 312 458 312 464 b 312 482 320 497 326 515 b 332 527 336 545 341 557 b 342 568 347 575 353 585 b 362 597 372 611 377 627 b 386 662 410 691 429 722 b 432 727 440 733 442 736 b 442 736 446 740 446 740 b 450 751 456 757 464 760 b 476 766 490 772 504 781 b 505 782 515 781 521 776 b 524 772 527 770 530 766 b 535 763 535 763 535 760 b 530 751 527 740 527 727 b 524 712 521 703 515 691 b 511 680 504 669 500 659 b 494 645 486 635 484 621 b 484 611 476 597 474 585 b 474 585 470 581 470 581 b 466 578 466 575 466 575 b 464 572 460 568 464 562 b 464 562 466 562 466 557 b 466 556 466 548 466 545 b 466 538 466 536 470 527 b 470 526 470 521 470 518 b 464 508 464 502 470 491 b 474 484 474 482 476 473 b 480 467 484 464 486 458 b 494 452 500 444 515 448 b 517 448 521 448 524 448 b 530 444 530 452 535 454 b 535 454 536 458 536 458 b 541 472 541 484 545 497 b 547 506 547 512 547 518 b 551 532 557 548 560 566 b 565 581 571 597 575 615 b 577 627 581 645 587 659 b 587 662 590 665 590 669 b 590 672 590 675 587 680 b 587 680 587 681 587 681 b 590 700 595 716 601 730 b 605 733 605 736 601 740 b 601 746 595 752 595 760 b 595 776 590 794 587 810 b 584 816 581 824 577 826 b 571 836 560 844 551 850 b 551 854 547 854 545 854 b 536 854 535 854 527 856 b 521 856 511 860 500 860 b 496 860 494 860 490 860 b 484 856 476 856 470 856 b 456 856 442 856 432 854 b 426 854 422 850 416 850 b 405 846 396 846 386 840 b 371 826 353 814 332 804 b 332 800 330 800 326 796 b 320 790 312 782 306 781 b 296 770 286 760 278 746 b 272 736 262 727 259 716 b 248 703 242 690 236 675 b 226 656 218 635 212 615 b 212 615 212 611 208 611 b 206 605 202 602 199 596 b 196 587 193 578 188 572 b 187 557 187 545 178 536 b 163 502 153 472 144 438 b 144 434 141 428 141 424 b 132 408 123 391 122 372 b 117 358 114 342 104 333 b 102 327 102 317 98 309 b 98 308 98 303 98 299 b 92 293 87 287 84 277 b 81 269 78 263 78 253 b 78 253 78 249 78 249 b 72 243 63 233 62 227 b 62 220 57 214 53 203 b 51 196 47 190 44 184 b 34 173 32 166 28 155 b 20 143 14 133 -1 125 b -1 125 -1 125 -2 125 b -16 125 -31 124 -43 124 b -52 119 -67 124 -76 115 b -80 115 -86 113 -90 113 b -96 109 -102 103 -112 103 b -112 103 -112 103 -116 103 b -120 90 -126 79 -134 66 z m 276 605 b 276 605 276 602 272 602 b 272 605 272 608 272 608 b 278 608 276 605 276 605 b 278 602 278 602 282 602 b 282 605 282 611 278 615 b 282 615 286 615 288 615 b 288 611 286 611 286 608 b 286 608 288 605 288 605 b 286 605 282 602 282 602 b 278 602 282 597 276 597 b 276 602 276 602 276 605 z m 308 617 b 312 621 312 621 317 626 b 317 621 317 621 317 621 b 317 617 312 617 308 617 b 308 615 308 611 306 611 b 306 608 306 605 302 602 b 302 605 298 605 296 605 b 298 608 298 608 302 611 b 302 611 306 611 306 611 b 306 615 306 615 306 617 b 306 617 308 617 308 617 z m 176 317 b 172 317 168 314 163 314 b 163 317 168 323 168 327 b 172 323 176 320 176 317 b 178 317 178 317 182 317 b 182 320 182 320 182 323 b 178 323 178 327 178 327 b 182 333 176 338 178 339 b 172 339 163 338 157 338 b 163 342 172 347 178 347 b 178 348 182 348 187 348 b 187 347 187 347 187 347 b 187 347 188 347 193 347 b 188 339 188 338 188 329 b 188 329 188 329 188 329 b 182 327 187 323 187 317 b 182 317 182 317 182 317 b 182 317 182 317 182 317 b 182 314 187 314 182 309 b 182 309 182 309 178 309 b 178 309 176 309 172 309 b 176 314 176 317 176 317 z m 202 347 b 199 347 196 347 193 347 b 196 348 199 358 202 361 b 202 358 206 358 208 353 b 206 348 202 347 202 347 b 206 342 206 338 202 333 b 202 333 199 333 196 333 b 199 338 199 342 202 347 z m 242 478 b 242 482 242 484 242 488 b 247 484 248 482 253 482 b 253 482 253 482 253 482 b 248 482 247 478 242 478 b 247 473 248 473 248 467 b 248 467 248 464 248 464 b 247 461 242 458 238 454 b 236 458 232 461 232 467 b 232 472 232 473 229 478 b 232 478 238 478 242 478 z m 108 94 b 104 94 104 94 104 90 b 104 85 102 84 102 79 b 93 85 93 90 98 96 b 93 90 87 94 81 94 b 84 90 84 90 87 85 b 81 85 78 84 72 84 b 72 79 72 84 72 84 b 68 85 63 90 57 94 b 68 94 72 94 78 94 b 78 100 74 103 74 109 b 74 109 72 109 72 109 b 74 113 74 113 74 115 b 72 115 63 115 62 115 b 62 119 62 119 62 124 b 68 124 72 119 81 124 b 74 124 72 125 68 125 b 63 133 68 133 72 136 b 72 136 72 136 74 133 b 74 136 74 136 74 136 b 74 136 74 136 72 136 b 74 139 74 139 74 139 b 74 133 81 139 84 136 b 84 136 84 133 84 133 b 84 130 84 130 87 130 b 87 130 92 125 92 125 b 87 124 84 125 84 119 b 87 124 92 119 92 124 b 92 124 93 124 93 124 b 98 119 102 119 104 119 b 104 113 104 106 98 100 b 102 100 104 100 108 100 b 108 100 108 96 108 94 b 114 94 111 90 111 85 b 108 85 108 85 108 94 z m 236 438 b 229 438 229 444 226 444 b 226 444 226 444 226 442 b 226 438 223 432 218 428 b 217 428 217 424 217 424 b 217 422 217 422 217 418 b 217 422 212 422 212 422 b 208 422 208 424 208 424 b 212 428 212 432 217 434 b 223 442 223 444 218 452 b 217 452 212 448 208 448 b 208 444 208 442 208 438 b 208 438 206 438 206 438 b 206 444 206 444 208 448 b 206 448 206 452 206 454 b 212 454 218 458 229 454 b 236 452 236 452 236 438 z m 208 382 b 206 384 206 388 202 391 b 202 388 199 388 199 388 b 196 391 196 394 206 397 b 202 402 199 403 196 403 b 199 412 202 414 208 418 b 212 414 206 408 212 403 b 212 403 208 403 208 402 b 206 397 206 394 208 394 b 208 391 212 391 217 391 b 212 388 212 384 208 382 z m 152 309 b 153 309 153 309 153 309 b 153 309 157 309 157 309 b 157 303 157 299 162 297 b 162 297 162 293 162 293 b 162 293 162 297 162 297 b 163 297 163 299 163 303 b 168 297 168 293 168 289 b 162 289 157 289 152 289 b 153 293 153 293 153 293 b 157 297 157 299 153 299 b 152 303 152 308 152 309 z m 332 686 b 330 680 330 675 326 669 b 323 669 320 669 323 672 b 323 675 323 675 323 675 b 323 681 326 686 320 691 b 326 691 330 691 332 686 z m 212 408 b 217 412 223 412 226 412 b 229 412 232 403 232 403 b 226 397 223 397 217 402 b 218 402 223 403 226 403 b 226 403 226 403 226 403 b 223 403 223 403 218 403 b 218 403 217 408 212 408 z m 262 587 b 266 587 268 587 268 585 b 272 585 276 587 278 591 b 282 585 278 578 272 575 b 272 575 268 578 268 578 b 268 578 268 578 266 575 b 268 578 268 581 268 581 b 266 585 262 581 262 587 z m 147 217 b 147 220 152 220 152 220 b 152 220 147 220 147 223 b 147 223 152 223 152 223 b 152 223 152 223 152 223 b 152 223 152 220 153 220 b 157 220 153 217 153 214 b 153 214 152 209 147 205 b 147 209 144 214 141 217 b 141 217 141 217 141 217 b 141 217 144 217 144 214 b 144 214 144 217 147 217 b 144 217 144 217 144 217 b 144 220 144 220 147 220 b 147 220 147 220 147 217 z m 323 656 b 323 656 326 656 330 656 b 326 651 326 650 320 645 b 320 641 320 638 320 635 b 317 635 312 635 312 638 b 317 645 323 645 323 656 z m 350 710 b 350 703 347 700 342 700 b 341 700 336 700 332 700 b 332 700 330 703 330 703 b 330 703 330 703 332 703 b 336 706 342 706 350 710 z m 336 697 b 341 697 342 691 347 691 b 347 691 350 690 347 690 b 347 690 347 690 347 690 b 342 686 341 686 332 686 b 336 690 336 691 336 697 z m 108 173 b 108 166 104 160 104 154 b 104 154 102 154 102 154 b 98 163 102 166 108 173 z m 253 502 b 248 508 256 518 259 518 b 262 512 256 506 253 502 z m 248 548 b 247 548 242 551 236 551 b 238 556 238 556 238 557 b 247 557 248 556 248 548 z m 144 279 b 147 279 153 277 157 277 b 153 273 152 273 147 269 b 147 273 144 277 144 279 z m 268 556 b 266 551 266 548 262 542 b 262 548 259 551 256 556 b 259 556 262 556 268 556 z m 134 173 b 134 173 132 173 128 173 b 128 179 128 185 132 190 b 132 184 134 179 134 173 z m 272 521 b 278 526 278 526 282 527 b 286 521 286 518 286 515 b 282 518 278 518 272 521 z m 84 136 b 84 139 84 139 84 143 b 92 143 93 139 102 139 b 102 139 102 139 102 136 b 93 136 92 136 84 136 z m 117 130 b 114 130 114 133 111 136 b 114 136 117 136 117 136 b 117 136 117 136 117 133 b 122 133 117 130 122 125 b 122 125 122 124 123 124 b 123 124 122 124 122 119 b 122 124 122 124 122 124 b 122 124 122 125 117 130 z m 182 293 b 182 297 187 299 182 303 b 182 303 187 303 187 308 b 188 297 188 297 182 293 z m 62 100 b 62 100 62 103 62 103 b 62 106 62 106 62 109 b 63 109 68 109 72 109 b 68 103 63 100 62 100 b 62 100 62 100 62 100 z m 229 512 b 229 508 229 506 229 497 b 226 497 226 497 223 497 b 223 508 226 512 229 512 z m 229 418 b 232 424 232 428 236 432 b 236 432 238 432 238 428 b 238 428 236 424 236 422 b 236 418 232 422 229 418 z m 188 384 b 193 384 196 382 199 382 b 196 382 188 382 187 382 b 187 382 188 384 188 384 z m 51 109 b 47 109 47 109 44 109 b 44 113 47 115 51 124 b 51 124 51 124 51 124 b 51 115 51 113 51 109 z m 172 279 b 178 279 182 277 178 269 b 172 273 172 273 172 279 z m 242 527 b 242 532 242 536 238 538 b 242 538 247 538 248 538 b 247 536 247 532 242 527 b 242 527 242 527 242 527 z m 242 512 b 242 506 242 502 232 506 b 236 508 238 512 242 512 z m 108 100 b 108 106 111 106 114 109 b 114 106 117 103 117 103 b 114 103 111 103 108 100 z m 141 203 b 144 205 147 205 152 199 b 147 196 144 196 141 203 z m 226 526 b 223 526 218 521 212 518 b 212 521 212 526 212 526 b 217 526 223 526 226 526 b 226 526 226 526 226 526 z m 28 85 b 28 90 28 94 28 100 b 28 100 28 100 28 100 b 28 100 32 100 32 100 b 32 100 32 85 28 85 z m 362 740 b 362 742 360 746 360 751 b 362 746 366 742 371 742 b 366 740 366 740 362 740 z m 212 373 b 218 382 223 382 229 373 b 223 373 218 373 212 373 z m 292 591 b 286 591 286 591 282 591 b 282 596 282 596 282 597 b 286 596 288 596 292 591 z m 356 727 b 356 727 356 727 356 727 b 353 727 353 727 350 727 b 353 730 353 730 356 733 b 356 730 356 730 356 727 z m 176 297 b 178 289 178 287 172 287 b 172 293 172 297 176 297 z m 229 488 b 229 484 229 482 229 478 b 229 478 229 478 229 478 b 226 482 223 482 223 484 b 223 484 223 484 223 484 b 223 484 226 488 229 488 z m 199 309 b 202 308 199 299 193 299 b 196 303 196 308 199 309 z m 162 347 b 162 348 162 348 162 353 b 162 353 163 353 168 353 b 168 353 168 353 168 353 b 163 348 163 347 162 347 b 162 347 162 347 162 347 z m 123 190 b 122 193 117 193 114 196 b 122 196 123 196 123 190 z m 144 249 b 152 253 153 253 153 249 b 152 249 147 247 144 249 z m 272 611 b 268 615 268 615 268 617 b 272 617 272 617 278 617 b 276 615 272 615 272 611 z m 256 596 b 256 596 259 596 259 596 b 259 591 259 591 259 587 b 259 591 256 591 256 596 z m 238 452 b 242 448 247 448 248 444 b 247 444 247 444 242 442 b 242 444 242 448 238 452 z m 242 402 b 238 397 236 397 232 402 b 236 402 238 402 242 402 z m 196 364 b 196 364 196 367 199 372 b 202 364 202 361 196 364 z m 223 418 b 223 424 223 428 223 428 b 226 428 226 424 223 418 z m 92 154 b 87 149 84 149 81 149 b 81 149 81 149 81 149 b 81 149 81 154 81 154 b 84 154 87 154 92 154 b 92 154 92 154 92 154 z m 193 454 b 196 458 196 461 199 464 b 199 464 199 464 199 464 b 199 461 199 458 199 458 b 199 454 196 454 193 454 z m 320 727 b 320 722 320 722 323 721 b 320 721 317 721 317 721 b 312 721 312 722 312 722 b 317 722 317 722 320 727 z m 312 686 b 320 681 317 675 312 675 b 312 680 312 681 312 686 z m 296 672 b 296 669 296 665 296 665 b 296 662 296 662 296 662 b 292 665 292 665 292 669 b 292 669 296 672 296 672 b 296 672 296 672 296 672 z m 268 557 b 266 557 262 557 262 562 b 259 562 259 562 259 562 b 262 562 262 562 266 562 b 266 562 268 562 268 562 b 268 562 268 562 268 557 z m 286 562 b 282 557 278 562 276 557 b 276 562 276 562 276 562 b 278 562 282 562 286 562 z m 212 478 b 217 473 218 473 223 473 b 223 472 223 472 223 472 b 218 472 217 472 217 473 b 212 473 217 473 212 478 z m 134 115 b 132 119 132 119 132 119 b 132 124 132 124 132 124 b 132 124 134 124 134 124 b 134 124 134 119 134 115 b 134 115 134 115 134 115 z m 272 526 b 268 527 268 532 268 536 b 268 536 272 536 272 536 b 272 532 272 527 272 526 z m 68 145 b 68 145 68 149 68 149 b 68 149 68 154 68 154 b 68 154 72 154 72 149 b 72 149 72 145 72 145 b 72 145 68 145 68 145 z m 128 143 b 128 143 128 143 128 143 b 128 143 128 145 128 145 b 128 145 132 145 132 145 b 132 145 132 143 132 143 b 132 143 132 143 128 143 z m 114 166 b 111 166 111 169 111 169 b 111 169 111 173 114 173 b 114 173 114 173 114 173 b 114 169 114 166 114 166 b 114 166 114 166 114 166 z m 53 103 b 53 103 53 100 53 96 b 51 100 51 103 53 103 z m 342 736 b 342 736 347 736 350 736 b 350 736 350 733 350 733 b 347 733 342 733 342 733 b 342 733 342 736 342 736 z m 98 175 b 98 173 98 173 98 169 b 98 169 98 169 98 169 b 98 173 93 173 93 175 b 93 175 98 175 98 175 z m 372 722 b 377 722 380 722 380 722 b 380 722 380 722 380 722 b 380 722 377 722 372 722 b 372 722 372 722 372 722 z m 253 568 b 256 568 259 566 259 566 b 259 566 259 566 259 566 b 256 566 256 562 253 566 b 253 566 253 566 253 568 z m 320 627 b 320 627 317 627 312 627 b 312 627 312 627 312 627 b 317 627 320 627 320 627 b 320 627 320 627 320 627 z m 268 494 b 266 494 262 494 262 494 b 262 497 262 497 262 497 b 262 497 266 497 268 497 b 268 497 268 497 268 494 z m 98 73 b 98 73 93 73 92 73 b 92 73 92 76 92 76 b 93 76 98 76 98 76 b 98 76 98 76 98 73 z m 57 79 b 57 76 53 76 51 76 b 51 79 51 79 53 79 b 53 79 57 79 57 79 b 57 79 57 79 57 79 z m 208 502 b 212 502 212 502 217 502 b 217 502 217 502 217 502 b 212 502 212 502 208 502 b 208 502 208 502 208 502 z m 268 538 b 268 542 268 545 268 545 b 268 545 272 545 272 545 b 272 545 272 542 272 538 b 272 538 272 538 268 538 z m 199 320 b 199 320 196 317 196 317 b 193 320 196 320 199 320 z m 108 119 b 108 119 108 119 108 119 b 108 115 111 115 111 113 b 111 113 108 113 108 113 b 108 115 108 115 108 119 z m 162 249 b 162 249 162 253 162 257 b 162 257 162 257 162 257 b 162 257 162 257 162 257 b 163 253 163 253 163 249 b 163 249 163 249 162 249 z m 232 391 b 236 394 236 394 238 394 b 238 394 238 391 238 391 b 238 391 236 391 232 391 b 232 391 232 391 232 391 z m 276 512 b 276 508 272 508 268 508 b 268 508 268 508 268 508 b 268 508 268 512 268 512 b 272 512 272 512 276 512 b 276 512 276 512 276 512 z m 152 299 b 147 299 147 299 144 297 b 144 297 144 299 144 299 b 144 299 144 299 144 299 b 147 299 147 299 152 299 b 152 299 152 299 152 299 z m 132 227 b 132 229 138 227 138 229 b 138 229 138 229 138 227 b 138 227 134 227 132 227 b 132 227 132 227 132 227 z m 256 578 b 256 575 253 575 248 575 b 248 575 248 578 248 578 b 253 578 253 578 256 578 b 256 578 256 578 256 578 z m 276 551 b 276 556 272 556 272 556 b 272 557 276 557 276 557 b 276 556 276 556 276 551 z m 306 585 b 302 585 298 585 298 581 b 298 585 298 585 298 585 b 298 585 302 585 302 585 b 306 585 306 585 306 585 z m 308 587 b 308 587 308 587 308 591 b 312 591 312 591 317 591 b 317 587 317 587 317 587 b 317 587 312 587 308 587 z m 84 103 b 87 106 87 109 92 113 b 84 115 81 113 81 109 b 78 106 81 106 84 103 z m 232 464 b 238 464 242 464 247 464 b 247 467 247 467 242 472 b 238 467 236 467 232 464 z"},"3":{"x_min":0,"x_max":622,"ha":622,"o":"m 160 -13 b 160 -13 160 -13 160 -13 b 170 -13 181 -13 187 -13 b 214 -10 237 -6 261 0 b 298 10 331 27 361 47 b 422 91 466 143 476 220 b 483 257 476 291 450 321 b 445 324 445 328 442 331 b 435 344 422 354 408 364 b 388 378 392 391 408 404 b 450 430 493 447 527 484 b 527 484 527 484 530 484 b 540 494 553 507 563 518 b 577 534 584 554 597 571 b 610 595 617 618 617 645 b 617 691 604 731 570 768 b 563 774 553 781 547 791 b 543 795 540 798 537 798 b 520 801 500 808 480 811 b 466 811 453 811 438 818 b 432 818 425 818 422 818 b 405 818 392 815 378 815 b 368 815 361 815 351 811 b 301 801 254 785 217 748 b 197 734 184 714 174 694 b 164 678 164 655 164 635 b 160 598 191 561 227 554 b 244 548 251 554 251 571 b 251 578 248 585 251 588 b 251 611 251 631 258 652 b 274 691 301 724 331 751 b 341 764 358 771 375 771 b 385 774 398 774 408 778 b 442 788 466 774 490 758 b 496 754 500 748 503 741 b 510 718 523 694 517 668 b 517 665 517 658 520 655 b 523 641 520 631 517 621 b 500 598 486 574 473 551 b 470 548 470 548 466 544 b 450 531 435 518 422 504 b 412 494 402 487 388 481 b 368 471 348 461 325 451 b 315 447 304 447 294 447 b 284 444 274 444 264 444 b 251 440 237 434 224 434 b 204 430 191 420 184 407 b 177 395 170 381 167 368 b 164 344 184 328 204 334 b 227 338 251 348 278 344 b 284 341 291 344 298 344 b 301 344 304 344 308 344 b 355 334 358 331 371 284 b 371 281 371 274 371 271 b 371 261 368 254 368 247 b 368 237 365 230 365 224 b 358 200 341 187 325 170 b 304 147 281 127 254 118 b 224 104 194 91 160 101 b 160 101 157 97 154 97 b 137 97 120 91 107 94 b 82 101 62 108 42 118 b 19 127 5 147 -8 170 b -8 170 -8 173 -8 173 b -5 194 -5 210 9 227 b 9 230 12 237 12 244 b 12 247 12 254 9 257 b 2 261 -5 261 -11 254 b -21 244 -32 234 -42 224 b -48 214 -55 200 -58 190 b -62 170 -65 153 -68 133 b -68 124 -65 118 -65 111 b -62 101 -55 94 -52 87 b -25 47 15 27 56 7 b 62 4 69 7 76 4 b 86 4 92 0 99 -3 b 114 -10 127 -13 140 -13 b 147 -13 154 -13 160 -13 z"},";":{"x_min":0,"x_max":240,"ha":240,"o":"m 52 140 b 35 147 28 143 22 127 b 15 107 8 83 2 63 b -5 53 -12 46 -15 36 b -18 23 -29 13 -39 0 b -49 -10 -55 -24 -65 -37 b -72 -47 -69 -54 -55 -57 b -49 -61 -39 -61 -32 -64 b -29 -64 -29 -61 -25 -61 b -5 -57 12 -44 28 -31 b 52 -7 75 20 92 50 b 99 56 105 73 102 83 b 95 110 79 133 52 140 z m 206 428 b 196 438 189 448 179 458 b 176 461 169 465 166 461 b 139 461 119 448 102 431 b 92 414 82 401 72 384 b 58 368 65 344 85 337 b 95 334 102 331 112 327 b 125 321 139 324 155 327 b 169 334 176 341 182 354 b 186 361 192 368 196 374 b 199 388 206 401 209 411 b 206 418 206 424 206 428 z"},"J":{"x_min":0,"x_max":725,"ha":725,"o":"m -37 -53 b -37 -57 -37 -60 -37 -63 b -37 -70 -34 -77 -37 -83 b -37 -93 -37 -103 -37 -110 b -30 -127 -27 -140 -20 -154 b -10 -174 6 -190 27 -197 b 37 -204 50 -210 63 -214 b 67 -217 73 -217 80 -217 b 90 -217 100 -217 110 -217 b 117 -217 120 -217 127 -217 b 140 -214 154 -210 167 -204 b 177 -200 184 -200 194 -197 b 201 -194 207 -190 214 -187 b 217 -187 221 -184 221 -184 b 234 -180 244 -174 251 -164 b 257 -160 261 -157 267 -154 b 284 -147 301 -134 314 -120 b 318 -117 321 -113 328 -110 b 338 -100 351 -90 358 -77 b 364 -70 368 -63 374 -57 b 381 -50 388 -47 391 -40 b 398 -37 401 -33 405 -30 b 408 -23 411 -20 415 -16 b 415 -13 418 -13 418 -13 b 418 -6 421 -3 425 4 b 448 27 468 54 485 81 b 488 87 495 97 502 104 b 508 111 515 121 515 131 b 522 144 525 157 535 168 b 542 174 545 181 545 188 b 548 194 552 198 555 204 b 558 211 562 218 565 224 b 565 228 568 231 568 238 b 572 241 575 248 579 251 b 582 261 589 271 592 281 b 595 288 595 291 599 298 b 612 318 619 341 629 365 b 632 382 642 402 645 418 b 649 428 652 442 655 452 b 659 462 662 472 669 479 b 669 482 672 482 672 485 b 676 495 679 505 679 519 b 676 525 679 532 682 539 b 686 552 692 566 696 582 b 696 586 696 592 699 599 b 699 606 699 612 702 616 b 702 616 702 619 702 619 b 699 626 702 636 702 643 b 706 649 702 653 702 656 b 702 659 702 663 702 666 b 706 676 709 686 709 696 b 709 699 709 703 709 706 b 706 719 702 736 699 750 b 692 766 686 780 679 793 b 672 800 666 806 659 813 b 652 823 642 830 629 837 b 619 837 612 843 605 843 b 602 843 595 843 592 847 b 582 853 572 853 562 853 b 545 853 528 853 512 853 b 502 853 492 857 478 857 b 478 857 478 860 478 860 b 475 860 475 860 471 860 b 451 853 435 847 415 840 b 405 837 395 840 385 837 b 364 830 341 820 318 813 b 318 813 314 810 311 813 b 308 813 304 813 301 813 b 294 806 284 800 277 793 b 274 793 271 790 267 790 b 261 786 254 783 247 780 b 234 773 221 763 204 753 b 197 750 194 746 187 740 b 180 733 174 730 164 723 b 157 719 150 716 144 709 b 130 703 117 693 110 679 b 100 669 93 659 83 653 b 57 633 37 606 23 576 b 20 566 13 556 10 549 b 3 539 0 532 0 522 b 0 515 -4 512 -4 505 b -4 502 -7 499 -4 495 b -4 485 -4 475 -4 462 b -4 438 3 415 17 395 b 27 382 33 365 43 352 b 47 348 53 341 57 335 b 67 325 80 328 90 328 b 90 345 90 362 87 375 b 80 385 80 395 80 405 b 87 422 87 438 87 459 b 87 462 87 469 90 472 b 93 475 93 475 93 479 b 97 485 100 495 104 502 b 110 515 120 529 127 542 b 150 576 174 609 197 639 b 224 673 257 696 287 719 b 298 726 304 733 314 740 b 314 740 314 743 314 743 b 328 750 338 756 351 763 b 358 766 368 770 374 773 b 381 773 385 776 388 780 b 391 783 395 786 398 786 b 411 793 425 800 441 803 b 448 806 455 806 465 810 b 475 813 485 817 495 817 b 498 817 502 817 505 817 b 508 817 512 820 512 817 b 518 817 525 813 532 813 b 538 810 545 806 548 803 b 552 796 558 790 562 786 b 575 776 579 766 575 750 b 575 750 575 743 579 743 b 585 723 582 706 575 686 b 575 683 572 679 572 676 b 572 663 568 646 562 629 b 558 626 558 616 558 609 b 558 602 558 596 555 589 b 552 576 548 566 545 552 b 542 546 538 539 532 532 b 532 532 532 529 532 529 b 535 522 532 515 532 509 b 528 502 525 495 525 489 b 522 482 522 479 518 475 b 515 465 512 459 505 449 b 505 445 498 442 502 435 b 502 435 498 432 498 432 b 492 415 485 395 478 378 b 475 368 471 358 465 352 b 458 345 458 341 455 335 b 451 325 448 311 445 301 b 428 271 415 241 395 214 b 391 208 388 204 388 198 b 385 188 378 178 371 168 b 368 164 364 161 364 157 b 354 137 344 121 331 104 b 321 84 308 64 294 44 b 284 27 271 10 261 -6 b 251 -20 241 -33 227 -40 b 227 -43 227 -43 224 -47 b 221 -50 217 -57 214 -60 b 207 -67 201 -73 197 -80 b 184 -93 174 -107 160 -117 b 150 -127 140 -137 127 -147 b 127 -147 124 -150 124 -150 b 110 -154 97 -157 83 -160 b 83 -160 80 -160 80 -160 b 60 -157 43 -147 30 -130 b 27 -127 27 -124 27 -120 b 27 -113 27 -110 23 -107 b 20 -103 20 -100 23 -100 b 27 -97 27 -90 27 -87 b 27 -83 27 -77 27 -73 b 30 -60 37 -43 40 -27 b 43 -23 43 -20 43 -16 b 43 -13 43 -6 43 -6 b 37 0 33 7 27 14 b 17 7 6 4 0 -3 b -17 -16 -34 -33 -37 -53 z m 582 485 b 582 485 585 489 585 489 b 585 489 589 489 589 489 b 589 485 589 485 589 482 b 589 482 585 479 585 479 b 579 479 582 482 582 485 b 575 485 575 485 572 489 b 575 489 579 492 582 485 z m 405 74 b 401 74 401 74 398 74 b 398 77 398 81 401 87 b 401 87 405 87 408 87 b 408 87 408 87 408 87 b 408 84 405 81 405 74 b 405 74 405 74 408 77 b 408 71 408 71 408 67 b 408 64 408 64 408 64 b 408 64 405 64 405 67 b 405 71 405 71 405 74 z m 492 241 b 492 238 492 234 492 234 b 492 234 492 234 492 234 b 492 234 492 234 492 234 b 488 234 488 238 488 241 b 492 241 492 241 492 241 b 492 241 492 241 492 244 b 502 244 505 244 508 231 b 505 231 502 231 502 228 b 502 228 502 224 502 221 b 498 221 495 221 495 221 b 495 224 492 224 492 228 b 495 228 498 228 502 228 b 502 231 502 238 502 241 b 498 241 495 241 492 241 z m 548 328 b 548 325 548 325 548 321 b 545 321 542 321 538 321 b 538 321 538 321 538 321 b 535 325 535 328 532 331 b 538 331 542 331 545 331 b 545 335 545 338 545 341 b 542 341 542 338 538 338 b 535 338 535 338 532 341 b 528 341 525 341 522 341 b 522 341 518 341 518 341 b 518 345 522 345 522 345 b 528 341 532 345 535 348 b 535 352 535 352 535 352 b 538 348 535 345 542 345 b 538 348 542 352 538 355 b 538 355 538 355 535 355 b 542 358 545 358 545 355 b 548 352 548 352 548 348 b 545 345 545 341 545 341 b 548 338 548 338 552 338 b 555 338 555 338 558 341 b 558 341 558 338 562 338 b 558 338 558 338 558 338 b 558 338 555 338 552 335 b 552 331 555 328 548 328 z m 425 114 b 425 114 421 114 421 114 b 421 111 421 111 425 111 b 421 111 421 111 421 107 b 418 114 415 121 411 124 b 421 131 428 127 438 121 b 435 121 435 117 435 117 b 431 117 428 117 428 121 b 425 121 425 121 421 124 b 421 121 425 117 425 114 b 428 114 428 114 431 117 b 431 111 428 111 425 111 b 425 114 425 114 425 114 z m 552 388 b 552 392 552 392 548 395 b 548 398 548 398 552 402 b 555 398 558 398 558 395 b 558 395 558 392 558 388 b 562 388 565 388 568 388 b 572 388 572 388 572 388 b 572 385 572 385 572 385 b 568 382 568 382 565 382 b 565 382 562 382 562 385 b 562 382 565 378 565 378 b 565 375 562 375 562 372 b 562 372 562 368 562 368 b 562 365 558 362 558 362 b 558 362 558 362 558 362 b 558 365 558 368 555 372 b 558 372 558 372 562 372 b 558 375 558 375 558 375 b 555 372 552 372 548 372 b 548 372 545 375 545 375 b 545 375 545 378 548 382 b 542 382 545 385 545 388 b 548 388 552 388 552 388 z m 532 291 b 528 291 528 291 525 288 b 525 288 528 285 528 281 b 525 281 525 281 522 278 b 522 278 522 275 525 271 b 522 275 518 275 515 275 b 515 278 512 278 512 278 b 515 285 518 288 518 291 b 522 295 522 295 525 298 b 525 301 525 308 522 311 b 518 315 518 315 515 318 b 518 318 518 318 518 321 b 522 318 525 315 528 311 b 528 318 528 321 525 325 b 528 325 532 325 532 325 b 532 321 535 315 532 311 b 532 311 532 308 532 308 b 532 308 532 305 528 305 b 528 301 528 298 532 298 b 532 295 532 295 532 291 b 535 291 538 295 542 288 b 538 288 535 288 532 291 z m 465 171 b 471 168 471 168 468 157 b 465 157 458 161 451 161 b 451 157 451 154 451 151 b 448 154 445 157 445 157 b 445 161 445 164 448 168 b 445 168 445 168 441 171 b 445 174 448 174 451 171 b 455 171 455 168 458 164 b 458 164 461 164 461 164 b 461 164 465 168 465 168 b 465 168 465 171 465 171 z m 498 278 b 498 278 498 278 502 278 b 502 271 505 268 515 268 b 515 268 518 268 522 265 b 515 261 512 261 505 265 b 502 258 502 258 495 261 b 495 278 495 278 498 278 z m 622 592 b 622 596 625 596 629 596 b 629 592 632 589 632 586 b 629 586 625 586 622 586 b 622 592 622 592 609 599 b 612 602 612 602 622 599 b 622 599 622 596 622 592 z m 451 137 b 448 134 445 131 445 127 b 441 127 441 127 441 127 b 438 127 438 131 438 131 b 435 131 438 134 438 134 b 441 134 441 137 445 141 b 445 141 445 144 448 144 b 448 144 448 141 451 141 b 451 141 451 137 451 137 z m 512 295 b 512 291 508 288 508 285 b 505 288 502 288 498 291 b 498 295 502 298 502 301 b 505 298 508 298 512 295 z m 438 154 b 431 154 428 151 425 151 b 425 154 421 161 421 168 b 428 161 431 157 438 154 z m 478 188 b 482 184 482 184 485 181 b 482 181 482 181 482 178 b 482 178 485 174 485 174 b 485 174 485 171 485 171 b 482 174 478 174 471 178 b 475 181 478 184 478 188 z m 475 194 b 471 191 471 184 468 178 b 468 178 465 178 465 178 b 465 178 465 178 465 178 b 465 184 468 191 468 194 b 468 194 471 194 475 198 b 475 198 475 194 475 194 z m 562 345 b 562 345 562 348 558 348 b 558 348 555 345 555 345 b 555 348 552 348 552 352 b 555 352 558 355 562 355 b 568 355 568 352 562 345 z m 629 633 b 632 636 635 636 642 633 b 645 633 645 629 645 626 b 639 629 635 629 629 633 z m 475 224 b 475 224 471 224 468 221 b 468 221 465 221 461 218 b 461 221 461 224 461 224 b 468 231 475 228 475 224 z m 629 549 b 625 549 625 556 625 556 b 622 556 622 556 619 556 b 615 556 615 559 615 559 b 622 562 629 559 629 549 z m 458 204 b 458 208 458 208 461 208 b 458 211 458 211 458 214 b 461 214 468 214 471 214 b 468 211 461 208 458 204 b 458 204 458 204 458 204 z m 582 405 b 589 398 589 395 582 388 b 582 395 582 405 582 405 z m 605 529 b 609 529 612 529 615 529 b 615 525 615 525 615 522 b 609 522 605 525 605 529 z m 572 492 b 572 492 572 492 572 489 b 572 489 568 489 568 489 b 568 485 568 479 568 475 b 568 475 568 475 568 475 b 568 475 565 475 565 475 b 565 485 565 489 572 492 z m 595 485 b 599 482 602 482 605 479 b 602 479 599 479 592 475 b 592 479 592 482 595 485 z m 585 529 b 585 529 582 529 582 529 b 582 529 579 529 579 529 b 579 532 579 536 579 536 b 579 536 582 539 582 536 b 585 536 585 532 585 529 z m 334 7 b 331 4 331 4 324 10 b 328 14 331 10 334 7 z m 515 321 b 512 318 508 315 508 318 b 508 318 505 318 505 321 b 505 321 508 325 508 325 b 508 325 512 321 515 321 z m 599 589 b 599 589 602 589 605 589 b 605 586 605 582 605 579 b 605 579 605 579 605 579 b 602 582 599 586 599 589 z m 552 425 b 548 428 548 432 548 435 b 552 432 555 428 555 425 b 555 425 552 425 552 425 z m 595 509 b 595 515 595 519 595 522 b 595 519 599 515 602 515 b 599 512 599 512 595 509 z m 374 71 b 374 71 378 67 381 67 b 378 64 374 64 371 64 b 371 67 371 67 374 71 z m 572 442 b 568 442 568 442 568 445 b 568 449 568 452 572 452 b 572 449 572 445 572 442 z m 579 425 b 579 428 579 435 585 432 b 585 432 585 428 585 425 b 582 425 582 425 579 425 z m 435 147 b 438 144 435 141 428 137 b 431 141 431 144 435 147 z m 475 208 b 475 204 475 204 475 201 b 475 201 471 201 468 201 b 468 201 468 201 468 201 b 471 204 471 204 475 208 b 475 208 475 208 475 208 z m 542 305 b 542 301 542 298 542 298 b 538 298 535 298 535 298 b 535 298 532 298 532 298 b 535 301 538 301 538 305 b 538 305 538 305 542 305 z m 609 509 b 612 509 612 512 615 515 b 615 512 615 509 615 505 b 615 505 612 505 609 505 b 609 505 609 505 609 509 z m 538 398 b 535 398 535 395 535 395 b 532 392 532 395 528 395 b 528 395 528 395 528 395 b 532 398 532 398 535 398 b 535 398 535 398 538 398 z m 492 295 b 492 291 488 291 485 288 b 485 291 485 295 485 295 b 488 295 492 295 492 295 b 492 295 492 295 492 295 z m 575 355 b 575 352 572 352 572 352 b 572 352 568 355 568 355 b 572 355 572 358 575 362 b 575 362 575 362 575 362 b 575 358 575 355 575 355 z m 498 251 b 495 251 495 255 488 255 b 495 255 495 255 498 258 b 498 255 498 251 498 251 z m 645 606 b 642 606 639 606 632 606 b 635 606 635 609 635 609 b 639 609 642 609 645 609 b 645 609 645 609 645 606 z m 602 492 b 602 495 602 499 599 502 b 602 502 602 502 605 502 b 605 499 605 495 605 492 b 602 492 602 492 602 492 z m 381 50 b 385 50 388 50 391 50 b 391 50 391 50 391 47 b 388 47 381 47 381 50 z m 642 653 b 639 649 635 649 635 649 b 632 649 632 653 632 653 b 635 653 639 653 642 653 b 642 653 642 653 642 653 z m 538 368 b 542 365 542 365 542 362 b 538 362 535 362 535 365 b 535 368 538 368 538 368 z m 645 679 b 645 683 645 686 645 689 b 645 689 649 689 649 689 b 649 686 649 683 649 679 b 649 679 649 679 645 679 z m 552 305 b 552 298 552 298 545 298 b 548 301 548 301 552 305 z m 405 131 b 408 131 411 131 411 131 b 411 131 411 131 411 131 b 411 127 408 127 408 127 b 408 127 405 131 405 131 b 405 131 405 131 405 131 z m 475 258 b 478 255 478 251 482 248 b 478 251 475 251 475 251 b 475 251 475 255 475 258 z m 575 388 b 575 392 572 392 572 395 b 572 395 575 395 575 398 b 575 398 575 395 575 395 b 575 395 575 392 575 388 b 575 388 575 388 575 388 z m 485 261 b 485 261 485 265 485 265 b 485 268 485 268 488 268 b 488 268 488 268 488 268 b 488 265 488 261 488 261 b 488 261 488 261 485 261 z m 662 676 b 655 673 655 673 655 676 b 655 676 659 676 662 676 z m 649 649 b 652 649 652 649 655 649 b 655 649 655 646 655 646 b 652 646 652 646 649 646 b 649 646 649 649 649 649 z m 619 582 b 619 579 619 576 612 579 b 615 579 619 582 619 582 z m 599 472 b 595 469 595 469 595 472 b 595 472 599 472 602 472 b 602 472 599 472 599 472 z m 458 198 b 461 194 461 191 458 188 b 458 191 458 194 458 198 z m 328 -30 b 328 -27 328 -23 328 -20 b 331 -20 331 -20 331 -20 b 331 -23 331 -27 331 -27 b 331 -27 331 -27 328 -30 z m 398 57 b 398 57 398 60 398 64 b 398 64 398 64 398 64 b 398 60 401 60 401 57 b 401 57 398 57 398 57 z m 592 462 b 595 462 599 465 599 465 b 599 465 599 465 602 465 b 599 462 599 462 599 462 b 599 462 595 462 595 462 b 595 462 595 462 592 462 z m 421 97 b 425 91 425 91 421 87 b 421 91 421 94 421 97 z m 602 536 b 602 536 602 536 602 536 b 599 536 599 539 599 539 b 599 539 599 542 599 542 b 599 539 602 536 602 536 z m 385 57 b 381 57 381 57 381 64 b 381 60 385 60 385 57 z m 401 94 b 398 94 398 94 398 101 b 398 97 398 94 401 94 z m 468 154 b 471 154 471 151 471 147 b 468 147 468 147 468 154 b 468 154 468 154 468 154 z m 568 438 b 565 438 565 438 562 438 b 562 438 562 438 562 438 b 562 438 562 438 562 438 b 565 442 565 442 568 442 b 568 442 568 442 568 438 z m 625 539 b 629 539 629 536 629 536 b 625 536 625 536 625 539 z m 485 211 b 485 211 488 211 488 211 b 488 211 488 208 485 208 b 485 208 485 208 485 211 z m 552 388 b 552 388 552 388 552 388 b 552 385 552 385 548 382 b 552 378 555 378 555 378 b 555 382 555 385 555 388 b 555 388 555 388 552 388 z m 545 331 b 545 331 542 328 542 325 b 545 328 545 328 548 328 b 548 328 545 331 545 331 z"},"V":{"x_min":0,"x_max":787,"ha":787,"o":"m 838 747 b 838 750 838 753 838 757 b 835 766 831 776 828 783 b 818 803 808 821 792 830 b 784 837 774 840 767 840 b 761 840 754 834 754 830 b 751 814 751 800 747 783 b 747 783 747 783 747 780 b 728 750 714 713 698 679 b 680 643 664 605 644 569 b 637 552 630 539 620 522 b 620 518 620 518 620 515 b 601 488 586 458 570 428 b 563 418 556 408 550 398 b 546 394 546 391 543 384 b 540 371 530 361 520 351 b 520 351 517 348 517 345 b 513 335 507 320 496 310 b 492 304 486 297 482 290 b 469 271 453 254 439 237 b 436 231 429 223 426 217 b 413 200 399 183 385 167 b 382 160 375 154 369 150 b 359 140 345 129 336 123 b 319 106 298 96 275 83 b 268 80 258 80 248 80 b 248 80 248 80 248 80 b 238 89 228 96 228 109 b 225 113 228 116 228 119 b 235 133 238 147 238 163 b 238 163 238 167 238 170 b 248 200 258 226 271 254 b 271 257 271 261 275 264 b 275 267 275 271 275 274 b 281 287 285 300 291 310 b 295 320 298 328 301 338 b 301 345 305 348 305 351 b 319 374 329 398 336 421 b 345 448 355 475 362 501 b 365 511 372 518 375 529 b 379 532 382 536 382 539 b 385 552 392 565 395 575 b 399 579 399 582 399 585 b 406 605 413 626 416 646 b 419 653 419 663 423 669 b 423 669 423 673 423 673 b 429 679 429 686 426 696 b 423 699 423 702 426 706 b 429 709 429 713 426 717 b 423 733 419 747 413 760 b 409 776 399 786 385 796 b 375 806 365 817 355 827 b 352 827 352 827 352 827 b 339 834 329 840 316 844 b 309 847 298 850 291 847 b 291 847 288 847 288 850 b 281 854 278 854 271 854 b 268 854 262 854 258 857 b 255 857 252 857 252 857 b 248 857 245 854 245 854 b 242 854 238 854 238 854 b 222 854 207 854 191 854 b 184 854 181 854 178 850 b 174 850 171 847 168 850 b 161 854 154 854 148 850 b 128 847 110 844 94 837 b 80 834 67 834 57 830 b 47 827 37 821 27 817 b 21 814 13 814 6 811 b 0 811 -7 806 -13 803 b -17 796 -23 793 -30 793 b -40 790 -47 786 -53 783 b -60 776 -66 770 -73 766 b -81 760 -87 757 -97 753 b -97 753 -101 753 -104 750 b -124 737 -144 720 -164 702 b -170 699 -181 692 -185 683 b -188 676 -191 673 -198 669 b -204 666 -211 659 -214 653 b -221 646 -228 643 -234 636 b -234 633 -238 633 -238 633 b -241 623 -248 612 -258 605 b -261 602 -264 599 -264 592 b -272 579 -278 569 -285 556 b -292 539 -298 518 -305 498 b -305 498 -305 495 -305 495 b -305 491 -305 491 -305 491 b -302 485 -298 478 -298 472 b -298 465 -295 462 -295 458 b -295 455 -292 452 -295 452 b -298 445 -295 438 -295 432 b -285 408 -275 388 -264 368 b -261 364 -254 358 -251 355 b -244 351 -241 348 -238 345 b -228 335 -221 331 -208 335 b -204 335 -201 335 -198 335 b -198 345 -198 355 -201 364 b -204 371 -208 378 -208 384 b -211 398 -214 411 -211 425 b -204 438 -201 452 -198 465 b -198 482 -195 495 -185 508 b -185 515 -181 518 -178 526 b -174 532 -170 539 -167 542 b -154 565 -137 589 -124 609 b -114 623 -107 633 -94 643 b -87 646 -81 656 -73 663 b -70 666 -63 673 -60 676 b -50 686 -40 696 -30 706 b -27 709 -20 713 -17 717 b -3 723 10 730 21 740 b 24 743 27 747 31 750 b 57 763 80 776 104 790 b 110 793 118 796 128 800 b 135 803 144 803 154 806 b 161 811 168 814 174 814 b 178 811 184 814 188 814 b 191 814 194 814 198 817 b 204 821 212 824 222 821 b 225 817 232 817 238 817 b 245 817 252 817 255 811 b 255 811 258 806 262 806 b 268 803 271 796 275 790 b 278 780 281 773 285 766 b 285 763 288 757 288 753 b 291 737 291 720 288 702 b 281 683 278 663 271 643 b 265 615 258 592 252 565 b 252 562 252 559 252 556 b 248 549 248 542 242 539 b 235 529 232 518 228 505 b 228 501 228 501 228 498 b 225 491 222 485 218 478 b 215 468 212 458 204 448 b 201 448 201 445 201 442 b 201 435 201 432 198 425 b 191 414 184 401 181 391 b 178 388 178 384 178 384 b 174 374 174 364 168 358 b 158 348 151 335 148 320 b 138 294 128 271 114 247 b 110 241 107 234 107 226 b 110 223 107 220 107 217 b 104 213 100 210 100 207 b 97 203 97 200 97 197 b 94 190 90 180 90 173 b 87 170 87 170 87 170 b 84 167 84 163 84 160 b 84 157 84 154 84 154 b 80 150 80 147 80 140 b 84 140 84 137 84 133 b 87 123 90 109 90 99 b 94 83 97 66 107 53 b 107 50 110 50 110 46 b 114 32 125 25 135 19 b 144 12 154 6 164 -1 b 168 -4 171 -4 178 -4 b 184 -4 191 -4 198 -8 b 198 -11 201 -11 204 -8 b 207 -4 215 -4 222 -4 b 228 -4 235 -4 242 -4 b 262 6 285 12 301 25 b 309 29 319 32 326 35 b 336 43 349 46 359 56 b 362 60 369 66 372 70 b 395 89 416 109 439 126 b 439 126 443 129 443 129 b 466 154 486 177 507 197 b 527 217 546 241 563 264 b 570 277 583 290 593 300 b 593 300 596 304 596 304 b 596 310 604 317 610 324 b 617 331 620 338 627 345 b 644 371 660 394 677 421 b 683 432 690 442 698 452 b 701 458 708 468 711 475 b 724 495 738 511 744 536 b 744 536 744 536 747 539 b 751 552 761 565 771 579 b 781 592 787 609 795 623 b 795 629 798 636 802 639 b 805 649 808 656 811 666 b 821 692 828 720 838 747 z m 225 314 b 225 314 225 317 228 320 b 228 317 232 317 232 314 b 228 314 228 314 225 314 b 225 310 225 307 225 304 b 225 304 225 300 225 300 b 225 300 222 300 222 300 b 222 304 222 307 222 310 b 222 314 225 314 225 314 z m 164 197 b 164 197 161 197 161 200 b 158 200 158 200 158 200 b 154 203 154 207 154 210 b 154 213 154 217 158 217 b 161 210 164 203 164 197 b 168 197 171 197 171 193 b 174 187 174 183 168 180 b 168 183 168 183 171 187 b 171 187 168 190 168 193 b 164 193 168 193 164 197 z m 164 170 b 164 167 164 167 161 167 b 161 163 161 160 161 157 b 158 160 154 160 148 163 b 151 163 154 167 158 170 b 161 170 161 170 161 173 b 161 173 164 177 164 177 b 164 177 164 177 164 177 b 164 173 164 170 164 167 b 168 167 168 167 168 167 b 168 167 168 163 168 163 b 168 163 168 160 168 160 b 168 160 168 160 168 163 b 168 163 164 167 164 170 z m 204 281 b 204 277 212 277 207 271 b 204 271 207 271 207 271 b 207 267 207 264 212 264 b 215 257 215 257 207 254 b 204 257 201 261 201 264 b 198 264 198 264 198 264 b 201 271 201 274 204 281 z m 161 119 b 164 123 164 133 174 129 b 171 129 171 126 168 126 b 171 123 174 123 178 123 b 171 119 168 113 161 119 z m 184 129 b 181 129 181 129 178 126 b 178 133 178 133 174 137 b 171 140 174 144 174 147 b 174 147 174 147 178 147 b 178 144 178 140 178 137 b 181 137 181 140 184 140 b 184 137 184 133 184 129 z m 158 103 b 161 103 161 103 164 103 b 164 99 161 96 161 93 b 164 93 168 89 168 89 b 171 89 174 89 178 89 b 174 89 171 86 164 86 b 158 89 158 93 158 103 z m 188 160 b 188 160 184 163 184 167 b 184 167 184 170 184 170 b 181 173 181 177 188 180 b 191 177 191 177 191 170 b 191 167 188 163 188 160 b 188 160 188 160 188 160 z m 174 197 b 178 200 181 200 184 203 b 184 200 188 197 188 193 b 181 190 178 193 174 197 z m 201 241 b 201 241 201 237 201 237 b 201 234 201 231 204 231 b 204 231 204 226 204 223 b 204 223 204 223 204 223 b 201 226 201 226 201 231 b 198 231 198 226 194 223 b 191 231 194 237 201 241 z m 271 408 b 275 408 281 411 285 411 b 285 411 281 411 281 408 b 281 408 285 404 285 404 b 278 398 275 408 271 408 z m 232 378 b 238 378 242 378 248 378 b 248 378 248 378 248 378 b 248 374 248 374 245 374 b 242 371 242 371 238 371 b 235 371 235 374 232 378 z m 171 210 b 171 213 164 217 168 223 b 174 220 174 217 171 210 z m 258 374 b 255 374 252 378 248 378 b 252 381 255 384 255 388 b 258 381 258 378 258 374 z m 248 331 b 242 335 242 335 245 341 b 248 338 252 335 248 331 z m 305 539 b 305 536 301 529 298 526 b 298 526 298 526 298 526 b 298 529 298 536 298 539 b 301 539 301 539 305 539 z m 345 676 b 349 679 349 679 352 683 b 352 683 355 679 355 676 b 352 676 349 676 345 676 b 345 676 345 676 345 676 z m 178 106 b 178 106 178 103 178 103 b 178 103 178 103 178 99 b 174 99 171 99 168 99 b 168 99 168 99 168 99 b 171 103 174 106 178 106 z m 212 290 b 215 290 222 290 225 290 b 222 287 215 287 212 290 z m 298 511 b 295 511 295 511 291 511 b 291 511 291 515 291 518 b 295 515 295 515 298 511 b 298 511 298 511 298 511 z m 158 147 b 161 150 161 150 164 154 b 164 147 164 147 164 140 b 161 144 161 147 158 147 z m 154 113 b 151 113 148 116 148 119 b 151 119 154 119 158 119 b 154 116 154 113 154 113 z m 158 89 b 154 89 151 89 151 86 b 151 89 151 93 148 96 b 151 96 154 93 158 89 z m 359 653 b 362 649 362 646 365 646 b 365 646 365 646 365 646 b 365 646 362 643 362 643 b 359 646 359 649 355 649 b 355 649 359 649 359 653 z m 275 438 b 268 438 268 442 271 445 b 275 445 275 442 275 438 z m 222 320 b 218 320 218 320 215 320 b 215 324 215 324 215 328 b 215 328 215 328 215 328 b 218 328 218 324 222 324 b 222 320 222 320 222 320 z m 178 264 b 178 264 181 267 184 267 b 184 264 184 261 184 261 b 181 261 178 261 178 261 b 178 264 178 264 178 264 z m 238 404 b 238 404 242 408 245 408 b 245 408 245 404 245 401 b 242 401 242 401 238 401 b 238 404 238 404 238 404 z m 201 251 b 198 251 198 247 194 247 b 194 247 194 251 194 251 b 198 254 198 254 201 251 z m 212 341 b 212 345 207 348 212 348 b 215 345 215 341 212 341 z m 362 595 b 359 595 355 595 352 595 b 352 595 352 599 352 599 b 355 599 359 599 362 599 b 362 595 362 595 362 595 z m 161 183 b 161 187 161 190 164 193 b 164 187 164 187 161 183 z m 285 485 b 288 485 291 485 291 488 b 291 485 291 485 291 482 b 291 482 288 482 285 482 b 285 485 285 485 285 485 z m 228 331 b 225 331 225 335 222 335 b 222 335 222 335 222 335 b 225 335 225 335 228 335 b 228 335 228 331 228 331 z m 198 314 b 194 317 191 317 188 317 b 188 317 188 320 188 320 b 191 320 194 320 194 317 b 194 317 194 317 198 314 z m 181 251 b 178 251 174 251 174 251 b 174 251 174 251 174 251 b 174 251 178 254 181 254 b 181 251 181 251 181 251 z m 345 689 b 349 689 349 689 352 689 b 352 689 352 689 352 689 b 352 689 352 689 352 689 b 352 689 349 689 345 689 b 345 689 345 689 345 689 z m 349 643 b 345 643 345 643 342 643 b 349 646 349 646 349 643 z m 238 381 b 242 384 245 384 245 381 b 242 381 242 381 238 381 z m 271 374 b 271 378 275 378 275 378 b 275 378 278 374 278 374 b 275 374 271 374 271 374 b 271 374 271 374 271 374 z m 359 673 b 362 673 362 673 359 666 b 359 669 359 673 359 673 z m 238 307 b 242 307 242 307 245 307 b 245 307 245 307 245 307 b 242 307 242 307 238 307 b 238 307 238 307 238 307 z m 181 106 b 181 109 181 109 181 109 b 184 109 184 109 184 109 b 188 109 188 109 188 109 b 188 109 188 109 188 109 b 188 109 184 109 181 106 z m 281 472 b 281 468 278 472 275 468 b 275 472 275 472 275 472 b 275 472 278 472 281 475 b 281 475 281 472 281 472 z m 184 223 b 181 231 181 231 184 234 b 184 231 184 231 184 223 z m 329 592 b 329 589 326 592 322 589 b 322 592 322 592 322 592 b 326 592 326 592 329 595 b 329 595 329 592 329 592 z m 198 213 b 198 213 198 213 198 217 b 201 217 201 217 204 217 b 204 213 204 213 204 213 b 204 213 201 213 198 213 z m 144 103 b 148 106 148 106 154 106 b 151 106 148 103 144 103 z m 265 411 b 265 408 262 411 258 408 b 258 411 258 411 258 411 b 262 411 262 411 265 414 b 265 414 265 411 265 411 z m 222 247 b 225 251 228 251 228 247 b 228 247 225 247 222 247 z m 188 83 b 188 80 188 80 181 83 b 184 83 184 83 188 83 z m 201 284 b 201 287 201 290 201 290 b 201 290 201 290 201 290 b 204 290 204 287 204 287 b 204 287 204 284 204 284 b 204 284 204 284 201 284 z"},"\"":{"x_min":0,"x_max":515,"ha":515,"o":"m 135 615 b 133 591 146 570 160 553 b 168 546 174 543 181 543 b 206 543 215 553 222 577 b 222 595 230 612 233 632 b 233 636 237 643 240 646 b 253 657 257 674 264 688 b 271 702 271 719 268 733 b 268 743 264 757 257 764 b 244 779 230 785 215 792 b 206 799 195 799 188 799 b 174 795 168 788 168 775 b 164 761 160 747 157 733 b 153 708 146 688 143 664 b 143 657 143 650 143 643 b 139 636 135 626 135 615 z m 358 543 b 382 539 389 546 393 574 b 393 577 393 584 393 588 b 393 591 393 595 393 597 b 399 612 403 626 410 639 b 413 650 420 661 428 668 b 444 681 441 702 451 723 b 451 723 448 726 448 730 b 441 754 428 775 403 785 b 399 785 393 785 393 788 b 382 799 372 799 358 799 b 344 795 344 792 341 779 b 341 761 337 743 333 730 b 326 708 317 692 320 670 b 320 668 317 661 317 657 b 306 622 310 591 326 563 b 333 550 341 539 358 543 z"},"7":{"x_min":0,"x_max":567,"ha":567,"o":"m 616 773 b 609 813 565 833 531 813 b 524 810 520 806 513 806 b 493 803 472 800 456 800 b 418 803 387 790 353 793 b 330 796 305 793 281 796 b 264 796 251 800 237 800 b 230 800 227 803 220 800 b 199 800 176 796 152 796 b 118 793 98 777 90 742 b 87 722 94 716 118 716 b 139 719 162 722 183 722 b 193 722 203 719 214 719 b 247 719 284 719 319 719 b 330 719 340 722 350 722 b 367 726 384 732 400 722 b 404 722 408 722 408 722 b 408 726 408 726 408 726 b 418 726 425 722 431 719 b 449 712 449 706 441 692 b 418 646 394 603 363 562 b 346 539 333 519 315 495 b 289 452 261 406 227 365 b 224 362 220 358 217 352 b 199 315 162 288 142 249 b 142 245 139 245 135 242 b 128 232 121 224 114 218 b 90 181 63 145 36 108 b 23 88 12 65 -2 41 b -5 31 -5 21 2 14 b 16 -3 29 -23 57 -23 b 57 -26 60 -26 63 -26 b 87 -33 87 -33 104 -16 b 108 -9 111 -6 111 -3 b 131 37 155 75 179 111 b 189 128 203 148 217 165 b 224 181 234 194 244 208 b 247 214 251 221 255 224 b 274 255 295 285 315 312 b 330 335 346 358 363 381 b 367 388 370 391 370 395 b 374 402 377 406 380 412 b 408 449 431 485 459 522 b 475 545 493 565 510 586 b 513 589 516 596 520 603 b 524 616 534 629 547 643 b 557 649 565 659 568 676 b 568 679 571 682 575 682 b 585 699 595 712 606 726 b 619 739 619 757 616 773 z m 516 760 b 520 757 520 757 520 757 b 520 757 516 757 516 757 b 516 757 516 757 516 757 b 516 757 516 757 516 760 z m 479 716 b 479 716 479 716 482 716 b 479 716 479 712 479 712 b 479 712 479 716 479 716 b 479 716 479 716 479 716 z m 482 692 b 475 692 472 696 472 702 b 472 706 472 709 472 709 b 482 709 482 702 482 692 b 482 692 482 692 482 692 z m 486 747 b 486 750 486 750 486 750 b 486 750 486 750 490 750 b 490 750 490 750 490 750 b 490 750 486 747 486 747 z m 503 716 b 500 712 496 712 493 712 b 496 716 496 722 500 722 b 506 726 513 726 520 726 b 516 716 506 719 503 716 z m 510 679 b 510 679 510 679 510 679 b 510 679 510 682 510 682 b 510 682 510 682 513 682 b 513 679 510 679 510 679 z m 527 702 b 524 699 520 699 520 699 b 516 692 513 692 513 699 b 513 702 513 706 513 709 b 520 709 527 712 527 702 z m 531 682 b 531 682 531 682 531 686 b 531 686 531 686 531 686 b 531 686 531 682 531 682 b 531 682 531 682 531 682 z m 520 726 b 516 732 510 732 503 732 b 500 729 500 732 500 732 b 500 732 500 736 500 736 b 506 739 513 739 520 739 b 524 742 527 736 527 732 b 531 732 531 729 531 726 b 527 726 524 726 520 726 z m 534 716 b 534 716 534 716 534 719 b 534 719 534 719 534 719 b 534 719 537 719 537 719 b 537 719 537 716 534 716 z"},"S":{"x_min":0,"x_max":512,"ha":512,"o":"m 363 858 b 349 855 336 848 319 848 b 312 848 306 848 299 845 b 276 838 256 828 239 811 b 232 804 222 797 212 795 b 202 788 195 785 189 778 b 182 775 175 768 168 761 b 168 758 165 754 162 754 b 146 741 132 724 115 707 b 109 697 102 690 95 680 b 92 674 88 664 82 658 b 82 658 82 654 78 651 b 65 631 51 610 45 583 b 41 580 38 577 38 570 b 29 560 25 547 22 534 b 22 514 19 493 19 470 b 15 450 22 429 25 410 b 35 376 55 349 82 329 b 95 319 105 312 112 303 b 119 297 126 290 132 286 b 149 280 165 270 182 263 b 195 256 212 246 226 232 b 229 226 239 222 246 216 b 249 212 249 209 253 205 b 253 199 256 192 256 182 b 259 182 259 179 259 179 b 256 166 249 156 239 146 b 216 129 189 115 162 112 b 156 112 149 112 142 112 b 132 109 126 109 115 105 b 109 105 102 105 92 109 b 92 109 88 109 88 109 b 78 109 65 105 55 105 b 51 109 45 109 38 105 b 35 105 29 105 25 109 b 25 112 22 112 19 112 b 12 112 8 112 2 112 b -5 115 -8 115 -15 115 b -18 115 -22 115 -25 119 b -29 122 -32 126 -39 126 b -62 136 -72 156 -86 176 b -86 179 -86 179 -86 179 b -86 189 -86 202 -86 212 b -83 222 -79 229 -76 239 b -76 239 -76 239 -76 243 b -69 246 -66 256 -62 263 b -66 266 -69 270 -76 266 b -79 266 -86 266 -88 266 b -98 266 -102 259 -109 256 b -119 246 -125 236 -132 222 b -136 216 -139 212 -142 205 b -146 199 -149 189 -146 179 b -146 173 -146 163 -149 156 b -149 153 -149 149 -149 149 b -149 139 -149 132 -146 126 b -146 126 -146 122 -146 122 b -139 115 -136 105 -132 95 b -125 85 -119 75 -105 68 b -102 65 -102 61 -98 58 b -98 58 -95 56 -95 52 b -72 39 -49 22 -25 12 b -22 12 -22 12 -18 12 b -8 12 -2 9 8 5 b 19 2 29 -2 38 -5 b 48 -5 55 -5 61 -2 b 65 -2 68 2 72 2 b 75 5 82 5 85 2 b 88 -2 92 -2 95 -2 b 102 -2 109 -2 115 -2 b 119 -2 122 -2 122 -2 b 126 -5 129 -5 136 -5 b 139 -5 142 -5 146 -5 b 165 2 185 5 205 12 b 222 19 239 22 256 29 b 263 32 269 35 273 39 b 289 52 299 65 309 78 b 316 88 319 95 326 102 b 333 112 329 119 333 126 b 333 139 336 153 336 166 b 336 169 336 169 339 173 b 339 176 339 179 339 179 b 339 185 336 192 336 199 b 329 226 316 249 295 263 b 285 270 280 276 269 283 b 263 290 256 297 249 306 b 249 309 246 309 243 312 b 229 322 216 333 202 346 b 195 356 189 370 185 380 b 182 390 175 400 172 410 b 168 420 165 429 162 440 b 162 440 165 443 165 446 b 165 446 165 450 165 450 b 165 453 165 453 165 453 b 165 466 165 480 168 493 b 175 517 182 541 185 560 b 189 570 192 577 199 583 b 199 583 199 587 202 587 b 202 594 205 600 205 604 b 209 610 212 617 216 621 b 222 627 229 634 232 644 b 236 654 246 664 253 674 b 266 684 276 697 285 711 b 302 738 326 758 353 775 b 366 781 376 785 390 788 b 393 792 400 792 403 792 b 403 792 406 792 406 792 b 409 795 412 792 412 792 b 426 785 436 771 443 761 b 439 758 439 754 439 751 b 439 734 439 717 436 704 b 433 697 436 690 433 684 b 429 671 426 658 419 644 b 412 634 406 621 403 607 b 403 607 403 604 403 604 b 390 594 387 577 380 563 b 376 563 376 560 376 560 b 363 541 349 524 336 504 b 333 497 326 493 316 490 b 312 490 309 487 302 483 b 302 483 302 483 302 480 b 302 473 302 466 302 460 b 302 456 306 453 306 453 b 319 443 333 436 346 427 b 346 424 349 424 349 424 b 360 424 370 424 380 424 b 400 424 412 433 426 446 b 436 456 450 470 460 483 b 473 500 487 517 493 541 b 500 553 507 567 514 580 b 520 597 527 610 533 627 b 540 648 540 668 543 687 b 543 697 543 711 543 721 b 543 724 543 727 543 727 b 533 741 527 758 520 775 b 514 788 507 797 497 807 b 470 831 439 848 403 855 b 397 855 390 855 383 858 b 376 858 370 858 363 858 z m 126 610 b 132 610 136 610 139 614 b 142 604 142 600 132 594 b 132 597 132 597 132 600 b 132 600 132 604 129 604 b 129 604 129 607 126 610 b 126 610 119 607 119 614 b 122 614 126 614 126 610 z m 82 477 b 82 477 78 477 78 477 b 78 480 78 483 78 487 b 78 490 82 490 85 490 b 88 490 88 490 92 487 b 92 483 95 483 99 480 b 99 487 99 493 99 497 l 99 497 b 95 500 92 500 88 500 b 85 497 82 500 78 504 b 82 504 85 504 88 504 b 92 504 95 504 95 510 b 95 514 99 514 99 510 b 109 507 115 504 122 497 b 115 493 109 493 102 490 b 102 490 102 487 102 487 b 102 483 102 480 99 480 b 95 480 95 477 92 477 b 92 473 88 473 85 473 b 85 473 82 477 82 477 z m 109 429 b 109 427 105 424 105 420 b 105 427 99 429 105 433 b 105 436 105 436 105 436 b 109 436 112 433 119 429 b 115 427 115 424 112 420 b 112 424 109 427 109 429 z m 136 658 b 142 654 146 651 152 644 b 152 644 152 644 152 644 b 152 644 149 644 149 644 b 146 644 142 644 136 644 b 136 648 136 648 136 651 b 136 651 136 654 136 658 z m 105 537 b 102 537 99 534 92 531 b 92 531 88 534 88 537 b 92 541 99 541 105 537 z m 189 684 b 185 690 185 694 178 694 b 178 694 178 694 178 694 b 182 697 185 701 189 701 b 189 694 192 690 189 684 z m 115 541 b 115 537 115 534 119 527 b 112 531 109 531 105 534 b 109 537 109 541 115 541 z m 61 453 b 65 456 65 456 68 456 b 68 460 72 460 72 460 b 72 456 75 456 75 453 b 75 453 72 450 72 446 b 68 450 65 450 61 453 z m 162 651 b 162 658 162 664 162 668 b 165 668 168 668 172 668 b 168 664 165 658 165 651 b 165 651 165 651 162 651 z m 85 446 b 88 446 95 446 102 446 b 95 440 92 440 85 446 z m 85 417 b 92 417 99 417 102 414 b 95 410 92 410 85 417 z m 115 524 b 112 520 112 517 109 514 b 105 514 105 517 102 517 b 105 524 105 524 115 524 z m 95 397 b 99 393 102 390 105 387 b 102 387 99 383 95 383 b 95 387 95 393 95 397 z m 112 470 b 112 477 112 477 109 480 b 112 480 115 477 115 477 b 119 477 119 480 122 480 b 122 480 122 480 126 477 b 119 473 115 473 112 470 z m 119 446 b 105 453 105 450 109 463 b 112 456 115 453 119 446 z m 95 463 b 95 470 95 470 102 473 b 102 470 102 466 102 466 b 102 466 99 463 95 463 z m 105 550 b 105 550 105 553 102 557 b 105 557 109 557 112 557 b 112 553 109 550 105 550 z m 156 607 b 152 604 149 604 146 604 b 149 607 149 610 152 614 b 152 610 156 607 156 607 z m 119 597 b 119 600 119 604 119 604 b 122 604 122 604 126 604 b 122 604 122 600 119 597 z m 75 514 b 78 510 78 507 78 504 b 72 507 75 510 75 514 z m 152 627 b 149 624 146 624 142 627 b 146 627 149 627 152 627 z m 82 453 b 82 456 82 456 82 460 b 85 460 88 456 85 456 b 85 453 85 453 85 453 b 82 453 82 453 82 453 z m 119 617 b 119 617 119 621 119 621 b 122 621 122 621 126 621 b 126 621 126 617 126 617 b 122 617 122 617 119 617 z m 156 658 b 149 658 152 661 152 664 b 156 664 156 661 156 658 z m 72 524 b 72 527 72 531 72 534 b 72 534 72 534 72 534 b 72 531 72 527 72 524 b 72 524 72 524 72 524 z m 122 580 b 126 580 129 580 129 580 b 129 580 129 580 129 577 b 129 577 126 577 126 577 b 126 577 122 580 122 580 z m 129 648 b 129 648 126 648 126 644 b 126 644 122 648 122 648 b 122 648 122 648 126 648 b 126 648 129 648 129 651 b 129 648 129 648 129 648 z m 139 573 b 139 573 136 573 136 573 b 136 577 136 577 136 580 b 136 580 136 580 136 580 b 139 577 139 577 139 573 z m 82 537 b 82 541 78 541 78 544 b 82 544 82 544 82 537 b 82 537 82 537 82 537 z m 205 690 b 205 690 202 694 205 697 b 205 694 205 690 205 690 b 205 690 205 690 205 690 z m 156 624 b 159 631 162 631 162 627 b 159 627 159 624 156 624 z m 85 527 b 85 524 85 520 88 517 b 82 517 82 520 85 527 z m 99 497 b 99 497 99 497 99 497 b 99 497 102 497 105 497 b 105 497 105 497 105 500 b 105 500 105 500 105 500 b 102 504 102 504 99 504 b 99 500 99 500 99 497 z m 82 477 b 82 477 82 477 82 477 b 85 480 88 480 92 483 b 88 483 85 483 82 483 b 82 480 82 480 82 477 z"},"}":{"x_min":0,"x_max":507,"ha":507,"o":"m 446 829 b 446 829 446 833 446 833 b 436 843 426 853 416 863 b 409 869 403 873 396 876 b 393 876 386 876 383 876 b 376 869 363 866 363 859 b 366 839 369 826 369 813 b 369 813 369 809 369 809 b 363 799 363 789 356 779 b 353 773 353 766 349 759 b 346 752 332 719 329 712 b 326 702 316 696 316 686 b 316 669 306 662 302 649 b 299 646 296 639 292 636 b 272 599 256 559 239 522 b 236 512 232 502 232 495 b 232 482 236 469 239 455 b 242 445 249 432 246 419 b 246 419 246 419 246 419 b 242 415 242 412 242 409 b 232 392 232 392 212 385 b 202 379 192 375 182 369 b 176 362 169 355 162 352 b 162 349 162 345 162 342 b 152 329 146 312 139 299 b 132 289 126 275 122 262 b 112 245 109 225 102 208 b 99 192 92 175 85 162 b 82 155 75 145 72 138 b 72 132 69 125 62 118 b 59 112 55 102 55 95 b 55 88 52 82 52 78 b 45 75 45 68 42 62 b 32 45 22 31 15 15 b 15 11 12 11 12 8 b 2 -2 -8 -5 -18 -9 b -18 -19 -18 -25 -18 -35 b -11 -39 -5 -42 2 -42 b 12 -42 19 -45 25 -52 b 35 -49 45 -42 52 -39 b 59 -35 65 -32 69 -25 b 75 -19 82 -12 89 -5 b 95 5 99 11 106 18 b 112 31 122 45 129 58 b 132 65 136 68 139 75 b 149 95 156 112 166 128 b 169 138 172 148 186 152 b 189 165 192 175 196 188 b 199 202 209 215 212 228 b 222 248 236 265 239 285 b 249 312 266 332 286 349 b 299 355 309 362 319 375 b 312 392 306 412 299 429 b 309 445 319 462 316 482 b 319 492 329 502 332 512 b 336 529 343 546 353 559 b 359 572 363 586 369 599 b 373 606 379 609 383 619 b 389 632 393 646 399 659 b 403 672 409 686 419 692 b 419 696 419 699 419 699 b 429 722 439 746 446 773 b 453 789 456 809 446 829 z"},"Z":{"x_min":0,"x_max":667,"ha":667,"o":"m 644 862 b 620 862 594 862 570 862 b 560 862 550 859 543 855 b 533 852 523 855 516 855 b 513 855 513 855 513 855 b 499 852 486 849 472 845 b 462 842 452 842 445 842 b 428 842 415 838 398 832 b 388 828 378 825 368 822 b 348 818 327 811 304 808 b 300 805 297 805 294 808 b 294 811 294 811 294 811 b 290 805 284 805 277 805 b 267 805 257 805 250 801 b 247 801 247 801 243 801 b 233 805 223 805 213 805 b 209 805 206 805 203 805 b 199 805 196 805 193 801 b 193 801 189 801 186 801 b 183 801 183 801 183 805 b 176 805 172 808 169 801 b 159 808 149 811 135 811 b 132 808 132 808 129 808 b 122 801 118 795 112 791 b 112 785 115 781 115 774 b 115 771 118 764 122 761 b 125 754 129 751 132 744 b 132 741 135 737 135 734 b 139 727 145 724 149 717 b 156 714 162 707 172 704 b 172 704 176 700 179 700 b 203 700 230 700 257 700 b 257 700 260 700 260 704 b 270 710 280 714 290 710 b 294 710 294 710 294 710 b 311 714 327 717 341 721 b 348 724 354 727 364 727 b 368 727 375 727 381 727 b 385 731 388 731 391 731 b 398 734 405 737 412 737 b 425 741 442 744 455 744 b 462 744 469 744 476 744 b 479 744 479 744 482 747 b 496 751 509 754 523 758 b 536 758 546 758 560 758 b 563 758 567 754 573 751 b 577 747 580 744 583 741 b 583 741 583 737 583 737 b 580 731 577 724 570 717 b 560 707 553 697 543 690 b 536 683 526 677 519 670 b 509 663 499 656 492 646 b 486 636 479 630 472 623 b 469 619 465 616 462 613 b 442 586 415 562 391 539 b 385 532 378 525 371 522 b 364 515 361 508 354 502 b 344 491 334 481 324 471 b 317 464 311 458 304 448 b 304 444 300 441 297 441 b 284 431 273 421 263 411 b 253 400 243 390 233 377 b 230 377 230 377 230 377 b 226 367 220 360 209 357 b 203 350 199 347 193 343 b 189 340 186 336 186 333 b 176 313 162 299 145 286 b 135 279 129 269 122 262 b 122 259 118 259 118 256 b 105 249 95 239 88 229 b 78 215 68 202 61 192 b 54 181 48 178 41 175 b 38 175 38 171 38 171 b 28 161 17 151 7 141 b 4 134 -3 128 -6 121 b -13 111 -16 104 -23 94 b -23 84 -23 70 -23 60 b -20 57 -16 53 -13 47 b -13 43 -13 37 -10 30 b -10 27 -10 27 -6 23 b 4 13 17 0 28 -11 b 31 -14 34 -17 38 -17 b 41 -17 44 -21 48 -21 b 61 -17 75 -14 88 -11 b 92 -7 95 -7 95 -7 b 105 -7 112 -7 122 -4 b 129 0 135 0 145 0 b 169 3 193 3 220 6 b 220 6 223 6 223 6 b 230 10 240 13 247 13 b 260 13 270 13 284 13 b 290 13 294 13 297 16 b 304 20 311 20 314 16 b 324 13 334 13 344 13 b 351 13 361 16 371 10 b 371 10 375 10 375 10 b 388 6 401 3 415 3 b 435 3 449 -4 459 -17 b 462 -21 465 -24 469 -27 b 472 -31 472 -31 476 -31 b 486 -34 492 -34 503 -37 b 506 -37 506 -37 509 -34 b 516 -24 526 -11 533 0 b 533 0 536 3 536 6 b 536 16 543 30 540 43 b 540 43 540 43 540 43 b 543 47 543 53 543 57 b 540 64 540 67 540 74 b 529 91 516 104 496 107 b 492 111 486 114 482 114 b 476 117 472 117 465 117 b 459 117 449 117 442 121 b 428 121 415 121 401 124 b 395 124 391 124 388 128 b 381 128 378 128 371 128 b 368 124 364 124 361 124 b 358 121 354 121 351 121 b 344 121 341 117 337 117 b 324 117 314 117 304 117 b 284 114 263 114 243 114 b 236 114 233 114 230 114 b 226 111 223 111 223 111 b 216 111 213 111 209 111 b 206 111 203 114 203 117 b 199 121 199 128 203 134 b 209 141 216 151 223 161 b 230 175 240 185 250 198 b 270 219 290 242 307 266 b 307 269 311 272 311 276 b 327 296 344 313 361 330 b 368 336 375 343 378 353 b 378 357 381 357 381 357 b 388 363 395 370 401 380 b 408 384 412 390 415 397 b 418 397 422 400 425 404 b 432 411 439 417 445 427 b 449 438 459 444 469 451 b 472 451 476 458 479 461 b 482 468 486 471 489 478 b 492 481 499 488 503 491 b 519 508 536 525 550 545 b 550 549 553 549 556 552 b 580 579 607 606 634 633 b 634 636 637 636 637 640 b 641 646 647 653 654 660 b 671 677 688 697 705 714 b 718 731 725 754 732 774 b 735 781 735 788 732 795 b 732 805 728 811 722 822 b 715 825 711 832 708 838 b 705 842 705 845 701 849 b 695 852 691 855 684 855 b 681 852 678 855 678 855 b 668 859 654 859 644 862 z m 88 57 b 85 57 81 57 78 57 b 78 53 75 53 71 50 b 71 53 71 53 71 57 b 75 57 78 57 78 57 b 78 57 78 60 78 60 b 81 60 85 60 88 60 b 88 60 88 57 88 57 b 88 57 88 57 88 57 b 88 57 88 57 92 57 b 92 57 92 53 92 53 b 92 50 92 50 88 50 b 88 50 88 50 88 50 b 88 53 88 57 88 57 z m 58 87 b 58 84 58 84 58 84 b 58 80 58 77 54 77 b 51 74 51 74 48 77 b 48 80 48 84 44 91 b 44 91 41 91 38 91 b 38 94 38 94 38 97 b 41 97 44 94 48 91 b 48 91 48 91 44 91 b 48 91 51 91 54 91 b 58 91 58 91 58 87 z m 627 758 b 627 754 624 754 620 754 b 617 754 617 754 614 754 b 617 758 620 761 624 764 b 624 764 620 768 620 771 b 617 768 614 771 610 774 b 617 771 620 771 627 771 b 627 768 627 761 627 758 b 631 758 631 758 631 758 b 634 758 634 758 637 761 b 637 761 637 761 641 761 b 641 758 641 754 641 751 b 641 751 641 751 637 751 b 634 747 634 751 631 754 b 631 754 631 754 627 758 z m 156 144 b 156 148 156 155 159 158 b 159 161 162 165 166 161 b 166 161 169 161 169 161 b 166 158 162 155 156 151 b 159 151 162 148 162 148 b 162 144 159 144 156 144 b 156 134 156 134 149 134 b 145 134 145 134 142 134 b 142 131 142 131 142 131 b 149 131 152 131 159 131 b 159 128 156 124 156 121 b 159 121 159 121 159 117 b 159 114 159 111 159 107 b 159 101 159 94 166 91 b 162 91 159 91 159 91 b 156 94 152 94 152 97 b 149 97 149 101 149 101 b 149 104 149 107 152 111 b 152 111 152 114 152 114 b 156 114 156 117 156 121 b 149 124 152 117 152 114 b 149 117 145 117 145 121 b 142 121 142 117 142 114 b 142 114 139 117 135 117 b 139 114 139 114 139 111 b 139 107 135 107 132 104 b 142 104 145 97 142 91 b 142 91 142 87 142 87 b 142 87 139 87 139 87 b 139 91 139 94 139 94 b 139 97 139 97 139 97 b 135 97 135 97 135 94 b 135 94 135 91 135 87 b 139 87 139 84 142 84 b 142 84 142 80 145 80 b 149 84 149 80 152 77 b 156 74 156 74 149 67 b 149 67 145 64 142 60 b 145 67 142 74 145 77 b 142 70 135 77 132 77 b 132 74 132 70 132 67 b 129 70 125 74 122 77 b 122 74 118 74 118 70 b 118 67 118 64 112 67 b 112 67 112 67 112 64 b 108 60 105 60 102 64 b 102 67 102 70 102 74 b 105 70 108 67 112 67 b 112 67 112 67 112 67 b 112 70 108 77 108 80 b 115 80 122 80 129 84 b 125 84 122 84 122 87 b 118 87 118 87 115 87 b 112 87 108 84 105 91 b 105 91 105 91 105 91 b 105 87 105 84 108 84 b 108 84 108 84 108 84 b 102 84 98 84 95 84 b 95 84 95 80 95 77 b 102 77 102 77 102 74 b 102 74 98 74 95 74 b 95 74 95 77 95 77 b 92 74 88 74 85 77 b 81 70 81 67 78 64 b 75 64 75 64 71 67 b 71 60 65 60 65 64 b 61 64 61 67 58 70 b 58 70 58 70 58 74 b 61 74 65 74 65 77 b 65 77 65 74 65 74 b 65 70 68 70 71 67 b 71 70 71 77 71 80 b 68 84 65 80 61 87 b 65 87 68 87 71 87 b 68 87 68 91 68 94 b 71 94 75 94 78 91 b 78 91 78 91 78 91 b 78 94 75 94 75 94 b 75 97 71 97 68 97 b 68 101 65 104 68 107 b 68 111 68 111 71 114 b 68 114 65 114 58 114 b 61 121 68 121 71 121 b 78 121 81 124 85 128 b 88 131 92 138 92 144 b 92 144 92 144 92 148 b 95 144 98 144 102 141 b 105 141 105 141 108 141 b 112 141 112 144 115 144 b 112 148 112 151 112 155 b 112 155 115 151 115 151 b 122 148 122 148 122 155 b 125 151 129 151 129 148 b 132 144 135 141 139 148 b 142 144 145 141 149 134 b 149 141 149 144 149 148 b 152 144 152 144 156 144 z m 634 798 b 637 795 637 791 637 788 b 637 788 637 788 641 788 b 641 788 637 785 637 785 b 641 781 644 778 647 774 b 651 774 654 774 654 778 b 658 774 658 771 658 771 b 654 771 651 768 647 774 b 647 768 641 771 637 768 b 637 768 637 764 637 761 b 631 764 634 768 634 771 b 634 774 637 774 641 774 b 637 778 634 778 631 778 b 631 785 634 791 634 798 b 634 798 634 798 634 798 z m 166 80 b 169 80 172 80 176 84 b 176 77 176 70 176 67 b 172 67 172 67 169 67 b 169 67 169 70 169 74 b 166 74 166 74 166 74 b 166 77 166 77 166 80 z m 223 272 b 220 272 216 272 213 272 b 220 276 220 283 220 289 b 223 286 223 286 226 286 b 230 286 230 289 233 293 b 233 289 233 289 233 289 b 236 286 236 283 233 283 b 230 279 230 279 230 279 b 223 279 223 276 223 272 z m 166 208 b 166 208 169 208 172 208 b 169 202 169 198 166 195 b 166 195 166 195 166 195 b 166 198 162 202 162 205 b 159 208 152 212 145 215 b 149 215 149 219 149 219 b 152 215 159 215 162 212 b 162 212 162 208 166 208 z m 166 165 b 169 168 169 171 172 175 b 169 175 169 175 169 178 b 169 181 172 185 176 188 b 176 185 176 185 176 185 b 179 181 179 178 179 171 b 176 168 172 168 166 165 b 166 165 166 165 166 165 z m 199 249 b 196 249 193 249 189 249 b 196 252 199 259 203 262 b 206 259 213 259 216 259 b 216 256 213 256 209 256 b 206 256 203 256 199 256 b 199 252 199 252 199 249 z m 654 758 b 661 754 661 751 658 747 b 658 744 658 737 654 734 b 651 741 651 747 647 751 b 647 751 647 751 651 751 b 651 751 654 754 654 758 z m 189 252 b 186 245 183 242 179 242 b 176 245 176 245 176 245 b 172 245 172 242 169 245 b 169 245 169 249 169 252 b 172 252 176 252 176 249 b 179 249 183 252 189 252 z m 118 175 b 122 171 122 171 122 168 b 115 165 115 171 108 175 b 112 175 118 171 118 178 b 122 178 122 178 122 178 b 122 175 122 175 118 175 z m 179 222 b 183 222 183 222 193 219 b 193 219 193 219 193 219 b 189 215 179 215 176 215 b 176 219 176 222 179 222 z m 203 266 b 203 266 203 269 203 272 b 213 272 213 272 216 266 b 213 266 209 266 203 266 z m 115 53 b 115 57 115 60 115 60 b 118 60 118 60 118 60 b 122 60 125 60 125 60 b 125 53 122 53 115 53 z m 122 50 b 115 47 115 40 108 40 b 105 47 112 50 122 50 z m 270 296 b 267 293 263 289 263 283 b 260 289 260 293 257 296 b 260 296 263 296 270 296 z m 118 181 b 125 188 129 188 135 178 b 129 181 125 181 118 181 z m 179 91 b 176 91 172 87 169 87 b 169 91 169 94 169 97 b 172 97 176 94 179 91 z m 189 239 b 193 235 193 229 193 225 b 193 225 193 225 193 225 b 189 229 186 232 186 239 b 186 239 189 239 189 239 z m 135 178 b 139 178 142 178 149 178 b 145 175 145 171 142 171 b 139 171 139 171 135 178 z m 614 764 b 614 764 614 764 614 764 b 610 761 604 758 600 754 b 604 764 604 768 614 764 z m 125 202 b 125 202 129 198 129 195 b 125 195 122 192 122 192 b 118 192 118 192 118 192 b 122 195 122 198 125 202 z m 617 737 b 617 744 617 744 624 744 b 624 744 624 741 624 737 b 620 737 620 737 617 737 z m 159 175 b 159 171 159 168 159 165 b 156 168 152 171 152 175 b 156 175 156 175 159 175 z m 75 148 b 75 144 75 141 75 138 b 71 141 65 144 61 144 b 61 144 61 144 61 144 b 65 148 68 148 75 148 z m 112 161 b 108 158 105 158 102 158 b 102 158 98 158 98 161 b 102 161 105 161 112 161 b 112 161 112 161 112 161 z m 129 168 b 129 168 132 168 135 168 b 135 161 132 161 129 158 b 129 161 129 165 129 168 z m 651 801 b 651 798 651 798 654 795 b 651 795 647 791 644 795 b 644 798 647 798 651 801 b 651 801 651 801 651 801 z m 297 343 b 294 343 294 340 290 340 b 290 343 287 347 290 347 b 294 350 294 343 297 343 b 297 343 297 343 297 343 z m 54 53 b 54 57 54 60 54 60 b 58 60 58 60 61 60 b 61 60 61 60 61 60 b 61 57 58 57 58 53 b 54 53 54 53 54 53 z m 169 107 b 169 111 169 111 169 114 b 169 114 172 114 176 114 b 176 114 176 114 176 114 b 172 111 172 107 169 107 b 169 107 169 107 169 107 z m 149 158 b 142 155 139 155 135 161 b 142 161 145 158 149 158 z m 51 74 b 51 70 51 67 51 67 b 48 67 48 67 44 67 b 44 70 48 70 51 74 z m 159 192 b 159 195 156 198 156 202 b 156 202 156 202 156 202 b 159 202 159 202 159 202 b 159 198 159 195 159 192 b 159 192 159 192 159 192 z m 610 778 b 607 785 607 785 610 785 b 614 781 614 778 610 778 z m 658 785 b 651 788 654 791 654 795 b 658 791 658 791 658 785 z m 203 232 b 203 229 203 229 203 225 b 199 229 199 229 196 232 b 199 232 203 232 203 232 z m 297 367 b 294 367 290 367 290 367 b 294 370 297 370 297 367 z m 172 124 b 172 124 176 124 179 128 b 179 128 179 124 179 124 b 179 124 179 124 179 124 b 176 124 176 124 172 124 b 172 124 172 124 172 124 z m 247 303 b 247 303 247 303 247 303 b 247 303 250 303 253 303 b 253 303 253 303 250 303 b 250 303 247 303 247 299 b 247 303 247 303 247 303 z m 203 208 b 199 208 199 208 196 208 b 203 212 203 212 203 208 z m 634 741 b 637 741 637 737 637 734 b 634 734 634 734 634 741 z m 169 53 b 172 57 176 57 176 53 b 172 53 169 53 169 53 z m 176 198 b 176 205 176 208 176 212 b 179 212 179 212 179 212 b 179 208 179 205 179 198 b 179 198 179 198 176 198 z m 149 148 b 145 148 142 148 139 148 b 142 148 142 148 145 151 b 145 148 145 148 149 148 z m 139 205 b 142 205 142 205 142 205 b 142 205 142 202 142 202 b 142 198 142 198 142 198 b 142 202 139 205 139 205 z m 610 805 b 610 801 610 801 610 798 b 610 798 610 798 610 798 b 610 801 610 801 607 805 b 610 805 610 805 610 805 z m 230 269 b 230 272 230 272 230 276 b 230 276 230 276 230 276 b 230 272 233 272 233 269 b 233 269 230 269 230 269 z m 58 87 b 58 84 54 84 51 84 b 51 84 54 87 54 91 b 58 91 58 91 58 87 z m 92 101 b 92 101 92 97 92 97 b 92 97 92 94 88 94 b 88 94 88 97 88 97 b 88 97 88 101 88 101 b 85 101 81 101 81 101 b 78 104 78 104 75 104 b 78 101 81 94 85 91 b 88 91 95 91 98 91 b 95 94 95 97 92 101 z m 125 148 b 122 144 122 141 118 138 b 115 134 115 134 118 131 b 125 134 125 134 125 144 b 125 144 125 144 125 148 z m 135 138 b 132 134 129 134 129 134 b 129 128 129 124 135 124 b 135 128 135 131 135 138 z m 95 128 b 98 121 98 117 102 114 b 102 114 102 114 102 114 b 102 117 102 121 102 128 b 98 128 98 128 95 128 z m 132 101 b 129 104 122 101 118 101 b 122 94 122 94 132 101 z m 78 111 b 78 111 78 111 81 111 b 81 114 85 114 88 117 b 88 117 88 117 88 117 b 85 117 81 117 81 117 b 78 117 78 114 78 111 z m 92 131 b 95 131 98 131 102 131 b 98 134 95 134 92 131 z m 98 104 b 98 97 102 97 105 101 b 105 101 102 101 98 104 z"},"x":{"x_min":0,"x_max":545,"ha":545,"o":"m 409 500 b 398 500 389 500 378 500 b 368 482 357 467 344 454 b 331 440 318 425 305 411 b 298 405 292 403 285 396 b 273 385 256 379 243 365 b 243 365 240 365 236 365 b 234 372 229 376 227 379 b 223 379 223 379 223 383 b 221 398 214 411 210 429 b 203 440 201 449 190 461 b 184 467 177 474 169 482 b 158 489 150 496 132 496 b 130 496 123 496 115 496 b 113 496 113 493 108 493 b 106 489 102 482 99 480 b 93 476 88 474 82 474 b 75 467 68 463 66 456 b 44 422 22 392 2 363 b -2 363 -2 359 -2 355 b -2 345 -2 334 -2 321 b -2 319 -2 319 2 319 b 2 319 4 314 4 314 b 11 312 11 312 15 319 b 22 325 28 334 28 345 b 31 347 31 347 35 352 b 48 365 59 379 68 396 b 72 403 80 405 86 405 b 95 405 95 405 99 398 b 102 385 106 376 108 365 b 108 355 113 340 113 332 b 115 312 119 292 130 275 b 130 270 130 268 130 264 b 126 257 123 251 119 243 b 115 241 115 241 115 241 b 99 230 88 217 80 206 b 72 199 66 193 59 186 b 55 184 55 180 52 180 b 31 167 22 146 4 133 b -4 120 -15 106 -18 93 b -22 89 -22 87 -22 82 b -22 82 -22 82 -22 82 b -22 76 -18 74 -15 65 b -9 52 -4 42 2 29 b 9 18 17 9 28 -2 b 35 9 37 16 44 22 b 48 38 55 52 61 69 b 66 74 68 80 75 82 b 82 93 88 100 93 109 b 106 126 119 135 132 153 b 132 153 137 153 137 153 b 145 164 150 167 163 164 b 163 151 169 135 179 126 b 179 122 184 120 186 113 b 190 109 190 102 192 95 b 203 87 210 74 221 63 b 227 50 236 38 249 31 b 262 22 281 11 294 3 b 298 3 298 3 301 3 b 307 3 314 3 320 3 b 325 3 331 -2 333 -4 b 333 -4 333 -4 333 -4 b 338 -2 344 -2 349 3 b 355 5 364 5 371 9 b 385 18 402 29 415 42 b 433 52 442 69 455 82 b 466 93 472 100 480 109 b 491 120 497 133 510 139 b 510 144 513 144 517 146 b 519 153 526 164 530 171 b 532 173 532 180 539 180 b 543 180 543 184 545 186 b 550 193 552 204 561 206 b 574 228 598 262 611 281 b 616 288 622 297 629 303 b 629 303 629 305 631 310 b 631 312 635 316 635 323 b 635 323 635 323 635 325 b 631 330 629 336 629 343 b 625 343 625 343 625 343 b 611 345 605 343 598 332 b 598 332 598 330 598 330 b 589 319 582 305 575 292 b 558 268 532 234 517 215 b 506 199 500 191 491 180 b 474 167 461 153 453 135 b 453 133 446 126 442 122 b 428 106 415 93 398 76 b 389 65 376 56 357 56 b 349 52 342 56 331 63 b 318 76 305 89 298 106 b 292 126 281 144 279 164 b 271 180 271 199 267 217 b 262 228 260 237 256 243 b 256 251 256 257 256 262 b 260 268 262 275 267 277 b 273 288 285 294 294 305 b 307 319 320 332 338 340 b 349 352 362 359 371 370 b 389 385 404 403 422 418 b 422 422 426 422 426 425 b 428 436 433 449 435 461 b 439 463 435 467 435 467 b 428 476 420 487 413 496 b 413 496 413 496 409 500 z m 190 243 b 190 243 186 241 184 241 b 184 237 179 234 177 237 b 172 237 172 241 169 241 b 169 237 169 237 163 237 b 163 241 169 241 169 241 b 169 243 169 243 169 247 b 172 247 177 247 179 247 b 172 257 179 262 179 270 b 184 268 184 268 186 264 b 186 264 184 264 184 262 b 184 262 186 257 186 257 b 186 262 186 262 186 264 b 190 268 192 268 201 268 b 201 270 197 277 203 277 b 203 277 203 281 208 286 b 203 286 203 286 203 288 b 208 288 210 288 210 288 b 214 286 214 281 214 281 b 214 277 214 275 210 275 b 210 275 208 275 208 275 b 208 275 203 277 203 277 b 203 275 203 270 203 270 b 203 270 201 270 201 268 b 201 268 201 264 203 262 b 201 262 197 262 192 257 b 190 257 186 255 184 251 b 184 251 184 251 184 247 b 186 247 186 247 190 247 b 190 247 190 247 190 243 b 197 243 197 241 192 237 b 190 237 190 241 190 243 z m 184 286 b 179 286 179 288 179 292 b 179 294 179 294 184 294 l 184 294 b 184 299 184 301 184 305 l 184 305 b 179 305 179 305 177 308 b 172 308 172 312 169 314 b 177 314 179 314 186 314 b 186 314 190 314 190 314 b 192 314 192 319 197 319 b 192 319 192 321 192 321 b 192 325 192 325 192 327 b 192 327 197 327 201 327 b 201 325 201 321 201 319 b 201 319 201 319 201 319 b 208 319 208 319 208 325 b 203 327 203 332 203 334 b 203 334 203 334 203 338 b 203 338 208 338 208 338 b 208 334 208 334 208 332 b 208 332 210 332 210 332 b 210 327 208 325 208 321 b 208 321 208 321 208 321 b 210 321 216 325 221 325 b 221 321 216 321 216 319 b 216 319 216 319 216 319 b 216 319 221 319 221 321 b 221 319 223 319 223 319 b 221 314 221 312 216 308 b 221 308 223 312 227 305 b 223 305 223 305 221 305 b 221 301 221 299 221 292 b 216 294 214 294 214 294 b 214 299 214 299 214 301 b 214 305 214 305 216 308 b 214 312 210 312 210 312 b 208 308 203 305 201 301 b 197 301 192 301 186 301 b 190 299 190 294 190 294 b 190 292 190 292 190 288 b 190 286 190 286 186 281 b 186 277 186 277 186 277 b 184 277 184 277 184 281 b 184 281 184 286 184 286 z m 186 197 b 186 191 184 191 179 193 b 179 197 172 197 169 204 b 177 204 184 204 190 204 b 190 206 186 210 184 210 b 190 215 184 223 190 228 b 192 221 197 217 197 210 b 201 206 197 204 190 204 b 190 204 192 204 192 199 b 192 204 192 204 197 204 b 197 199 201 199 201 197 b 197 197 192 197 186 197 z m 190 247 b 192 251 192 251 197 251 b 197 251 197 251 201 247 b 201 251 201 251 203 251 b 203 255 203 255 208 257 b 208 255 210 255 214 251 b 214 243 210 237 210 230 b 210 234 208 237 203 241 b 201 243 201 251 190 247 z m 177 221 b 165 223 165 223 165 230 b 169 230 172 230 172 234 b 172 230 172 230 177 230 b 177 228 177 223 177 221 z m 165 281 b 165 277 169 270 163 270 b 163 277 163 277 165 281 z m 203 204 b 203 206 203 210 203 210 b 208 210 208 215 210 215 b 210 210 210 210 210 210 b 210 210 208 206 203 204 z m 179 186 b 184 186 184 186 186 186 b 186 186 186 186 186 186 b 186 184 184 184 179 184 b 179 184 179 186 179 186 z m 186 325 b 184 325 184 325 179 325 b 179 327 179 327 179 327 b 179 327 184 327 186 332 b 186 327 186 327 186 325 z m 179 223 b 179 228 179 230 179 234 b 179 234 179 234 184 234 b 184 230 184 228 184 223 b 179 223 179 223 179 223 z m 197 334 b 197 334 197 338 197 340 b 197 340 197 340 197 340 b 197 338 197 334 197 334 b 197 334 197 334 197 334 z m 163 234 b 158 234 158 234 156 234 b 156 234 156 234 156 234 b 156 234 156 234 156 234 b 158 237 158 237 163 237 b 163 237 163 237 163 234 z m 214 268 b 214 268 216 268 216 268 b 216 268 216 268 216 268 b 216 264 214 264 214 264 b 214 268 214 268 214 268 z m 210 193 b 214 193 216 193 214 186 b 214 191 214 193 210 193 z m 190 288 b 186 288 186 288 184 286 l 184 286 b 184 288 184 292 184 294 l 184 294 b 186 294 190 294 190 294 b 190 292 190 292 190 288 z m 184 305 b 184 305 184 305 184 305 b 186 305 186 305 190 305 b 190 305 190 308 190 308 b 190 312 184 308 184 305 z m 192 308 b 197 305 197 305 203 308 b 201 308 197 308 192 308 z m 184 247 b 184 247 184 243 184 241 b 177 241 179 243 179 247 b 179 247 184 247 184 247 z m 186 197 b 186 197 186 197 186 197 b 186 197 186 199 184 199 b 184 199 179 197 179 197 b 179 197 179 197 179 197 b 184 197 186 197 186 197 z"},")":{"x_min":0,"x_max":390,"ha":390,"o":"m 454 722 b 454 726 454 732 451 736 b 444 762 437 789 431 813 b 424 839 404 856 380 870 b 377 873 370 876 363 876 b 356 876 346 876 340 870 b 333 863 340 856 343 846 b 346 843 346 843 350 839 b 363 809 363 772 367 739 b 367 729 367 719 363 709 b 363 705 363 702 363 699 b 356 685 356 672 360 659 b 363 652 363 642 360 635 b 353 595 346 555 329 518 b 329 514 326 511 326 508 b 323 491 323 478 316 461 b 306 434 292 407 282 380 b 272 364 259 347 252 330 b 238 300 221 277 201 253 b 201 250 198 243 194 240 b 181 223 171 203 157 189 b 117 149 76 109 39 72 b 36 69 32 65 32 65 b -5 52 -32 25 -72 18 b -82 18 -89 8 -89 -2 b -86 -15 -82 -28 -72 -38 b -52 -59 -25 -72 2 -69 b 32 -69 63 -62 83 -38 b 86 -35 90 -32 93 -28 b 144 2 181 45 218 89 b 232 109 248 126 262 146 b 265 149 272 156 275 163 b 279 169 282 179 289 186 b 296 199 306 209 313 223 b 323 246 336 270 350 293 b 367 320 380 350 387 380 b 387 390 390 400 397 407 b 404 414 407 424 407 434 b 410 441 410 444 414 451 b 434 501 444 551 454 605 b 454 625 454 648 454 669 b 454 685 448 705 454 722 z m 127 82 b 127 82 127 82 127 85 b 127 85 127 85 127 85 b 124 89 117 92 120 99 b 124 102 127 109 137 106 b 140 109 144 112 147 106 b 151 106 154 102 157 99 b 157 102 157 102 161 106 b 161 102 164 102 164 99 b 167 99 167 99 167 99 b 171 99 171 96 174 96 b 171 96 171 96 167 96 b 167 96 164 96 164 99 b 161 99 161 99 157 99 b 157 92 157 89 151 92 b 144 96 140 102 137 106 b 137 102 140 99 140 92 b 144 85 140 82 130 82 b 130 82 127 82 127 82 z m 83 42 b 83 42 80 42 80 42 b 80 42 76 45 76 45 b 80 45 80 45 83 45 b 83 45 86 45 86 45 b 86 49 86 55 86 59 b 86 62 86 69 86 72 b 93 72 97 69 103 69 b 103 69 103 65 103 62 b 103 55 103 55 110 59 b 113 62 117 59 113 55 b 113 52 113 49 117 49 b 117 42 117 42 110 42 l 110 42 b 107 42 103 45 100 42 b 97 39 90 42 86 45 b 86 45 83 42 83 42 z m 245 203 b 245 203 245 199 248 199 b 245 199 245 203 245 203 z m 286 280 b 289 280 289 283 292 283 b 292 283 292 283 292 280 b 292 280 289 280 286 280 z m 205 179 b 208 179 215 179 218 176 b 221 176 225 173 225 169 b 225 166 221 163 218 163 b 211 163 205 173 205 179 z m 29 15 b 32 18 36 18 36 22 b 39 25 46 29 49 29 b 49 29 49 29 49 29 b 49 22 49 18 49 12 b 46 8 43 2 39 2 b 32 2 29 8 29 15 b 29 18 26 18 26 22 b 26 22 29 22 29 22 b 29 18 29 18 29 15 z m 83 25 b 80 22 76 18 73 15 b 70 12 66 12 63 12 b 63 15 63 18 66 22 b 70 25 70 29 63 25 b 59 25 59 29 56 32 b 59 32 59 35 63 35 b 73 42 76 32 83 25 b 86 25 86 22 90 18 b 90 18 86 18 86 15 b 83 18 83 22 83 25 z m 140 59 b 140 59 140 52 137 52 b 130 52 120 62 120 65 b 120 69 124 72 127 72 b 134 72 140 65 140 59 z m 19 8 b 16 12 16 15 16 15 b 16 15 16 18 19 18 b 19 18 22 18 22 15 b 22 15 19 12 19 8 z m 194 142 b 194 139 191 139 191 139 b 191 139 188 142 188 142 b 188 142 191 146 191 146 b 191 146 194 142 194 142 z m 97 29 b 97 29 97 32 97 32 b 97 35 97 35 100 35 b 100 35 103 35 103 35 b 100 32 100 29 97 29 z m 178 122 b 174 122 174 122 174 119 b 171 122 171 122 171 122 b 171 126 171 126 174 126 b 174 126 174 126 178 122 z m 215 209 b 215 209 218 209 218 206 b 218 206 215 206 215 206 b 215 206 211 206 211 206 b 211 209 215 209 215 209 z m 151 72 b 154 72 154 72 154 72 b 154 69 154 69 154 69 b 154 69 151 69 151 69 b 151 69 151 72 151 72 z m 29 32 b 29 32 26 32 26 32 b 26 32 26 35 26 35 b 26 35 26 35 26 35 b 29 35 29 35 29 32 z m 12 32 b 12 32 12 29 12 29 b 12 29 9 29 9 29 b 9 29 9 29 9 29 b 9 32 9 32 12 32 z m 248 216 b 248 216 248 216 248 216 b 248 220 248 220 248 220 b 252 220 252 220 252 216 b 252 216 252 216 248 216 z m 309 307 b 306 307 306 303 306 303 b 306 307 306 307 306 307 b 306 307 306 307 306 307 b 306 307 306 307 309 307 z m 238 213 b 238 213 238 213 238 213 b 238 213 235 213 235 213 b 238 213 238 216 238 216 b 238 216 238 213 238 213 z m 76 59 b 76 59 73 59 73 59 b 73 59 73 62 73 62 b 73 62 73 62 76 62 b 76 62 76 59 76 59 z m 228 199 b 228 196 228 196 225 196 b 225 196 225 196 225 196 b 225 196 225 199 225 199 b 225 199 225 199 228 199 z m 5 -8 b 5 -8 9 -8 9 -8 b 5 -12 5 -12 5 -12 b 5 -12 2 -8 2 -8 b 5 -8 5 -8 5 -8 z m 29 -5 b 29 -5 29 -5 26 -5 b 26 -5 26 -5 26 -2 b 26 -2 29 -2 29 -2 b 29 -2 29 -5 29 -5 z m 110 25 b 110 25 110 25 110 25 b 110 25 110 29 110 29 b 110 29 110 29 110 29 b 110 29 110 25 110 25 z m 16 -15 b 16 -15 16 -15 16 -15 b 16 -15 16 -15 16 -12 b 16 -15 16 -15 16 -15 z m 70 2 b 66 2 66 2 66 2 b 66 2 66 2 66 2 b 66 5 66 5 66 5 b 66 5 70 5 70 2 z m 46 -5 l 46 -5 l 46 -2 z m 262 236 b 262 233 262 233 262 233 b 262 233 262 233 262 233 b 262 233 262 236 262 236 b 262 236 262 236 262 236 z m 272 236 b 272 236 269 236 269 236 b 269 236 269 236 269 236 b 269 236 272 236 272 236 b 272 236 272 236 272 236 z m 242 173 b 242 173 242 176 242 176 b 242 176 242 176 242 176 b 242 173 242 173 242 173 b 242 173 242 173 242 173 z m 171 139 l 174 139 l 174 139 z m 154 116 b 154 119 154 119 154 119 b 151 119 151 119 151 116 b 151 116 151 116 151 116 b 151 116 154 116 154 116 z m 130 82 b 130 82 127 82 127 82 b 127 82 127 85 127 85 b 127 85 130 82 130 82 z m 83 45 b 83 45 83 42 83 42 b 83 42 80 42 80 42 b 80 42 83 45 83 45 z"},"&":{"x_min":0,"x_max":646,"ha":646,"o":"m 290 34 b 306 27 326 40 343 54 b 346 57 353 60 356 60 b 390 74 413 97 430 127 b 440 144 447 164 453 184 b 460 208 457 231 447 251 b 440 264 440 264 453 275 b 477 288 507 301 530 318 b 574 345 604 375 607 428 b 611 438 607 445 597 452 b 587 459 574 465 564 472 b 544 482 524 475 517 455 b 517 448 517 445 517 442 b 517 418 510 402 494 385 b 474 365 457 345 433 338 b 397 325 370 298 336 285 b 330 285 326 278 323 275 b 300 258 293 234 286 208 b 286 198 286 188 286 181 b 290 167 296 161 310 157 b 320 157 323 164 326 174 b 333 188 343 201 353 214 b 360 224 370 231 380 238 b 390 244 403 244 410 238 b 417 231 417 221 410 211 b 403 198 397 184 393 171 b 393 167 390 164 390 161 b 373 134 346 124 326 104 b 326 101 320 101 316 101 b 310 97 300 94 293 94 b 273 87 253 81 233 87 b 213 91 196 97 176 104 b 169 104 159 111 156 114 b 149 124 142 134 139 144 b 132 161 132 178 139 194 b 146 218 149 238 162 254 b 179 271 196 288 213 305 b 236 321 263 338 296 331 b 300 331 303 331 306 335 b 320 338 333 338 343 331 b 356 325 366 328 373 338 b 387 348 393 388 387 402 b 387 402 387 405 383 405 b 377 412 370 418 360 425 b 350 432 340 435 330 435 b 320 432 310 435 300 435 b 293 435 283 435 276 438 b 269 442 259 442 253 448 b 243 459 236 469 229 479 b 226 495 219 515 229 535 b 246 572 266 606 303 626 b 306 629 310 629 310 632 b 333 653 360 653 387 659 b 397 659 407 659 417 659 b 423 659 430 656 433 653 b 453 636 453 636 443 609 b 443 606 443 602 440 602 b 430 582 427 562 430 539 b 433 515 443 499 467 492 b 474 489 480 489 484 495 b 490 509 497 519 500 529 b 507 552 514 579 520 602 b 520 606 524 612 527 616 b 537 632 547 646 554 663 b 564 683 571 699 564 723 b 557 753 527 766 500 753 b 494 750 490 750 487 746 b 480 743 474 743 467 746 b 427 770 383 770 343 756 b 286 739 236 709 196 663 b 166 632 149 592 139 549 b 136 545 136 542 136 542 b 139 525 139 509 139 495 b 142 472 149 455 162 438 b 166 435 169 432 172 425 b 179 415 179 402 172 395 b 156 382 136 365 119 351 b 109 341 99 331 89 318 b 79 305 72 291 65 278 b 52 251 42 224 42 194 b 42 167 45 144 62 121 b 62 117 65 114 65 107 b 69 94 79 84 92 77 b 99 70 109 64 119 57 b 122 54 129 50 132 50 b 146 47 162 40 176 37 b 182 37 189 34 196 34 b 223 34 253 34 290 34 z m 430 689 b 430 689 433 689 433 689 b 433 693 437 693 440 696 b 440 693 440 689 443 689 b 440 689 437 689 433 689 b 433 689 430 689 430 689 z m 219 415 b 223 415 223 418 226 418 b 226 418 226 418 226 415 b 223 415 223 415 219 415 b 219 415 219 415 216 412 b 219 415 219 415 219 415 z m 507 669 b 510 669 510 669 514 669 b 514 669 514 666 514 666 b 510 666 507 669 507 669 b 504 669 504 669 500 669 b 504 673 504 673 507 673 b 507 673 507 676 507 676 b 510 676 514 676 517 676 b 517 676 517 676 517 676 b 514 673 510 673 507 673 b 507 669 507 669 507 669 z m 504 686 b 504 683 504 679 500 676 b 497 676 494 676 490 676 b 490 679 490 683 494 686 b 497 696 497 686 500 686 b 500 686 504 686 504 686 z m 470 673 b 470 676 470 679 474 683 b 474 686 474 689 474 693 l 474 693 b 477 696 484 699 487 703 b 487 696 484 689 484 686 b 480 676 487 669 490 666 b 494 666 494 663 494 663 b 487 659 470 659 463 666 b 463 666 463 669 463 673 b 467 673 467 673 470 673 z m 213 392 b 223 398 236 405 246 412 b 253 412 256 412 263 412 b 263 415 259 415 259 418 b 263 418 266 418 269 418 b 266 415 266 412 263 412 b 259 408 259 405 256 405 b 249 402 253 395 256 395 b 266 392 263 378 269 375 b 266 372 263 368 263 365 b 256 362 253 362 249 365 b 249 362 246 358 246 358 b 246 358 243 362 243 362 b 243 362 246 365 249 365 b 249 368 249 368 249 372 l 249 372 b 246 372 239 372 236 372 l 236 372 b 236 372 236 372 236 368 b 236 365 236 362 236 358 b 229 358 223 362 216 365 b 216 365 219 368 219 372 b 219 375 219 378 223 382 b 223 382 219 382 219 385 b 219 385 216 385 216 382 b 213 375 209 375 203 378 b 203 378 199 375 199 375 b 199 375 199 375 199 375 b 199 378 203 378 203 378 b 203 385 206 392 209 398 b 209 398 209 398 209 398 b 213 395 213 392 213 392 b 213 392 213 392 213 392 z m 447 666 b 443 666 443 669 440 669 b 443 669 443 673 443 673 b 447 673 450 669 453 669 b 450 666 450 666 447 666 z m 504 653 b 500 653 500 653 500 653 b 497 653 497 653 497 656 b 497 656 500 656 500 656 b 500 656 504 656 504 653 z m 213 345 b 213 345 213 345 213 341 b 213 345 209 345 209 345 b 213 345 213 345 213 345 b 213 345 213 345 213 345 z m 463 723 b 463 719 463 719 460 719 b 460 719 460 719 460 723 b 460 723 460 723 460 723 b 460 723 460 723 463 723 z m 236 425 b 236 422 236 422 233 422 b 233 422 233 422 233 422 b 233 422 233 425 233 425 b 236 425 236 425 236 425 z m 440 709 b 440 709 440 709 440 706 b 440 706 437 706 437 706 b 437 706 437 706 437 709 b 437 709 437 709 440 709 z m 223 351 b 226 355 226 355 226 355 b 226 355 226 355 226 351 b 226 351 226 351 226 351 b 223 351 223 351 223 351 z m 196 392 b 196 392 196 392 193 388 b 193 392 193 392 193 392 b 193 392 193 392 193 392 b 196 392 196 392 196 392 z m 186 375 b 186 378 189 378 189 378 b 189 378 189 378 189 375 b 189 375 189 375 186 375 b 186 375 186 375 186 375 z m 450 693 b 450 693 453 693 453 689 b 450 689 450 689 450 689 b 450 689 450 689 447 689 b 450 693 450 693 450 693 z m 487 653 b 487 653 487 653 487 653 b 487 653 487 656 487 656 b 487 656 487 656 487 656 b 487 656 487 653 487 653 z m 417 706 l 413 706 z m 236 372 b 236 375 229 385 243 385 b 243 385 243 388 246 392 b 243 392 239 392 239 392 b 226 388 226 385 236 372 z m 249 372 b 249 372 249 375 249 375 b 253 375 253 378 256 378 b 256 378 256 378 256 378 b 256 375 253 375 253 372 b 253 372 249 372 249 372 z m 213 392 b 213 392 213 388 209 388 b 213 388 213 392 213 392 z m 470 673 b 470 673 470 673 470 673 b 470 673 470 673 470 673 z"},"_":{"x_min":0,"x_max":721,"ha":721,"o":"m 634 -25 b 625 -25 616 -22 610 -25 b 598 -28 592 -28 583 -28 b 574 -31 568 -31 562 -37 b 553 -31 547 -28 538 -28 b 535 -28 529 -22 526 -25 b 514 -31 502 -31 493 -31 b 466 -31 436 -31 406 -31 b 379 -31 349 -31 319 -37 b 304 -37 292 -31 280 -31 b 250 -31 226 -31 196 -31 b 175 -31 154 -31 136 -31 b 127 -22 118 -19 103 -22 b 97 -25 88 -28 79 -28 b 70 -28 64 -31 58 -37 b 40 -52 31 -70 28 -88 b 31 -91 37 -100 40 -103 b 49 -106 55 -112 64 -106 b 67 -106 67 -106 70 -106 b 88 -106 103 -100 121 -103 b 124 -103 127 -103 127 -103 b 130 -100 136 -100 139 -100 b 145 -100 148 -103 151 -103 b 154 -103 157 -106 160 -106 b 166 -103 172 -103 175 -100 b 190 -100 211 -97 229 -106 b 235 -103 238 -100 241 -100 b 247 -100 250 -100 256 -100 b 262 -103 265 -103 271 -103 b 292 -103 310 -103 331 -103 b 334 -103 337 -103 346 -103 b 352 -100 358 -97 367 -103 b 367 -103 373 -103 373 -103 b 379 -97 385 -100 388 -100 b 397 -100 406 -100 412 -103 b 418 -103 427 -100 436 -100 b 439 -100 442 -100 445 -103 b 454 -103 463 -103 472 -103 b 478 -100 487 -100 499 -100 b 505 -103 514 -106 523 -103 b 532 -100 538 -100 544 -100 b 556 -103 565 -103 574 -103 b 589 -103 604 -100 619 -100 b 640 -85 646 -70 652 -49 b 646 -43 640 -31 634 -25 z"},"v":{"x_min":0,"x_max":425,"ha":425,"o":"m -89 88 b -89 79 -89 68 -89 57 b -89 51 -86 45 -86 37 b -86 31 -83 28 -75 24 b -66 17 -52 7 -41 0 b -35 -7 -24 -7 -17 -10 b -11 -10 -4 -13 3 -13 b 6 -13 6 -13 6 -13 b 17 -10 23 -7 34 -3 b 54 4 71 10 88 24 b 98 34 108 37 118 48 b 122 48 126 51 129 54 b 143 68 155 82 169 96 b 177 105 186 116 197 123 b 210 133 221 146 231 157 b 244 174 258 191 272 208 b 281 225 295 242 309 259 b 319 272 329 286 340 300 b 343 309 350 317 353 326 b 360 334 364 340 367 351 b 370 357 373 361 377 368 b 384 374 390 381 394 392 b 394 398 398 405 404 409 b 407 415 415 422 418 432 b 418 438 421 446 424 452 b 428 460 432 466 432 469 b 432 480 432 486 435 493 b 435 497 435 504 435 507 b 435 510 435 517 438 521 b 438 521 438 521 438 521 b 435 527 435 531 435 535 b 432 544 424 552 415 558 b 412 558 404 558 401 558 b 398 555 394 552 390 547 b 390 547 390 547 390 544 b 390 527 384 510 373 493 b 370 490 370 483 367 480 b 367 473 367 469 364 463 b 357 449 350 435 343 426 b 333 405 323 388 312 371 b 309 361 303 351 295 340 b 292 334 289 326 286 323 b 281 314 278 306 275 303 b 272 297 269 289 261 283 b 255 275 251 266 241 255 b 238 252 234 248 231 245 b 227 238 224 231 221 225 b 210 208 197 191 183 177 b 166 160 146 140 126 123 b 122 119 118 116 112 112 b 112 109 112 109 108 109 b 105 109 98 105 91 105 b 91 105 88 105 88 105 b 85 109 81 112 77 112 b 71 123 68 129 71 143 b 71 146 74 150 74 157 b 77 177 85 194 95 211 b 98 218 101 221 101 225 b 98 231 101 238 105 242 b 105 245 108 248 108 252 b 112 262 115 275 118 286 b 122 292 126 303 132 309 b 135 317 139 323 135 334 b 135 340 139 347 143 351 b 143 354 146 361 149 364 b 149 371 152 378 152 384 b 155 395 163 401 160 412 b 160 412 163 415 163 415 b 166 422 166 429 163 435 b 163 449 155 463 149 473 b 146 477 146 477 143 480 b 132 486 122 493 112 500 b 101 504 91 507 81 514 b 74 514 68 517 64 521 b 57 524 51 524 47 521 b 43 521 40 521 40 517 b 37 517 37 517 34 514 b 34 504 34 493 26 480 b 26 480 26 477 26 473 b 26 463 23 456 23 449 b 23 438 23 432 20 422 b 13 401 6 384 6 364 b 6 357 3 354 3 351 b -4 337 -11 323 -14 309 b -21 279 -35 248 -45 218 b -48 208 -52 200 -55 191 b -62 174 -69 153 -75 140 b -78 133 -83 126 -86 119 b -86 116 -89 112 -89 105 b -89 102 -89 96 -89 88 z m -14 119 b -11 126 0 126 6 123 b 3 126 3 129 3 129 b 3 133 3 133 6 136 b 9 136 9 133 9 133 b 9 129 9 126 9 126 b 9 123 13 123 13 119 b 13 119 17 116 17 112 b 17 109 17 105 17 99 b 20 102 23 102 26 102 b 26 99 26 92 31 88 b 26 88 23 88 23 88 b 23 88 20 92 20 96 b 20 96 20 96 20 96 b 20 96 17 96 20 92 b 20 92 17 88 20 88 b 20 88 20 85 23 85 b 17 85 13 85 9 85 b 6 88 6 88 6 85 b 6 82 6 82 9 79 b 9 79 13 79 13 79 b 13 75 9 75 9 71 b 13 71 13 71 17 71 b 17 71 17 71 17 68 b 17 68 17 68 17 68 b 13 68 13 68 9 68 b 9 68 9 68 9 71 b 6 71 3 75 0 79 b 0 79 0 79 0 82 b 3 82 0 85 0 85 b -4 88 -4 88 0 92 b 0 92 0 96 3 96 b 0 96 0 96 0 96 b -4 92 -4 92 -8 92 b -8 92 -11 96 -11 99 b -11 102 -11 105 -11 109 b -8 109 -4 109 -4 105 b -4 105 -4 102 -8 102 b -4 102 3 99 6 102 b 6 102 9 102 9 99 b 13 102 13 102 17 102 b 9 109 6 112 3 116 b -4 109 -8 109 -14 119 z m 31 136 b 31 136 26 136 26 136 b 26 133 26 133 26 129 b 26 129 31 129 31 129 b 34 129 37 129 40 126 b 34 123 26 119 20 116 b 23 119 23 123 26 129 b 23 129 20 129 17 129 b 20 133 23 136 23 143 b 26 140 26 140 31 136 z m 20 171 b 20 166 23 163 20 160 b 20 157 20 157 20 157 b 20 153 20 153 20 153 b 20 153 20 150 20 150 b 20 150 20 150 20 150 b 20 150 20 150 20 153 b 17 153 17 157 17 157 b 17 157 13 157 9 157 b 9 153 13 153 13 150 b 9 150 9 150 6 150 b 6 153 3 157 9 157 b 9 157 9 160 9 160 b 9 166 13 166 20 171 z m 13 177 b 9 174 9 171 6 166 b 6 177 6 180 6 191 b 6 188 9 188 13 188 b 13 183 9 180 9 180 b 9 177 13 177 13 177 z m -24 143 b -21 143 -17 140 -17 140 b -14 136 -11 133 -11 129 b -17 129 -17 129 -21 136 b -21 136 -21 140 -24 143 z m 0 54 b -4 57 -4 62 -4 62 b 3 57 9 57 13 51 b 9 54 9 54 6 54 b 3 54 0 54 0 54 z m -4 150 b 0 150 3 150 6 150 b 6 146 6 143 6 136 b 3 140 0 143 -4 150 z m 34 112 b 34 109 34 105 34 99 b 31 102 31 102 26 105 b 26 105 31 109 34 112 z m 51 292 b 47 286 47 283 43 279 b 43 279 43 279 43 279 b 43 283 43 286 43 292 b 43 292 47 292 51 292 z m 13 197 b 13 200 13 200 9 205 b 13 205 17 205 23 205 b 20 205 17 200 13 197 z m 71 337 b 74 337 74 334 77 330 b 77 330 74 330 71 326 b 71 330 71 334 71 337 b 71 337 71 337 71 337 z m 51 255 b 47 255 47 259 43 262 b 43 262 47 262 51 266 b 51 262 51 259 51 255 b 51 255 51 255 51 255 z m -11 183 b -11 180 -11 177 -11 174 b -11 174 -14 174 -14 174 b -14 177 -14 180 -14 183 b -14 183 -14 183 -11 183 z m 68 343 b 68 340 68 340 64 337 b 64 337 64 337 64 337 b 64 340 60 340 60 343 b 64 343 64 343 68 343 z m 85 364 b 85 368 81 371 85 374 b 88 371 88 368 88 368 b 88 368 85 364 85 364 z m 40 300 b 37 303 37 303 37 306 b 40 306 40 306 43 303 b 43 303 43 303 47 303 b 43 303 43 303 43 300 b 43 300 40 300 40 300 z m 91 340 b 91 340 91 340 91 337 b 88 337 85 337 81 337 b 81 340 88 340 91 340 z m -11 163 b -14 160 -14 160 -17 157 b -17 163 -17 163 -11 163 z m -17 109 b -17 109 -21 105 -21 102 b -21 102 -21 102 -21 102 b -21 105 -21 109 -21 109 b -21 109 -17 109 -17 112 b -17 109 -17 109 -17 109 z m -35 123 b -31 123 -31 123 -28 123 b -28 123 -28 123 -28 123 b -28 123 -31 119 -31 119 b -35 119 -35 123 -35 123 b -35 123 -35 123 -35 123 z m 31 320 b 34 320 37 320 37 320 b 37 320 37 320 37 317 b 37 317 34 317 31 317 b 31 320 31 320 31 320 z m 57 401 b 60 401 64 401 68 401 b 68 401 68 401 68 398 b 64 398 60 398 57 398 b 57 401 57 401 57 401 z m 34 82 b 37 82 40 82 40 82 b 40 82 40 82 40 82 b 40 82 37 79 37 79 b 37 79 34 82 34 82 z m 23 171 b 26 171 31 174 34 174 b 34 171 34 171 34 171 b 31 171 26 171 23 171 b 23 171 23 171 23 171 z m 71 364 b 71 368 71 371 71 374 b 74 371 74 368 71 364 z m 54 286 b 57 286 60 286 60 289 b 60 286 60 286 54 286 z"},"O":{"x_min":0,"x_max":686,"ha":686,"o":"m -18 238 b -18 235 -18 228 -18 221 b -15 198 -8 174 -1 151 b 2 141 9 127 5 114 b 5 111 5 111 9 111 b 15 101 26 91 32 81 b 42 64 56 47 72 37 b 76 34 79 30 82 27 b 89 20 96 14 106 10 b 119 7 136 0 149 -7 b 160 -10 170 -13 183 -10 b 190 -10 200 -7 206 -7 b 213 -7 220 -3 223 0 b 227 0 230 0 233 0 b 240 -3 247 -3 257 0 b 267 3 280 10 294 14 b 307 17 320 27 330 34 b 340 44 350 50 364 57 b 404 84 438 114 468 151 b 488 174 508 198 525 225 b 538 241 548 261 555 281 b 555 288 558 292 565 298 b 575 312 582 328 585 345 b 588 348 592 355 592 362 b 592 365 595 365 595 365 b 605 375 605 389 612 399 b 612 399 612 402 615 405 b 615 412 615 419 618 426 b 622 429 622 432 622 439 b 622 442 622 446 625 449 b 625 449 625 452 625 452 b 632 469 635 486 639 506 b 642 509 642 513 642 519 b 645 526 645 533 649 539 b 655 560 659 583 659 603 b 655 610 659 613 659 616 b 662 623 662 627 659 633 b 659 640 659 643 655 650 b 655 650 655 650 655 653 b 659 660 659 667 655 677 b 649 707 642 740 625 767 b 615 787 602 801 585 814 b 575 817 568 824 562 831 b 548 844 531 851 515 854 b 505 858 495 858 484 858 b 484 858 481 861 478 861 b 478 861 478 861 478 861 b 474 861 471 858 471 858 b 461 858 451 854 438 854 b 431 851 424 851 417 848 b 411 848 407 844 401 841 b 394 838 387 831 381 831 b 361 824 344 814 330 801 b 324 791 317 784 310 781 b 290 767 277 750 263 734 b 250 717 237 700 223 687 b 220 683 216 683 213 680 b 203 677 190 673 176 670 b 173 670 170 670 166 667 b 160 667 156 663 153 660 b 146 657 139 650 136 647 b 119 633 106 620 93 603 b 69 573 49 539 32 503 b 29 496 29 489 26 482 b 22 472 19 459 15 452 b 9 432 2 415 -5 395 b -8 389 -11 379 -11 369 b -15 369 -15 365 -11 365 b -8 359 -8 348 -11 342 b -15 338 -15 338 -11 335 b -11 335 -11 332 -11 332 b -11 325 -15 315 -15 308 b -18 302 -18 292 -15 281 b -15 281 -15 278 -15 278 b -11 271 -15 265 -18 258 b -18 251 -18 245 -18 238 z m 253 616 b 253 616 257 616 257 613 b 257 613 253 610 253 606 b 253 606 250 606 250 606 b 247 606 247 610 250 613 b 250 613 250 616 253 616 b 250 616 247 616 243 616 b 247 620 247 620 247 620 b 250 620 250 616 253 616 z m 76 312 b 72 308 66 305 62 312 b 66 315 69 315 76 318 b 76 315 76 312 76 312 b 76 308 76 308 79 305 b 79 305 79 305 76 302 b 76 305 76 305 76 305 b 76 305 76 308 76 312 z m 79 429 b 79 426 76 422 76 419 b 72 422 72 426 69 429 b 72 429 76 429 79 429 b 79 432 79 436 79 439 b 79 439 82 439 82 439 b 82 442 82 446 82 449 b 86 449 89 446 89 442 b 89 442 86 442 82 439 b 82 436 86 436 86 436 b 89 436 89 436 89 436 b 89 436 93 436 89 436 b 89 442 93 446 96 446 b 96 449 96 449 99 449 b 96 452 96 452 96 456 b 96 456 96 456 99 459 b 99 459 99 459 96 459 b 96 459 96 459 96 456 b 93 456 89 456 86 459 b 86 462 86 466 82 469 b 86 469 93 469 96 472 l 96 472 b 96 472 96 476 96 476 b 99 476 103 472 103 479 b 96 479 96 479 93 482 b 93 479 89 479 86 476 b 82 476 82 479 79 479 b 79 482 86 486 79 489 b 86 496 86 486 89 486 b 93 486 93 493 99 493 b 99 489 96 482 103 482 b 103 486 103 489 103 493 b 106 493 106 489 106 489 b 106 486 106 486 106 482 b 109 482 109 482 109 482 b 116 496 113 506 99 506 b 99 506 103 523 103 523 b 106 523 109 523 109 523 b 109 526 109 529 106 533 b 106 533 109 533 109 536 b 109 536 113 536 113 533 b 113 536 116 536 116 536 b 119 536 123 536 123 533 b 123 529 126 526 126 523 b 123 523 123 523 119 523 b 119 523 119 519 119 516 b 123 516 123 519 126 519 b 126 516 126 516 126 513 b 129 513 133 516 136 516 l 136 516 b 136 519 136 523 139 523 b 136 523 133 523 133 523 b 133 529 136 533 143 533 b 146 529 146 533 149 533 b 149 529 149 526 149 523 b 149 523 146 523 143 523 b 146 519 146 519 149 519 b 153 519 156 523 156 523 b 156 523 160 523 160 523 b 160 526 156 529 156 529 b 163 536 170 539 173 533 b 176 536 176 536 176 539 b 176 539 176 539 173 543 b 173 546 173 546 170 543 b 166 543 166 543 163 539 b 163 543 163 543 163 543 b 160 543 160 539 156 539 b 156 543 153 546 153 549 b 153 546 149 546 146 543 b 146 539 149 539 153 539 b 149 536 136 536 133 539 b 136 543 143 546 146 543 b 146 546 146 546 146 546 b 143 553 143 553 146 556 b 146 556 143 556 143 560 b 139 566 136 573 133 580 b 143 583 146 580 146 570 b 146 563 146 560 146 556 b 149 556 153 553 153 553 b 156 560 156 566 149 580 b 153 580 160 580 163 580 b 163 580 163 576 163 573 b 160 570 160 570 163 566 b 166 566 166 566 166 566 b 166 563 166 563 163 563 b 163 563 163 563 163 560 b 166 563 166 563 166 563 b 166 563 166 563 166 563 b 173 570 173 570 180 570 b 180 570 183 570 183 570 b 183 570 183 573 183 573 b 180 573 180 576 180 580 b 176 580 173 580 173 580 b 173 583 173 586 173 590 b 176 590 180 586 180 580 b 186 583 193 590 193 596 b 193 600 196 600 200 600 b 206 596 206 596 210 606 b 213 606 213 610 216 610 b 223 610 233 610 240 610 b 240 610 240 613 240 613 b 240 616 240 616 243 616 b 243 613 243 610 240 610 b 240 606 237 603 237 603 b 237 600 240 600 243 596 b 237 590 233 596 227 596 b 230 596 230 600 230 603 b 227 603 223 603 220 603 b 220 600 223 600 223 596 b 223 593 223 590 220 586 b 220 586 220 586 220 586 b 223 586 223 586 223 586 b 227 586 230 583 233 580 b 227 576 223 573 220 570 b 220 570 223 570 223 570 b 223 566 223 566 223 563 b 227 570 227 570 233 570 b 233 563 233 556 233 549 b 240 549 240 546 243 539 b 237 543 233 543 227 543 b 230 539 227 536 220 536 b 223 533 223 533 223 529 b 223 529 220 529 220 526 b 220 533 223 539 216 539 l 216 539 b 213 536 213 533 213 526 b 213 526 213 526 213 526 b 213 526 213 526 213 526 b 210 529 206 533 203 536 b 203 526 200 519 193 513 b 196 513 200 513 203 513 b 203 509 203 506 203 503 b 200 506 200 506 196 509 b 196 506 196 503 200 499 b 200 496 200 493 196 493 b 196 493 196 489 193 489 b 193 489 186 489 186 482 b 186 482 186 482 186 482 b 180 482 173 482 166 479 b 170 482 170 486 170 489 b 170 489 166 489 163 489 b 163 482 160 476 160 472 b 160 472 163 472 163 472 b 166 476 170 476 176 476 b 176 476 180 476 180 479 b 180 479 183 479 186 479 b 186 476 190 472 183 472 b 183 472 183 469 183 469 b 180 469 176 469 176 469 b 176 466 176 462 176 459 b 176 456 173 456 173 456 b 173 452 176 449 176 442 b 173 446 170 446 166 449 b 166 442 166 439 166 436 b 166 432 166 432 166 429 b 170 426 166 422 163 422 b 163 419 163 419 163 419 b 166 422 166 422 166 422 b 170 422 173 419 176 415 b 180 415 180 415 180 415 b 180 412 176 412 176 412 b 173 412 170 409 163 409 b 163 412 163 412 163 415 b 160 412 156 409 156 402 b 160 402 163 399 166 399 b 166 395 163 392 160 389 b 160 389 160 392 156 395 b 156 395 156 395 156 395 b 156 392 156 392 156 389 b 156 385 156 385 153 382 b 153 382 153 382 149 382 b 149 375 149 375 143 375 b 143 375 139 375 139 375 b 139 379 136 379 136 379 b 136 375 136 372 136 369 b 139 369 139 372 143 372 b 146 372 149 372 149 369 b 149 365 153 369 156 369 b 156 369 160 369 163 369 b 160 365 156 362 156 359 b 153 362 153 365 149 369 b 149 365 146 362 146 359 b 143 355 139 355 136 359 b 136 359 136 359 136 359 b 133 355 133 355 129 352 b 129 355 126 355 126 359 b 129 359 129 359 133 359 b 133 359 133 359 133 362 b 133 362 129 362 129 362 b 126 365 123 362 119 362 b 119 362 123 359 123 355 b 123 355 123 352 119 352 b 119 352 119 352 119 352 b 116 345 113 348 106 348 b 106 348 103 348 103 348 b 103 348 99 348 99 348 l 99 348 b 99 345 99 345 99 345 b 99 342 99 342 96 338 b 89 338 89 335 93 328 b 96 332 96 332 99 325 b 86 328 72 328 59 322 b 59 328 59 332 59 335 b 59 335 59 338 59 338 b 62 342 69 342 72 345 b 72 345 76 342 76 342 b 76 338 72 335 69 332 b 72 332 76 332 79 332 b 79 335 79 335 79 338 b 82 338 82 338 86 335 b 86 335 86 335 86 335 b 86 338 86 338 82 338 b 86 342 86 345 86 345 b 82 352 76 348 69 348 b 69 348 69 352 66 355 b 69 355 72 355 76 355 b 82 359 86 359 86 362 b 79 365 72 365 66 362 b 66 369 66 372 66 375 b 69 375 69 375 69 375 b 72 375 72 375 76 379 b 76 385 79 392 79 399 b 76 392 69 389 66 385 b 59 382 49 382 46 389 b 42 389 42 389 42 389 b 42 389 42 392 42 392 b 46 392 52 389 59 389 b 59 395 59 399 59 402 b 62 402 62 402 66 399 b 66 402 69 405 69 405 b 72 405 72 402 72 402 b 72 402 72 402 72 399 b 72 402 76 402 76 402 b 72 405 76 409 79 409 b 82 412 82 415 82 419 b 82 419 82 422 82 422 b 86 422 89 422 89 422 b 89 426 89 426 89 429 b 86 429 82 432 79 429 z m 103 208 b 103 218 103 231 106 245 b 106 255 109 265 113 275 b 113 275 116 278 116 278 b 113 285 116 288 123 292 b 126 295 129 298 133 302 b 136 302 136 302 139 302 b 153 295 166 288 180 281 b 180 281 183 281 186 281 b 193 278 200 281 206 288 b 213 292 216 298 210 308 b 206 312 210 315 210 322 b 216 348 220 375 227 405 b 227 409 230 412 230 415 b 240 436 247 456 253 476 b 257 482 260 489 263 499 b 267 506 270 513 277 519 b 280 523 280 526 283 529 b 287 539 290 553 297 563 b 297 570 300 573 304 576 b 314 593 320 610 330 627 b 334 637 340 647 347 657 b 357 670 364 687 374 704 b 374 707 377 710 377 714 b 381 720 387 727 394 730 b 401 734 407 740 411 747 b 414 754 417 757 421 764 b 428 774 434 777 444 781 b 454 784 461 787 468 794 b 474 797 481 797 491 794 b 491 794 495 794 498 794 b 515 787 525 777 531 761 b 531 757 531 757 531 757 b 541 744 541 730 545 720 b 545 710 548 700 545 690 b 545 683 541 677 541 670 b 541 663 541 660 541 657 b 541 657 541 653 541 650 b 541 647 541 647 541 643 b 541 633 538 627 538 620 b 535 616 531 610 535 603 b 535 586 528 566 525 549 b 515 526 508 506 501 486 b 498 479 498 476 498 472 b 495 459 491 446 484 436 b 474 415 468 399 461 379 b 458 369 454 355 448 345 b 438 332 434 318 428 305 b 414 285 404 261 391 245 b 374 225 357 204 344 184 b 314 151 287 121 250 91 b 247 87 240 84 233 87 b 220 87 206 81 190 77 b 190 77 190 77 186 77 b 176 74 170 74 160 77 b 160 77 160 77 156 81 b 146 87 133 97 126 107 b 116 117 109 131 109 144 b 113 151 109 158 106 168 b 103 171 103 174 103 181 b 103 188 103 198 103 208 b 103 208 103 208 103 208 z m 240 633 b 240 627 240 623 240 620 b 237 623 230 623 227 627 b 227 630 227 637 223 640 b 223 640 227 640 227 640 b 227 640 227 640 227 640 b 227 637 227 633 227 630 b 233 630 237 630 240 633 z m 79 439 b 76 439 72 439 69 439 b 66 449 66 452 69 456 b 72 449 76 446 79 439 z m 243 573 b 240 573 240 573 237 573 b 233 583 237 586 247 586 b 247 586 243 583 243 580 b 243 580 243 576 243 573 z m 190 610 b 190 606 193 603 193 603 b 190 600 190 600 186 596 b 186 593 183 593 180 593 b 183 600 186 603 190 610 z m 79 469 b 79 462 82 459 82 452 b 79 452 76 456 69 456 b 72 459 76 462 79 469 z m 227 613 b 220 613 216 613 213 613 b 213 616 213 620 216 623 b 220 620 223 620 227 616 b 227 613 227 613 227 613 z m 86 325 b 86 322 86 318 86 315 b 82 315 79 318 76 318 b 76 325 82 322 86 325 z m 56 292 b 56 295 56 295 56 298 b 59 298 62 302 66 302 b 69 298 69 298 56 292 z m 116 338 b 113 335 109 332 106 328 b 106 332 103 335 103 338 b 106 338 109 338 113 338 b 113 338 113 338 116 338 z m 270 623 b 267 620 263 616 263 613 b 260 613 260 616 257 616 b 260 620 263 623 267 627 b 267 623 267 623 270 623 z m 240 556 b 240 560 240 563 240 563 b 240 566 240 566 240 566 b 243 566 247 563 253 563 b 247 560 243 560 240 556 z m 498 312 b 498 315 495 315 495 315 b 495 318 491 318 495 318 b 495 322 495 322 498 322 b 498 322 501 322 501 318 b 501 318 501 315 498 312 z m 149 355 b 153 352 153 352 156 348 b 149 348 146 348 139 348 b 143 348 146 352 149 355 z m 59 375 b 59 372 59 369 59 369 b 52 365 52 365 52 372 b 52 372 56 372 59 375 z m 243 596 b 247 600 247 600 250 600 b 250 596 250 596 253 590 b 250 593 247 596 243 596 z m 210 499 b 210 496 210 496 213 493 b 210 493 206 493 203 493 b 203 496 206 496 210 499 z m 52 436 b 59 436 59 436 66 436 b 62 432 59 432 56 429 b 56 429 56 432 52 436 z m 257 637 b 260 637 260 637 263 637 b 263 637 263 637 263 637 b 260 633 260 630 257 630 b 257 630 257 630 257 630 b 257 630 257 633 257 637 z m 176 426 b 176 426 180 429 183 429 b 183 426 183 426 183 426 b 180 422 176 422 176 426 z m 49 271 b 49 268 49 261 49 258 b 49 258 49 258 49 258 b 46 261 49 268 49 271 b 49 271 49 271 49 271 z m 498 285 b 498 288 498 288 498 292 b 498 295 498 295 501 295 b 501 292 501 288 501 285 b 498 285 498 285 498 285 z m 129 539 b 126 539 123 539 123 543 b 126 543 129 546 129 539 z m 166 596 b 166 596 166 596 166 600 b 163 600 163 603 163 603 b 166 603 166 603 166 603 b 166 603 170 600 170 596 b 170 596 170 596 166 596 z m 153 600 b 153 600 156 600 160 600 b 160 600 160 596 160 596 b 156 596 153 596 153 600 z m 280 667 b 283 663 283 660 283 660 b 283 660 283 657 283 657 b 280 657 280 657 280 660 b 280 660 280 663 280 667 b 280 667 280 667 280 667 z m 62 281 b 62 285 62 285 62 285 b 66 285 69 285 69 285 b 69 285 69 285 69 285 b 69 285 66 281 62 281 z m 210 519 b 210 516 210 516 210 513 b 210 513 210 513 210 513 b 210 513 206 516 206 516 b 206 519 210 519 210 519 b 210 519 210 519 210 519 z m 548 409 b 548 405 548 405 548 402 b 548 402 548 399 548 399 b 545 399 545 399 545 399 b 545 402 545 405 545 409 b 545 409 548 409 548 409 z m 525 365 b 528 369 528 369 531 372 b 531 372 531 372 531 372 b 531 369 531 369 531 365 b 531 365 528 365 525 365 z m 213 633 b 216 633 216 630 216 627 b 210 627 210 627 213 633 z m 32 365 b 32 365 36 365 39 365 b 39 365 39 365 39 365 b 36 365 32 365 29 365 b 32 365 32 365 32 365 z m 42 312 b 42 315 42 315 42 318 b 46 318 46 318 46 318 b 46 315 46 315 46 312 b 46 312 46 312 42 312 z m 538 359 b 538 355 538 355 538 352 b 538 352 538 352 538 352 b 538 355 538 355 538 359 b 538 359 538 359 538 359 z m 541 459 b 541 462 541 466 541 469 b 541 469 545 469 545 469 b 545 466 545 462 545 459 b 545 459 541 459 541 459 z m 511 338 b 511 342 511 345 511 348 b 511 348 511 348 511 348 b 511 345 511 342 511 338 b 511 338 511 338 511 338 z m 525 359 b 528 359 531 359 531 359 b 531 359 531 355 531 355 b 531 355 528 355 525 355 b 525 355 525 359 525 359 z m 531 375 b 531 375 528 375 525 375 b 525 375 525 379 525 379 b 528 379 531 379 531 379 b 531 379 531 375 531 375 z m 518 399 b 518 399 521 399 525 399 b 525 399 525 395 525 395 b 521 395 521 395 518 395 b 518 395 518 399 518 399 z m 62 419 b 59 419 59 415 56 415 b 56 415 56 415 56 415 b 56 419 56 419 56 419 b 59 419 59 419 62 419 b 62 419 62 419 62 419 z m 113 322 b 113 322 116 322 119 322 b 119 322 119 322 119 322 b 116 322 116 318 113 318 b 113 318 113 322 113 322 z m 170 382 b 173 382 173 382 173 382 b 173 379 173 379 173 375 b 173 375 173 375 173 375 b 173 379 173 379 170 382 z m 233 616 b 233 616 233 613 233 613 b 233 613 230 613 230 613 b 230 613 227 613 227 613 b 230 616 233 616 233 616 z m 428 184 b 428 184 424 181 421 181 b 424 184 428 188 428 184 z m 206 630 b 206 630 203 630 203 630 b 200 630 200 630 200 630 b 200 630 200 630 200 633 b 203 633 203 633 206 633 b 206 633 206 633 206 630 z m 109 355 b 109 355 106 359 103 359 b 103 355 103 352 103 348 b 103 348 106 348 106 348 b 109 348 109 352 109 355 z m 103 459 b 103 456 103 452 103 449 b 106 446 106 446 106 446 b 106 449 106 449 109 449 b 109 452 113 456 116 456 b 119 456 123 459 123 462 b 119 462 119 462 116 462 b 116 469 119 476 119 479 b 113 479 109 476 106 472 b 109 469 113 466 116 462 b 113 462 113 459 109 456 b 109 456 106 459 103 459 z m 146 429 b 149 429 153 429 156 429 b 153 436 160 436 163 442 b 160 446 160 446 156 449 b 153 446 153 442 153 439 b 153 436 149 436 146 436 l 146 436 b 146 432 146 429 146 429 z m 119 516 b 119 516 119 513 119 513 b 123 513 123 513 126 513 b 129 509 129 506 129 506 b 129 506 126 506 126 506 b 123 506 123 496 116 499 b 116 503 113 506 113 509 b 113 513 113 513 116 516 b 116 516 116 516 119 516 z m 190 499 b 190 503 190 506 193 506 b 183 509 176 509 173 503 b 173 499 176 499 176 496 b 180 499 183 503 186 503 b 186 503 190 503 190 499 z m 143 513 b 143 513 143 513 143 513 b 143 509 139 509 139 509 b 133 509 136 503 136 499 b 136 499 139 499 139 503 b 143 503 146 503 146 503 b 149 506 153 503 156 503 b 149 506 146 509 143 513 z m 82 399 b 86 395 86 389 89 385 b 96 389 96 392 93 395 b 93 402 86 399 82 399 z m 119 362 b 119 365 119 369 119 372 b 109 365 109 365 109 355 b 109 355 109 355 109 355 b 113 355 113 355 116 355 b 116 359 113 362 119 362 z m 170 469 b 170 469 166 469 166 466 b 163 462 163 452 166 449 b 170 456 170 462 170 469 z m 200 580 b 200 576 203 576 203 576 b 210 580 213 583 213 586 b 210 583 206 586 203 590 b 203 586 203 580 200 580 z m 143 446 b 149 449 153 452 156 452 b 153 456 146 456 143 459 b 143 456 143 449 143 446 z m 173 549 b 173 549 173 549 173 549 b 176 553 180 556 183 560 b 183 560 183 563 183 563 b 176 563 180 560 180 556 b 176 556 173 556 170 556 b 173 553 173 549 173 549 z m 190 543 b 196 539 200 539 203 536 b 203 539 206 543 200 546 b 196 549 193 543 190 543 z m 99 369 b 99 369 99 369 99 372 b 99 375 96 379 93 382 b 96 379 93 375 93 372 b 93 369 93 369 89 369 b 93 369 96 369 99 369 z m 143 412 b 153 412 156 415 156 422 b 153 422 149 422 146 419 b 146 415 146 415 143 412 z m 89 429 b 93 429 96 429 96 429 b 99 432 99 436 96 439 b 96 439 93 436 89 436 b 89 432 89 429 89 429 z m 126 439 b 126 442 126 446 126 449 b 123 449 123 446 119 446 b 119 439 119 439 126 439 b 126 439 126 439 126 439 z m 106 412 b 103 409 96 405 93 405 b 93 405 93 402 93 402 b 99 402 103 405 106 405 b 106 405 106 409 106 412 z m 146 493 b 146 493 146 493 146 493 b 143 493 143 493 139 489 b 139 489 139 486 139 486 b 143 482 146 482 146 486 b 146 486 146 489 146 493 z m 136 392 b 139 389 143 389 146 385 b 146 392 143 392 143 395 l 143 395 b 139 395 136 395 136 392 z m 96 472 b 96 472 96 472 96 472 b 93 469 93 466 93 466 b 96 469 99 466 103 466 b 103 466 103 469 103 472 b 99 472 96 472 96 472 z m 103 436 b 106 436 109 436 109 436 b 113 439 113 439 113 442 b 113 442 113 442 113 442 b 113 442 113 442 109 439 b 109 442 106 442 103 442 b 103 439 103 439 103 436 z m 136 412 b 136 412 136 415 139 419 b 136 419 133 419 133 419 l 133 419 b 129 415 129 412 136 412 z m 143 395 b 143 395 143 395 143 395 b 146 395 146 395 149 395 b 149 395 149 395 149 399 b 149 399 149 399 149 399 b 146 402 146 402 143 402 b 143 399 143 399 143 395 z m 129 375 b 126 372 123 372 123 369 b 123 369 123 369 123 369 b 126 369 129 369 133 369 b 129 372 129 372 129 375 z m 136 392 b 136 392 136 392 136 392 b 133 392 129 392 126 389 b 129 389 129 385 129 385 b 129 385 133 382 133 382 b 133 385 136 385 136 385 b 136 389 136 389 136 392 z m 133 419 b 133 419 133 419 133 419 b 129 422 129 426 129 429 b 129 429 129 429 129 432 b 129 432 126 432 126 429 b 126 426 126 422 126 419 b 129 419 129 419 133 419 z m 186 529 b 183 529 183 529 180 529 b 180 526 180 523 180 523 b 183 523 183 526 186 529 z m 119 409 b 119 405 119 402 119 402 b 119 402 119 399 123 399 b 123 399 123 402 123 402 b 123 405 126 409 126 409 b 123 409 123 409 119 409 z m 213 553 b 213 556 210 560 210 563 b 206 563 206 563 210 556 b 210 556 213 553 213 553 z m 119 409 b 119 409 119 409 119 409 b 116 412 116 412 109 412 b 113 405 116 409 119 409 z m 126 439 b 126 439 126 439 126 439 b 129 436 129 436 136 436 l 136 436 b 133 442 129 439 126 439 z m 136 516 b 136 513 136 513 143 513 b 143 513 143 513 143 513 b 143 516 139 516 136 516 z m 216 539 b 216 539 216 539 216 539 b 213 546 210 543 206 543 b 210 539 213 539 216 539 z m 109 523 b 113 519 109 516 116 516 b 116 519 116 523 109 523 z m 103 359 b 103 362 103 365 99 369 b 99 365 99 365 99 365 b 99 362 99 359 103 359 z m 109 432 b 109 432 109 432 109 432 b 109 429 106 429 103 429 b 106 429 109 429 109 426 b 109 429 109 429 109 432 z m 136 436 b 136 436 136 436 136 436 b 136 432 136 432 136 429 b 136 429 139 429 139 429 b 139 429 136 436 136 436 z m 146 436 b 146 436 146 436 146 436 b 146 439 146 439 146 442 b 146 442 146 442 143 442 b 143 442 143 439 143 436 b 143 436 146 436 146 436 z m 86 369 b 86 369 86 372 86 372 b 86 375 86 375 82 375 b 82 372 82 369 82 369 b 82 369 86 369 86 369 z m 163 556 b 163 556 160 556 160 556 b 160 553 160 549 160 549 b 160 549 163 549 163 549 b 163 549 163 553 163 556 z m 220 549 b 223 543 223 543 227 546 b 223 546 220 546 220 549 z m 106 389 b 109 382 109 382 113 385 b 113 385 109 385 106 389 z m 136 402 b 133 402 133 402 133 402 b 133 402 129 402 126 402 b 129 402 129 399 129 399 b 129 399 133 402 136 402 z m 126 486 b 129 486 129 486 129 482 b 129 486 133 486 136 486 b 133 486 133 486 133 486 b 133 486 129 486 126 486 z m 139 499 b 143 496 146 496 146 496 b 146 499 146 499 139 499 z m 86 412 b 93 412 93 415 89 419 b 89 415 86 412 86 412 z m 220 576 b 216 580 216 580 213 580 b 216 576 216 576 220 576 z m 123 392 b 119 389 119 389 123 385 b 123 385 123 389 123 392 z m 143 412 b 139 412 136 412 136 412 b 136 412 136 412 136 412 b 136 409 136 409 139 409 b 139 409 143 409 143 412 z m 146 429 b 146 426 146 426 143 426 b 146 422 146 422 146 419 b 146 422 146 426 146 429 z m 163 493 b 166 493 166 493 166 493 b 166 493 166 493 166 493 b 166 496 166 496 166 499 b 166 499 163 499 163 499 b 163 496 163 496 163 493 z m 103 372 b 109 372 109 372 109 375 b 106 375 106 375 103 372 z m 196 570 b 200 570 200 570 203 570 b 203 570 203 570 203 573 b 200 573 200 573 196 573 b 196 570 196 570 196 570 z m 113 426 b 116 426 116 426 119 422 b 119 429 116 429 113 426 z m 200 580 b 200 583 200 586 200 590 b 196 586 196 586 196 586 b 196 583 196 583 200 580 z m 156 503 b 156 499 156 499 156 496 b 156 496 156 499 160 499 b 156 499 156 503 156 503 z m 99 348 b 99 348 99 348 99 348 b 99 348 99 352 99 355 b 96 352 93 352 86 348 b 93 348 96 348 99 348 z"},"(":{"x_min":0,"x_max":390,"ha":390,"o":"m 116 -76 b 137 -76 151 -59 144 -46 b 137 -29 126 -9 120 8 b 116 21 113 34 120 48 b 123 58 123 71 120 81 b 113 105 120 128 123 148 b 126 169 131 193 134 213 b 134 236 141 260 148 283 b 161 317 168 347 184 377 b 184 380 184 384 188 387 b 209 437 236 484 267 531 b 270 538 273 544 280 548 b 287 558 293 564 300 574 b 317 601 335 625 358 649 b 375 662 388 676 402 689 b 433 716 459 746 497 763 b 517 773 534 790 562 793 b 569 793 575 800 572 810 b 569 833 559 850 537 860 b 524 867 514 870 504 873 b 487 880 470 877 456 870 b 436 860 413 850 392 840 b 375 830 361 816 348 803 b 338 796 327 783 317 773 b 287 743 259 709 236 676 b 205 631 178 588 148 541 b 144 538 144 531 141 528 b 131 504 120 481 110 461 b 100 444 93 430 86 414 b 83 397 76 384 73 367 b 55 320 38 270 42 220 b 42 216 42 210 38 203 b 25 176 35 142 25 111 b 35 75 32 38 48 1 b 58 -22 73 -46 93 -63 b 103 -69 113 -73 116 -76 z m 368 699 b 368 699 365 699 365 699 b 365 703 365 703 365 706 l 365 706 b 365 703 365 703 365 699 b 365 699 368 699 368 699 z m 310 666 b 307 666 307 666 303 666 b 307 669 307 669 310 669 b 314 672 317 676 320 679 b 324 676 324 672 327 669 b 327 666 324 666 324 662 b 320 662 317 666 317 666 b 314 666 314 666 310 669 l 310 666 b 310 666 310 666 310 666 z m 242 605 b 242 605 242 601 242 601 b 242 601 242 601 242 605 z m 293 666 b 293 666 293 666 293 666 b 297 662 300 662 303 662 b 303 659 300 659 300 659 b 297 659 297 662 293 666 b 293 666 293 666 293 666 z m 439 780 b 439 780 443 783 443 783 b 443 790 443 793 449 793 b 453 793 453 786 453 786 b 449 780 446 780 443 783 b 443 783 439 780 439 780 b 439 776 443 773 443 770 l 443 770 b 439 770 436 770 433 770 b 436 773 436 776 439 780 z m 413 800 b 426 810 426 796 433 793 b 439 786 433 783 429 783 b 429 773 426 766 416 770 b 413 770 413 766 409 763 b 413 763 413 759 416 756 b 413 756 413 756 409 756 b 409 756 409 759 409 763 b 406 763 406 766 406 766 b 402 766 402 770 398 770 b 398 770 398 766 398 766 b 402 756 395 749 388 746 b 378 746 375 739 371 733 b 371 733 375 733 375 733 b 378 729 381 726 385 723 b 381 723 381 723 378 723 b 371 723 371 726 371 733 b 368 733 368 729 365 729 b 365 729 368 726 368 726 b 368 726 365 726 365 726 b 365 726 365 726 365 729 b 361 726 358 723 351 723 b 348 706 341 706 327 706 b 327 693 327 693 307 693 b 310 689 310 686 314 683 b 310 683 307 683 303 683 b 300 686 297 689 293 689 b 300 693 303 693 307 693 b 307 706 314 713 327 709 b 330 713 335 713 338 716 b 341 719 345 723 351 723 b 348 726 345 729 345 733 b 345 736 345 739 348 739 b 348 743 351 739 355 739 b 358 739 361 739 365 739 b 365 743 365 746 365 749 b 365 749 361 753 361 753 b 361 756 361 759 361 759 b 365 759 368 759 368 759 b 378 753 381 759 381 766 b 385 776 388 786 402 790 b 406 793 409 796 413 800 z m 446 796 b 443 800 439 800 439 803 b 443 806 443 813 446 816 b 449 816 453 816 459 820 b 456 816 456 813 453 810 b 453 806 449 803 446 796 z m 426 746 b 419 743 416 739 409 739 b 409 739 409 739 406 743 b 413 746 416 746 419 749 b 419 749 423 749 426 746 z m 277 631 b 277 628 280 628 280 625 b 280 625 277 621 277 621 b 277 621 273 625 270 625 b 273 628 273 628 277 631 z m 351 693 b 348 696 348 696 348 699 b 348 699 351 699 351 703 b 355 699 355 699 355 699 b 355 696 355 696 351 693 z m 341 689 b 338 686 335 686 335 683 b 335 686 330 686 330 689 b 330 689 335 689 335 693 b 335 693 338 689 341 689 z m 385 716 b 381 713 381 709 381 709 b 378 713 378 713 375 713 b 375 716 378 716 378 716 b 378 716 381 716 385 716 z m 252 598 b 249 601 249 605 249 605 b 249 605 252 608 252 608 b 252 608 256 608 256 605 b 256 605 256 605 252 598 z m 303 646 b 300 646 300 646 300 649 b 297 649 297 649 297 652 b 300 652 300 652 300 652 b 303 652 303 649 303 646 z m 327 726 b 330 729 330 729 335 729 b 335 733 338 729 338 729 b 335 726 335 726 335 723 b 330 723 330 726 327 726 z m 423 820 b 423 816 423 816 423 816 b 423 816 419 820 419 820 b 423 820 423 820 423 820 b 423 820 423 820 423 820 z m 205 538 b 205 538 205 534 205 534 b 205 534 202 534 202 534 b 202 534 202 534 202 538 b 202 538 202 538 205 538 z m 267 656 b 270 656 270 656 270 652 b 270 652 270 652 267 652 b 267 652 267 652 267 652 b 267 656 267 656 267 656 z m 290 656 b 290 656 290 656 287 656 b 287 656 287 659 287 659 b 287 659 287 659 287 659 b 290 659 290 659 290 656 z m 280 611 b 280 611 280 608 280 608 b 280 608 277 608 277 608 b 277 608 277 611 277 611 b 277 611 280 611 280 611 z m 317 723 b 317 723 314 723 314 723 b 314 723 314 726 314 726 b 314 726 314 726 314 726 b 317 726 317 723 317 723 z m 324 686 b 324 686 324 683 320 683 b 320 686 320 686 320 686 b 320 686 324 689 324 689 b 324 686 324 686 324 686 z m 463 790 b 463 790 463 790 463 793 b 463 793 463 793 466 793 b 466 793 466 793 466 793 b 466 790 466 790 463 790 z m 385 739 l 385 736 z m 335 669 b 335 669 330 669 330 669 b 330 669 330 669 330 669 b 330 669 335 669 335 669 b 335 669 335 669 335 669 z m 341 699 l 345 699 z m 290 646 b 290 649 290 649 290 649 b 290 649 287 649 287 649 b 287 649 290 646 290 646 b 290 646 290 646 290 646 z m 402 790 b 406 790 409 790 416 790 b 416 790 419 790 423 786 b 416 786 413 783 409 783 l 409 783 b 406 786 406 786 402 790 z m 409 783 b 409 783 406 780 406 780 b 406 780 406 780 406 780 b 406 780 409 783 409 783 z m 423 786 b 426 786 426 783 429 783 b 426 783 426 786 423 786 z m 317 703 l 320 703 z"},"C":{"x_min":0,"x_max":577,"ha":577,"o":"m 502 860 b 496 860 489 860 486 860 b 469 857 452 854 435 847 b 435 847 435 847 432 847 b 416 847 398 839 382 833 b 375 830 368 826 361 823 b 355 820 352 817 348 813 b 338 806 325 796 315 790 b 308 786 301 783 294 780 b 275 763 254 746 237 726 b 234 716 224 713 217 705 b 214 702 214 702 214 699 b 211 692 203 686 197 679 b 194 676 190 672 187 668 b 187 662 181 659 177 652 b 174 649 170 646 167 642 b 163 638 160 632 157 628 b 154 619 147 612 144 605 b 126 585 110 561 99 542 b 96 534 90 528 86 521 b 80 511 73 501 73 488 b 73 484 69 481 69 481 b 59 470 50 457 46 444 b 40 424 32 403 23 384 b 16 370 13 353 6 340 b -1 330 -1 317 -1 299 b -5 280 -5 259 -5 240 b -5 232 -8 229 -8 222 b -8 219 -8 213 -8 209 b -8 203 -8 199 -11 192 b -11 192 -11 192 -11 192 b -11 189 -11 186 -11 182 b -8 179 -8 173 -8 169 b -1 149 2 125 10 105 b 13 95 16 91 23 85 b 29 82 32 75 36 69 b 36 64 40 64 40 61 b 56 51 69 38 86 24 b 86 24 90 24 93 21 b 110 18 123 11 141 5 b 144 2 150 2 154 2 b 157 2 160 2 163 -3 b 163 -3 167 -3 167 -3 b 174 5 184 2 190 -3 b 200 -6 211 -6 221 -6 b 237 -6 257 -6 275 -6 b 278 -6 281 -6 288 -6 b 321 5 355 15 385 31 b 405 42 428 55 452 64 b 452 64 452 69 456 69 b 472 85 489 102 510 118 b 513 122 519 125 523 131 b 529 136 536 142 539 149 b 546 152 550 159 556 165 b 563 179 572 192 587 203 b 587 203 587 206 587 206 b 596 216 606 229 614 240 b 614 240 617 243 617 243 b 620 256 620 266 623 277 b 627 290 623 299 617 310 b 610 317 606 317 600 313 b 596 310 593 307 590 303 b 590 299 587 296 583 293 b 569 266 553 243 532 222 b 529 219 529 219 529 216 b 523 206 516 199 510 192 b 486 165 456 142 425 122 b 405 105 379 95 355 82 b 338 75 321 69 304 61 b 294 61 288 58 281 55 b 278 51 275 51 270 51 b 257 55 241 58 224 58 b 217 58 208 61 200 64 b 197 64 197 64 194 64 b 190 64 190 69 187 69 b 174 85 157 102 144 122 b 141 122 141 125 141 125 b 141 131 141 139 141 146 b 136 155 136 169 141 182 b 144 192 144 199 136 206 b 136 206 136 209 136 209 b 144 219 147 229 147 240 b 147 243 147 246 147 253 b 154 277 157 303 163 330 b 167 336 167 347 174 350 b 177 353 177 357 177 360 b 177 370 181 384 187 393 b 190 397 190 400 194 403 b 203 417 208 430 211 448 b 211 451 211 451 211 454 b 217 461 224 467 227 475 b 227 481 230 488 234 494 b 244 515 254 531 264 551 b 278 579 294 605 315 625 b 331 642 342 662 355 679 b 358 682 358 682 358 686 b 365 699 375 710 385 716 b 395 723 409 732 419 739 b 428 750 443 759 452 769 b 456 772 456 772 459 772 b 472 772 486 777 499 777 b 502 777 502 777 502 772 b 505 766 510 759 513 756 b 516 753 516 753 516 750 b 516 739 513 732 510 726 b 502 716 496 705 492 692 b 489 679 483 665 472 652 b 465 638 459 625 456 612 b 452 598 446 582 438 564 b 438 564 438 561 438 561 b 438 558 438 551 435 548 b 435 542 432 534 435 528 b 438 521 438 515 438 508 b 438 508 443 504 443 501 b 443 501 446 497 446 494 b 446 484 446 478 449 467 b 449 464 449 464 449 464 b 456 457 465 454 472 448 b 476 444 483 441 489 441 b 496 441 502 444 502 451 b 505 457 505 461 505 467 b 510 478 513 488 516 497 b 519 504 523 511 523 518 b 526 528 526 537 529 548 b 529 555 532 561 532 568 b 532 579 536 585 539 592 b 546 598 550 609 553 615 b 556 628 556 638 559 649 b 563 652 563 655 563 659 b 563 668 563 676 566 682 b 566 686 569 686 569 689 b 572 710 580 726 583 743 b 587 753 587 759 583 766 b 583 769 580 772 580 777 b 580 786 577 796 572 806 b 569 806 569 810 566 813 b 566 823 563 830 556 833 b 546 844 536 850 526 854 b 516 854 510 857 502 860 z m 69 199 b 66 199 63 195 63 195 b 63 206 66 209 73 209 b 73 213 73 213 73 213 b 73 216 73 216 69 219 b 66 219 63 219 59 219 b 59 216 59 216 56 213 b 56 219 56 222 56 226 b 59 229 63 226 66 222 b 66 222 66 222 66 226 b 66 226 66 226 66 229 b 66 229 66 229 69 232 b 73 226 77 219 80 216 b 80 213 83 213 83 213 b 83 213 83 216 83 216 b 83 216 83 216 83 219 b 86 216 90 213 90 209 b 90 209 93 209 90 206 b 90 203 86 199 80 195 b 83 195 83 199 83 199 b 80 203 77 206 73 209 b 69 206 69 203 69 199 b 69 199 73 199 77 199 b 77 195 77 195 77 192 b 73 192 73 192 69 192 b 69 195 69 195 69 199 z m 90 340 b 90 340 93 340 96 344 b 96 347 96 350 93 353 b 93 357 96 357 96 360 b 99 357 103 353 107 350 b 110 353 110 353 113 347 b 110 350 107 350 103 350 b 103 350 99 347 99 347 b 99 344 99 340 99 336 b 107 336 110 336 117 336 b 113 333 117 330 110 330 b 103 330 99 333 99 336 b 99 336 96 336 96 336 b 90 336 90 336 90 340 b 86 340 86 340 83 340 b 83 340 83 340 83 336 b 83 333 86 330 93 326 b 93 326 93 330 96 330 b 96 330 99 330 99 333 b 103 326 103 323 103 320 b 99 320 96 326 90 320 b 90 320 86 323 86 323 b 83 320 83 320 80 323 b 77 326 73 326 69 326 b 66 330 63 330 59 336 b 59 340 63 344 66 344 b 69 340 73 340 77 340 b 77 344 77 347 77 350 b 80 350 83 353 90 353 b 90 347 90 344 90 340 z m 154 515 b 150 515 147 515 144 515 b 144 518 147 518 150 521 b 150 521 150 518 154 518 b 154 521 154 521 157 521 b 160 521 163 524 163 524 b 174 521 174 518 174 511 b 170 511 167 511 163 511 b 163 511 163 508 160 508 b 157 511 154 508 154 515 z m 90 360 b 86 360 86 357 86 357 b 83 357 83 357 80 360 b 80 360 80 363 83 363 b 83 363 83 363 86 363 b 86 363 86 360 90 360 b 86 363 90 363 90 366 b 93 366 96 370 96 370 b 93 370 90 374 83 374 b 86 377 90 377 90 380 b 93 380 93 380 96 380 b 96 377 99 377 103 377 b 99 380 99 384 103 384 b 103 384 103 380 103 377 b 103 377 103 374 103 374 b 103 370 103 366 103 366 b 99 363 96 360 90 360 b 90 360 90 360 90 360 z m 56 299 b 59 299 63 299 66 303 b 63 303 63 303 63 303 b 59 307 59 313 66 313 b 66 317 69 317 69 313 b 69 313 73 313 73 313 b 77 313 80 310 80 303 b 80 299 83 296 83 290 b 80 286 83 283 86 283 b 83 280 80 280 77 280 b 77 283 77 290 77 293 b 77 296 77 303 77 307 b 77 307 77 307 73 307 b 73 303 69 299 66 293 b 66 293 66 290 66 290 b 66 286 66 286 66 280 b 63 280 59 277 56 277 b 56 280 56 283 53 286 b 56 290 56 290 59 293 b 59 293 56 296 56 299 z m 56 256 b 56 259 59 262 63 269 b 63 266 66 262 66 262 b 66 259 69 259 73 259 b 77 262 80 266 83 269 b 86 262 86 262 80 259 b 77 256 77 256 77 253 b 77 249 73 249 73 246 b 69 246 66 249 66 249 b 66 256 63 256 56 256 b 56 256 56 256 56 256 z m 77 142 b 80 152 69 152 66 159 b 69 159 77 159 80 159 b 80 155 77 152 77 152 b 83 152 86 152 93 155 b 93 149 93 146 96 142 b 93 142 90 142 86 146 b 86 146 83 146 83 146 b 80 146 80 146 77 142 z m 117 444 b 117 448 120 451 120 454 b 120 457 120 457 120 457 b 113 457 113 461 113 464 b 113 467 113 470 113 475 b 117 475 117 475 120 475 b 120 470 120 470 120 470 b 117 464 117 464 120 461 b 123 457 123 457 126 454 b 126 454 130 454 130 451 b 130 451 126 448 126 448 b 123 451 120 444 117 444 z m 136 397 b 133 397 130 400 130 400 b 130 397 130 393 126 393 b 126 390 120 390 117 390 b 117 393 117 393 120 393 b 123 397 123 403 126 408 b 130 408 130 411 130 414 b 133 414 133 411 136 411 b 136 408 133 408 133 408 b 133 408 133 408 136 408 b 136 403 136 400 136 397 z m 113 390 b 107 390 99 390 93 390 b 93 390 93 390 93 393 b 96 393 96 393 99 393 b 99 393 96 397 96 400 b 103 397 110 400 113 408 b 113 403 113 400 113 400 b 110 397 107 397 103 393 b 107 393 110 390 113 390 b 113 390 113 390 113 390 z m 113 377 b 113 374 117 370 113 366 b 113 363 117 363 120 360 b 120 357 120 357 120 353 b 113 353 117 357 117 360 b 113 360 113 360 110 360 b 110 366 110 374 110 380 b 113 380 120 380 123 380 b 123 380 123 377 123 377 b 120 377 117 377 113 377 z m 133 427 b 133 427 136 427 136 427 b 136 427 133 427 133 427 b 130 430 123 430 120 437 b 120 437 117 437 117 441 b 123 441 126 441 130 441 b 130 441 133 441 133 441 b 133 437 136 437 141 433 b 136 433 136 430 133 427 z m 230 601 b 230 601 227 601 224 601 b 227 605 227 605 230 609 b 227 609 224 612 221 612 b 227 615 230 619 237 619 b 234 612 234 609 230 601 z m 86 317 b 86 310 93 307 99 307 b 103 307 107 307 107 303 b 107 299 107 299 107 299 b 107 296 107 296 103 296 b 103 299 103 299 103 303 b 96 303 90 307 86 299 b 86 307 86 310 86 317 b 86 317 86 317 86 317 z m 32 232 b 36 229 36 229 40 229 b 43 229 43 229 46 229 b 46 232 50 235 53 240 b 53 232 50 226 46 222 b 40 222 36 226 32 232 z m 123 403 b 120 403 120 403 120 403 b 113 408 113 408 113 417 b 113 421 113 424 113 427 b 117 427 117 427 120 427 b 113 421 120 414 123 403 z m 130 475 b 126 475 123 475 120 475 b 123 478 123 484 126 488 b 126 488 126 488 126 488 b 126 484 130 481 130 475 z m 133 461 b 141 457 144 451 144 444 b 141 448 136 451 133 451 b 133 454 133 457 133 461 z m 181 545 b 181 542 177 534 187 531 b 184 531 184 528 181 531 b 181 531 177 531 177 534 b 177 534 174 537 174 537 b 174 542 177 545 181 545 z m 147 478 b 144 481 144 481 141 484 b 141 484 141 488 141 488 b 144 488 147 488 150 488 b 154 484 154 484 154 484 b 154 484 154 481 150 481 b 150 481 147 478 147 478 z m 103 437 b 103 430 103 427 103 421 b 96 424 96 427 103 437 z m 103 417 b 103 414 103 411 103 411 b 99 411 96 411 93 411 b 93 411 93 414 93 417 b 93 414 96 414 96 414 b 99 414 99 414 103 417 z m 93 393 b 86 390 83 387 77 393 b 83 397 86 397 93 393 z m 80 159 b 80 162 80 162 80 165 b 83 165 86 165 86 165 b 86 165 86 162 90 159 b 86 159 83 159 80 159 z m 63 179 b 66 182 66 182 69 186 b 73 186 73 182 77 179 b 69 179 66 179 63 179 z m 244 635 b 244 632 248 625 248 622 b 248 622 244 622 241 622 b 241 625 241 628 241 632 b 244 632 244 632 244 635 z m 59 326 b 56 323 53 320 50 320 b 50 320 50 323 50 323 b 53 323 53 326 56 326 b 56 326 59 326 59 326 z m 163 531 b 157 528 150 528 150 531 b 150 531 154 531 157 534 b 154 534 154 534 154 537 b 157 534 160 534 163 531 z m 154 494 b 157 501 160 501 163 501 b 160 494 157 491 154 494 z m 181 504 b 177 501 174 497 170 494 b 170 497 170 501 167 504 b 174 504 177 504 181 504 z m 170 558 b 177 558 181 558 181 555 b 174 551 170 551 170 558 z m 63 232 b 59 235 59 235 56 240 b 59 240 59 243 63 243 b 63 240 63 235 63 232 z m 141 437 b 144 441 147 441 147 444 b 147 441 147 437 147 433 b 147 433 144 433 141 437 z m 197 595 b 194 592 194 588 190 585 b 187 592 187 592 197 595 z m 208 571 b 208 571 203 571 200 568 b 200 571 200 575 200 579 b 203 579 208 575 208 571 z m 93 266 b 90 269 86 269 86 273 b 86 273 90 277 90 277 b 93 273 93 269 93 266 z m 120 421 b 123 421 123 421 126 424 b 126 424 126 424 130 424 b 126 421 126 417 126 417 b 126 417 123 417 120 417 b 120 417 120 417 120 421 z m 77 169 b 73 165 73 165 69 162 b 69 162 69 165 69 165 b 69 165 69 169 69 169 b 73 169 73 169 77 169 b 77 169 77 169 77 169 z m 93 199 b 93 203 93 203 93 206 b 93 206 96 206 96 206 b 96 206 99 206 99 206 b 99 206 99 203 96 203 b 96 203 93 199 93 199 b 93 199 93 199 93 199 z m 73 136 b 69 136 66 136 59 136 b 59 136 59 139 59 139 b 63 139 69 139 73 139 b 73 139 73 136 73 136 z m 144 408 b 147 408 150 411 150 411 b 154 408 154 408 154 403 b 150 403 147 403 144 408 z m 160 441 b 157 441 157 441 154 441 b 154 441 154 441 154 444 b 157 444 157 444 160 444 b 160 444 160 444 160 441 z m 136 508 b 141 508 144 508 144 508 b 144 508 144 504 144 501 b 144 501 144 501 144 501 b 141 504 141 504 136 508 z m 63 347 b 59 353 59 357 66 353 b 66 353 63 350 63 347 z m 203 548 b 208 548 211 548 214 548 b 214 548 214 548 214 548 b 211 548 208 548 203 548 b 203 548 203 548 203 548 z m 174 481 b 177 481 177 481 181 481 b 181 478 181 478 181 478 b 177 478 177 478 174 478 b 174 478 174 478 174 481 z m 93 262 b 96 262 96 262 99 262 b 99 262 99 262 99 259 b 96 259 96 259 93 259 b 93 259 93 262 93 262 z m 69 269 b 73 269 73 269 77 269 b 77 269 77 269 77 269 b 73 269 73 269 69 269 b 69 269 69 269 69 269 z m 59 149 b 63 149 66 149 66 152 b 66 149 66 149 66 149 b 66 149 63 149 59 149 b 59 149 59 149 59 149 z m 69 235 b 66 235 69 240 69 243 b 69 243 69 243 69 243 b 69 240 69 240 73 235 b 73 235 69 235 69 235 z m 40 206 b 40 206 40 203 36 203 b 36 206 36 209 36 209 b 36 209 40 209 40 209 b 40 209 40 206 40 206 z m 174 467 b 170 467 170 467 170 467 b 170 467 170 470 170 470 b 170 470 170 470 170 475 b 170 470 174 467 174 467 z m 147 427 b 147 427 147 427 144 424 b 144 424 144 427 141 427 b 141 427 144 427 144 427 b 144 427 147 427 147 427 b 147 427 147 427 147 427 z m 103 195 b 103 192 103 189 103 186 b 103 186 103 186 103 186 b 103 189 103 192 103 195 b 103 195 103 195 103 195 z m 53 176 b 50 173 46 169 43 173 b 46 176 50 176 53 176 z m 103 125 b 107 125 110 125 107 118 b 107 122 107 122 103 125 z m 208 598 b 208 601 208 601 208 605 b 208 605 208 605 208 605 b 208 605 208 605 208 605 b 208 601 208 601 211 598 b 208 598 208 598 208 598 z m 93 229 b 90 229 90 229 90 229 b 90 229 90 232 90 235 b 90 232 90 232 93 229 z m 184 548 b 184 548 184 548 181 545 b 181 548 181 551 181 551 b 184 551 184 551 184 548 z m 177 521 b 181 521 181 521 184 521 b 184 521 184 518 184 518 b 181 518 181 518 177 518 b 177 518 177 518 177 521 z m 136 470 b 141 470 141 470 144 475 b 144 470 144 470 144 470 b 141 470 141 470 136 470 b 136 470 136 470 136 470 z m 160 508 b 163 508 163 511 163 511 b 167 511 167 515 167 518 b 167 518 163 518 160 518 b 160 515 160 511 160 508 z m 80 340 b 83 340 83 340 83 340 b 83 344 86 347 80 347 b 80 344 80 344 80 340 z m 77 333 b 77 333 77 333 77 333 b 77 330 80 330 80 326 b 80 330 83 330 83 333 b 80 333 80 333 77 333 b 77 333 77 333 77 336 b 73 336 73 336 69 333 b 69 333 69 333 69 333 b 69 333 69 333 69 333 b 73 333 73 333 77 333 z"},"W":{"x_min":0,"x_max":1041,"ha":1041,"o":"m 316 860 b 316 860 312 860 312 860 b 306 860 303 860 296 857 b 288 857 282 857 275 857 b 269 857 262 853 255 853 b 239 853 221 853 205 853 b 202 853 195 850 192 850 b 189 847 185 847 178 850 b 174 850 171 850 168 850 b 148 837 124 834 101 826 b 78 819 57 816 37 806 b 17 796 -3 783 -20 769 b -26 762 -36 759 -44 759 b -47 759 -47 756 -47 756 b -57 746 -70 739 -80 733 b -97 726 -111 715 -117 699 b -120 692 -127 689 -134 689 b -134 689 -137 689 -137 689 b -161 662 -187 635 -211 608 b -218 601 -221 595 -225 588 b -231 578 -234 568 -241 558 b -244 548 -255 535 -255 521 b -255 518 -255 518 -255 515 b -258 508 -258 497 -258 491 b -258 487 -262 484 -262 478 b -262 478 -262 478 -262 478 b -262 474 -262 474 -262 471 b -251 437 -238 404 -221 373 b -218 364 -211 354 -201 343 b -191 336 -181 330 -168 330 b -161 333 -158 333 -154 340 b -154 343 -154 343 -154 347 b -158 354 -161 360 -164 367 b -168 383 -171 397 -174 414 b -174 414 -174 417 -174 417 b -168 437 -161 454 -154 471 b -148 487 -144 501 -137 515 b -134 518 -134 525 -134 528 b -134 528 -134 531 -130 531 b -127 541 -120 551 -117 562 b -111 572 -104 582 -97 588 b -87 595 -77 605 -70 615 b -57 635 -44 652 -23 668 b -20 673 -16 676 -16 679 b -13 686 -10 689 -3 689 b 0 692 3 696 7 696 b 10 699 13 702 17 706 b 41 722 64 739 88 756 b 101 762 111 769 124 772 b 128 776 128 776 128 776 b 141 787 151 793 164 796 b 182 803 195 806 212 813 b 218 813 225 813 231 816 b 239 816 242 816 246 816 b 246 819 249 819 249 819 b 255 813 262 813 269 813 b 275 816 278 813 285 813 b 288 813 296 813 299 810 b 303 810 303 806 306 806 b 312 796 319 783 326 772 b 326 769 326 766 326 766 b 326 756 326 749 329 739 b 332 730 332 722 329 712 b 326 709 326 702 329 699 b 329 696 329 692 329 689 b 326 676 322 662 316 649 b 316 645 316 639 316 635 b 312 632 312 629 312 625 b 312 622 309 619 309 615 b 306 605 303 598 299 592 b 296 582 293 568 288 558 b 282 538 275 515 265 497 b 262 494 262 487 262 484 b 252 458 242 430 228 404 b 225 397 221 393 221 387 b 221 383 221 380 218 377 b 218 373 215 373 212 370 b 208 357 202 343 198 330 b 195 323 195 320 192 316 b 185 307 182 297 178 286 b 171 276 168 266 161 256 b 158 250 158 246 158 243 b 158 240 155 236 155 229 b 151 226 148 222 148 219 b 148 216 145 216 145 212 b 145 202 145 189 138 178 b 132 165 128 152 128 139 b 128 139 128 136 128 136 b 128 136 128 132 128 132 b 124 125 124 121 128 115 b 135 102 138 92 141 79 b 145 71 151 64 155 58 b 164 48 174 38 185 28 b 205 7 228 1 255 -6 b 265 -9 275 -6 285 -6 b 299 -2 312 -6 326 4 b 329 4 335 7 339 7 b 342 11 350 14 350 17 b 353 28 356 35 363 38 b 369 45 373 48 376 55 b 392 75 407 95 423 115 b 423 115 423 118 426 118 b 430 118 433 118 440 118 b 440 115 440 115 440 115 b 446 98 449 85 457 68 b 457 61 460 51 470 45 b 470 45 470 45 470 45 b 477 38 480 28 487 22 b 493 11 503 4 517 1 b 524 1 527 -2 534 -6 b 534 -6 537 -6 537 -6 b 550 -6 564 -6 578 -6 b 581 -6 587 -6 594 -2 b 597 1 601 1 604 1 b 611 1 618 1 625 1 b 628 1 631 1 631 4 b 648 11 664 17 678 25 b 685 32 695 35 698 38 b 711 51 725 58 739 68 b 749 75 755 85 765 92 b 765 92 768 92 768 95 b 779 98 786 105 792 112 b 796 118 799 125 802 129 b 809 136 812 139 815 142 b 822 155 829 169 843 175 b 853 183 863 193 866 206 b 869 209 869 212 872 216 b 896 240 913 266 929 293 b 936 307 944 316 953 326 b 963 340 973 354 977 370 b 977 373 980 380 983 380 b 990 387 997 397 1001 404 b 1004 411 1007 414 1010 417 b 1017 427 1020 437 1024 447 b 1030 458 1037 468 1040 478 b 1043 478 1043 481 1043 484 b 1043 494 1047 508 1058 518 b 1061 521 1064 528 1067 535 b 1071 541 1074 551 1077 558 b 1081 565 1084 572 1087 578 b 1094 585 1097 595 1097 601 b 1097 611 1097 622 1105 629 b 1115 649 1118 673 1124 692 b 1124 702 1128 715 1128 726 b 1131 730 1131 736 1128 743 b 1124 746 1124 753 1124 756 b 1124 759 1124 762 1124 762 b 1118 776 1111 790 1100 803 b 1090 810 1081 819 1074 826 b 1071 829 1071 829 1071 829 b 1064 834 1061 834 1054 834 b 1054 837 1051 837 1051 834 b 1047 826 1040 819 1037 813 b 1027 793 1020 772 1017 749 b 1014 743 1010 733 1007 722 b 1004 719 1001 715 1001 712 b 990 686 983 658 973 635 b 970 625 967 615 960 608 b 957 605 957 601 953 598 b 944 572 933 548 923 521 b 916 504 906 484 896 464 b 893 454 890 444 882 434 b 876 427 872 417 869 411 b 869 407 869 407 869 404 b 866 401 863 397 859 393 b 859 393 859 390 859 390 b 859 380 856 373 849 364 b 836 340 825 320 812 297 b 802 279 796 266 789 250 b 789 250 789 246 786 246 b 779 240 772 229 765 219 b 762 209 755 199 749 189 b 745 183 739 175 732 169 b 729 162 721 159 718 149 b 715 145 711 142 708 136 b 695 115 678 95 658 75 b 651 64 638 58 628 55 b 625 51 621 48 618 48 b 611 45 607 38 601 38 b 591 38 584 38 574 38 b 574 38 571 38 571 38 b 568 45 564 51 564 58 b 560 64 557 75 564 82 b 564 85 564 89 564 95 b 560 98 560 102 564 105 b 564 105 564 105 564 108 b 564 115 568 121 568 129 b 574 145 581 159 584 172 b 587 175 587 178 587 183 b 591 196 594 209 597 219 b 597 222 597 222 597 222 b 607 236 614 253 618 269 b 621 276 625 286 631 293 b 635 303 638 310 641 320 b 648 336 654 354 658 373 b 664 393 675 417 685 437 b 688 440 688 444 692 450 b 698 474 708 497 715 525 b 715 528 715 531 718 538 b 718 538 718 541 718 544 b 721 551 721 554 725 558 b 725 562 725 562 725 565 b 721 568 721 572 718 578 b 711 605 695 622 672 632 b 658 635 644 639 631 645 b 631 645 628 645 625 645 b 621 645 618 645 614 642 b 611 639 607 635 604 632 b 604 629 601 629 601 629 b 597 619 597 611 597 601 b 597 592 597 582 594 568 b 594 558 594 548 587 538 b 581 525 578 508 574 494 b 574 487 571 484 564 478 b 560 478 560 471 557 468 b 550 450 540 430 534 414 b 521 383 507 357 487 330 b 483 326 483 320 483 316 b 483 313 483 313 483 313 b 480 310 480 307 477 303 b 477 300 477 297 473 297 b 467 283 457 269 454 256 b 446 243 440 229 430 216 b 420 199 410 186 400 169 b 392 159 386 149 379 139 b 373 136 369 132 366 125 b 360 112 353 102 339 95 b 332 92 329 89 322 85 b 319 82 316 79 312 75 b 306 68 299 64 293 61 b 269 58 255 64 249 82 b 246 89 246 92 249 95 b 249 98 249 102 252 105 b 252 115 255 129 259 139 b 269 172 282 206 293 236 b 296 243 299 246 303 250 b 309 253 309 263 309 269 b 309 276 312 283 316 289 b 322 303 329 313 335 323 b 335 326 339 330 342 336 b 342 340 346 347 350 354 b 350 357 353 364 353 367 b 353 377 356 380 360 387 b 363 390 366 393 366 401 b 369 411 376 421 379 427 b 383 430 383 430 383 434 b 383 440 386 447 389 454 b 389 458 392 461 396 468 b 403 471 403 478 407 481 b 407 484 407 487 407 487 b 413 491 410 494 413 497 b 413 497 413 501 413 501 b 416 511 420 521 423 528 b 430 541 436 551 436 562 b 436 565 440 568 440 572 b 443 578 446 585 449 592 b 460 615 470 639 477 665 b 480 682 480 699 473 715 b 473 715 473 715 470 719 b 470 722 470 730 467 736 b 467 739 464 743 464 746 b 464 756 457 766 449 772 b 443 780 440 787 433 793 b 430 803 420 810 410 816 b 392 823 379 829 363 840 b 360 840 356 844 353 840 b 353 840 353 840 350 840 b 342 844 335 847 329 850 b 326 853 322 857 316 860 z m 400 625 b 403 625 403 625 403 619 b 400 619 400 622 400 625 b 400 625 396 625 396 625 b 396 625 392 625 392 625 b 392 629 392 629 396 629 b 396 629 400 625 400 625 z m 467 149 b 464 152 464 155 464 159 b 467 159 467 155 467 149 b 470 149 470 149 470 149 b 470 152 470 155 470 155 b 470 155 473 159 473 159 b 473 159 473 155 473 155 b 473 155 473 152 477 152 b 473 152 473 152 470 149 b 470 149 470 145 470 145 b 470 145 470 142 470 142 b 470 142 470 145 470 145 b 467 145 467 149 467 149 z m 366 635 b 366 632 366 629 366 622 b 363 625 363 629 366 632 b 366 632 366 632 366 635 b 366 639 369 639 376 639 b 376 635 376 635 376 635 b 373 635 369 635 366 635 z m 560 320 b 554 320 557 323 554 326 b 554 326 554 326 550 326 b 550 333 550 336 550 340 b 554 336 557 336 560 336 b 560 340 557 343 557 347 b 557 347 557 347 557 347 b 560 347 568 350 568 347 b 571 343 564 340 564 340 b 560 336 560 336 560 336 b 557 333 557 330 554 326 b 557 326 560 326 560 323 b 560 323 560 320 560 320 b 560 320 560 320 564 320 b 564 316 564 316 564 316 b 568 313 571 313 568 310 b 568 307 568 307 568 303 b 568 303 568 303 568 303 b 564 307 564 310 560 313 b 560 316 560 316 560 320 z m 369 598 b 369 595 366 595 363 595 b 363 598 363 598 363 605 b 366 601 369 598 369 598 b 373 598 376 598 379 595 b 376 592 373 592 369 598 z m 534 283 b 530 286 534 286 540 286 b 540 283 534 283 534 283 b 534 279 534 279 534 276 b 534 276 530 276 527 276 b 527 279 524 279 521 279 b 521 283 524 283 524 283 b 527 283 530 283 534 283 z m 483 139 b 483 136 483 132 483 132 b 480 132 480 132 477 132 b 477 136 477 136 477 136 b 477 136 477 139 480 139 b 480 139 483 139 483 139 b 483 145 487 149 490 152 b 490 145 490 142 490 139 b 490 139 487 139 483 139 z m 500 216 b 503 216 511 219 514 219 b 517 212 517 206 511 202 b 511 212 500 206 497 209 b 497 209 500 212 500 216 b 497 216 493 219 487 219 b 493 226 497 229 503 226 b 500 222 500 219 500 216 z m 514 155 b 507 149 503 145 500 139 b 500 142 497 145 497 149 b 500 152 507 155 514 155 b 511 155 511 159 511 162 b 507 162 507 159 503 159 b 503 162 503 165 503 169 b 511 172 517 169 521 178 b 511 175 514 186 507 189 b 514 193 514 196 511 199 b 511 199 507 199 503 199 b 507 196 507 193 507 193 b 503 193 503 189 500 189 b 500 186 497 183 503 183 b 503 178 503 178 503 175 b 503 175 503 172 503 172 b 500 172 500 172 497 175 b 493 172 493 169 490 162 b 487 169 487 172 483 175 b 477 175 477 175 473 178 b 477 178 480 178 483 178 b 487 178 487 178 490 178 b 497 183 497 183 497 189 b 490 189 487 193 483 193 b 483 193 483 193 483 193 b 487 193 490 196 493 196 b 497 196 500 196 500 199 b 500 202 500 202 503 202 b 507 202 511 202 511 202 b 511 202 511 199 511 199 b 514 199 514 199 514 196 b 517 193 517 186 521 178 b 521 175 524 175 524 175 b 524 172 521 169 521 162 b 517 162 517 162 517 159 b 514 155 514 155 514 155 z m 540 236 b 544 236 544 232 547 229 b 547 232 547 232 547 232 b 547 232 547 236 547 236 b 547 236 550 240 550 240 b 550 240 550 236 550 236 b 550 236 550 232 550 229 b 550 229 550 229 547 229 b 547 229 547 226 547 222 b 544 226 544 226 540 226 b 537 222 537 222 534 219 b 534 222 530 226 530 226 b 527 229 530 236 534 236 b 537 236 537 236 540 236 z m 413 665 b 407 665 400 665 396 665 b 392 665 392 665 392 662 b 392 662 389 658 389 655 b 386 658 383 662 376 668 b 386 668 392 673 400 673 b 403 673 410 668 413 668 b 413 665 413 665 413 665 z m 400 702 b 403 699 407 699 407 696 b 407 692 407 692 403 692 b 403 692 403 692 403 692 b 407 692 407 692 407 692 b 410 689 413 689 416 686 b 413 682 410 679 407 676 b 400 686 396 692 400 702 z m 360 578 b 363 578 366 582 366 582 b 369 585 369 585 373 588 b 373 588 376 588 379 592 b 379 582 373 575 360 578 z m 511 226 b 507 232 507 232 511 240 b 517 232 517 232 511 226 z m 363 592 b 360 585 360 575 356 575 b 356 578 356 582 356 588 b 356 588 356 588 356 592 b 360 592 360 592 363 592 z m 379 625 b 379 625 383 625 383 625 b 383 625 379 625 379 622 b 379 629 376 625 373 625 b 373 632 376 635 383 632 b 383 632 383 629 379 625 z m 557 286 b 557 289 557 293 557 297 b 564 300 568 300 568 297 b 564 293 560 289 557 286 z m 389 642 b 389 645 389 649 389 652 b 396 649 396 645 400 645 b 403 645 407 645 407 642 b 403 642 396 642 389 642 z m 353 541 b 353 544 350 544 350 548 b 353 548 360 548 363 548 b 363 548 363 544 363 541 b 360 541 360 544 356 544 b 356 544 353 541 353 541 z m 306 407 b 296 417 303 421 306 427 b 306 427 309 427 309 427 b 306 424 306 417 306 414 b 306 411 306 411 306 407 z m 275 347 b 275 354 275 360 275 367 b 278 360 278 357 282 354 b 282 354 282 354 278 354 b 278 350 278 350 275 347 z m 584 404 b 587 401 591 397 591 390 b 591 390 591 390 591 390 b 591 390 591 390 587 390 b 584 393 584 397 584 404 z m 1040 615 b 1037 615 1030 615 1027 615 b 1027 615 1027 619 1027 622 b 1030 619 1037 619 1040 615 b 1040 615 1040 615 1040 615 z m 654 501 b 648 501 644 501 641 501 b 641 504 641 504 641 508 b 644 508 648 504 654 504 b 654 504 654 501 654 501 z m 369 554 b 366 554 363 554 360 554 b 360 554 360 554 360 554 b 363 558 366 558 369 558 b 369 562 369 558 373 554 b 373 554 369 554 369 554 z m 389 719 b 396 722 400 722 407 722 b 407 719 407 719 407 719 b 400 719 396 719 389 719 z m 383 635 b 386 635 389 639 389 642 b 392 639 392 639 396 635 b 389 635 386 635 383 635 z m 511 273 b 514 273 517 276 521 279 b 521 276 521 273 521 273 b 517 273 514 273 511 273 z m 527 266 b 524 266 524 269 521 273 b 524 273 524 273 527 276 b 527 269 527 266 527 266 z m 369 619 b 369 615 369 611 369 608 b 369 608 369 605 369 605 b 366 608 366 611 366 611 b 363 619 366 615 369 619 z m 239 222 b 236 219 236 212 231 209 b 228 216 228 219 239 222 z m 507 266 b 511 266 514 263 517 263 b 517 259 517 259 517 259 b 514 259 511 259 507 259 b 507 263 507 263 507 266 z m 544 199 b 540 199 537 199 530 202 b 534 206 540 206 544 199 z m 511 250 b 511 246 511 246 511 243 b 507 243 503 243 500 243 b 503 246 507 250 511 250 z m 392 605 b 392 608 396 611 400 615 b 400 611 400 608 400 605 b 396 605 396 605 392 605 z m 386 625 b 389 625 389 625 389 625 b 389 622 389 619 389 615 b 389 615 389 615 389 615 b 389 615 389 615 389 615 b 386 619 386 622 386 625 z m 426 662 b 426 662 423 662 420 658 b 420 662 420 665 423 665 b 423 665 426 665 426 665 b 426 665 426 665 426 662 z m 527 246 b 524 240 524 236 521 236 b 521 240 521 240 527 246 z m 360 501 b 356 501 356 501 353 497 b 353 501 353 504 353 504 b 353 504 356 504 360 504 b 360 504 360 504 360 501 z m 540 196 b 544 196 544 196 547 196 b 547 193 547 189 547 183 b 544 189 544 193 540 196 z m 490 159 b 487 155 483 155 480 155 b 480 155 480 155 480 155 b 480 155 480 159 480 159 b 483 159 487 159 490 159 z m 584 343 b 584 347 584 347 584 347 b 587 347 591 347 594 347 b 594 347 594 347 594 347 b 591 343 587 343 584 343 z m 578 300 b 578 300 581 300 581 297 b 581 293 581 293 581 289 b 578 289 578 289 578 289 b 578 289 578 293 578 300 z m 225 199 b 221 199 221 199 218 199 b 218 202 221 202 225 202 b 225 202 225 202 225 199 b 225 199 225 199 225 199 z m 228 273 b 225 269 221 266 218 269 b 221 269 225 273 228 273 z m 480 183 b 477 183 477 183 473 183 b 477 186 477 189 480 189 b 480 189 480 186 480 183 z m 527 263 b 530 263 530 263 534 263 b 530 259 530 259 530 256 b 530 259 527 259 527 263 z m 228 276 b 225 279 225 283 231 283 b 228 283 228 279 228 276 z m 540 266 b 537 263 534 263 534 263 b 534 269 537 266 540 266 z m 396 679 b 396 679 392 679 392 679 b 392 682 392 682 392 686 b 396 682 396 682 396 679 z m 604 397 b 604 393 604 393 604 390 b 604 390 604 390 604 390 b 601 390 601 390 601 390 b 601 390 601 393 601 397 b 601 397 601 397 604 397 z m 521 202 b 521 206 521 209 521 216 b 521 216 521 216 524 216 b 524 209 524 206 524 202 b 521 202 521 202 521 202 z m 1004 565 b 1004 568 1004 568 1004 572 b 1004 572 1007 572 1007 572 b 1007 572 1007 568 1007 565 b 1007 565 1004 565 1004 565 z m 527 183 b 530 183 534 183 534 183 b 534 178 534 178 527 183 z m 601 430 b 604 430 604 430 607 434 b 607 430 607 430 607 430 b 604 430 604 430 601 430 b 601 430 601 430 601 430 z m 373 665 b 373 662 373 658 373 655 b 373 655 373 655 373 655 b 373 658 373 662 373 665 b 373 665 373 665 373 665 z m 293 427 b 293 427 293 424 293 424 b 293 424 288 424 285 424 b 285 427 285 427 285 427 b 288 427 293 427 293 427 z m 618 377 b 618 380 621 380 625 380 b 625 380 625 377 625 377 b 621 377 618 377 618 377 b 618 377 618 377 618 377 z m 530 310 b 534 307 534 307 527 303 b 527 307 530 310 530 310 z m 554 253 b 557 250 557 250 554 250 b 554 250 554 253 554 253 z m 255 276 b 255 279 259 279 262 279 b 262 276 259 276 255 276 z m 1037 635 b 1037 635 1040 635 1040 639 b 1040 639 1043 635 1043 635 b 1043 635 1043 635 1040 635 b 1040 635 1037 635 1037 635 b 1037 635 1037 635 1037 635 z m 322 501 b 326 497 326 494 322 494 b 322 494 322 497 322 501 z m 319 515 b 319 515 319 518 319 521 b 319 521 319 521 322 521 b 322 518 322 518 322 515 b 322 515 319 515 319 515 z m 540 269 b 540 269 544 269 544 269 b 547 269 547 269 547 269 b 547 269 547 269 547 269 b 544 266 544 266 540 266 b 540 266 540 269 540 269 z m 547 279 b 547 283 547 286 547 289 b 550 286 550 283 547 279 z m 403 619 b 407 615 407 611 407 611 b 403 611 403 611 403 615 b 403 619 403 619 403 619 z m 571 330 b 571 330 568 330 568 326 b 568 326 564 330 564 330 b 564 330 564 330 568 330 b 568 330 571 330 571 330 b 571 330 571 330 571 330 z m 322 461 b 326 464 326 464 329 464 b 329 464 329 464 329 464 b 329 464 329 461 329 461 b 329 461 326 461 326 461 b 326 461 322 461 322 461 z m 231 243 b 231 246 231 246 231 250 b 231 250 231 250 231 250 b 231 250 231 250 231 250 b 231 246 236 246 236 243 b 236 243 231 243 231 243 z m 400 743 b 403 743 403 739 400 733 b 400 736 400 739 400 743 z"},"A":{"x_min":0,"x_max":708,"ha":708,"o":"m -209 79 b -209 66 -209 56 -209 45 b -203 45 -196 45 -189 42 b -186 39 -179 35 -176 32 b -169 25 -159 22 -149 22 b -149 22 -149 22 -149 22 b -146 19 -142 19 -139 19 b -132 19 -125 15 -119 15 b -115 12 -112 12 -109 12 b -82 8 -55 12 -31 29 b -24 32 -18 35 -11 35 b 9 45 30 56 50 72 b 60 79 70 89 77 99 b 87 109 97 116 107 123 b 114 126 117 133 124 140 b 127 140 127 146 131 150 b 134 150 137 153 141 157 b 144 157 147 160 151 163 b 161 173 168 184 174 190 b 178 197 184 200 188 204 b 205 221 221 234 235 251 b 242 258 245 264 252 268 b 255 274 258 281 265 285 b 265 288 269 288 272 291 b 292 305 312 308 336 311 b 349 315 366 318 380 318 b 393 318 403 315 417 315 b 417 315 420 315 420 315 b 430 311 433 308 430 295 b 430 288 430 281 427 271 b 427 264 423 258 420 251 b 413 244 410 237 407 227 b 403 200 393 177 383 153 b 376 140 373 123 366 106 b 366 106 370 103 370 103 b 370 99 370 96 370 96 b 366 89 366 83 370 72 b 370 69 370 66 370 59 b 373 45 380 35 386 25 b 393 15 403 8 417 5 b 423 5 433 2 444 2 b 450 -2 457 -2 464 2 b 471 2 477 5 481 8 b 494 12 501 19 501 32 b 501 52 504 69 508 86 b 508 96 511 103 511 113 b 511 123 514 130 518 140 b 521 146 521 153 524 157 b 528 170 531 180 534 194 b 534 200 534 207 538 214 b 541 224 545 231 545 241 b 551 258 558 271 575 281 b 578 281 585 288 588 291 b 592 298 598 305 602 315 b 605 315 605 318 605 318 b 605 325 605 328 605 335 b 605 338 609 345 609 348 b 609 352 609 355 609 359 b 609 365 605 372 602 379 b 602 382 602 386 602 389 b 595 402 595 416 602 429 b 605 439 609 449 612 460 b 615 466 615 473 619 476 b 619 483 622 486 622 490 b 625 497 629 500 632 507 b 632 507 632 510 632 510 b 632 524 639 534 646 544 b 649 550 652 554 656 561 b 656 561 659 564 659 567 b 659 581 662 594 669 608 b 676 621 683 638 683 655 b 683 665 686 672 693 682 b 699 692 703 709 710 722 b 713 732 716 739 716 749 b 720 752 720 756 720 759 b 720 763 720 766 720 769 b 723 773 723 779 723 783 b 720 803 710 823 693 837 b 679 853 662 864 642 874 b 642 874 639 877 635 877 b 635 877 632 877 632 877 b 632 877 632 877 629 877 b 615 870 602 860 595 847 b 588 840 585 833 582 830 b 572 820 565 810 561 800 b 551 783 541 769 531 756 b 521 749 518 742 514 732 b 511 729 508 722 504 719 b 501 712 497 705 491 702 b 487 702 484 699 484 699 b 477 688 471 678 464 672 b 457 662 450 655 444 645 b 440 645 440 641 440 641 b 437 625 430 611 417 601 b 410 594 403 584 400 574 b 400 567 396 564 393 561 b 390 561 386 557 383 554 b 380 550 376 547 373 544 b 370 537 366 534 359 527 b 353 517 343 507 336 497 b 326 483 319 470 309 460 b 306 453 302 446 295 443 b 289 439 285 436 282 429 b 279 426 279 423 275 419 b 265 402 248 389 232 375 b 232 375 228 375 228 375 b 221 372 215 372 211 372 b 205 369 194 369 188 369 b 181 372 178 372 171 369 b 168 365 161 365 157 365 b 154 365 147 365 144 365 b 141 362 134 362 127 362 b 124 362 120 365 117 362 b 114 359 110 359 107 359 b 100 359 93 359 87 355 b 83 355 80 355 73 355 b 63 359 53 359 43 355 b 40 355 33 355 26 355 b 19 355 13 359 6 359 b -4 362 -14 362 -24 362 b -31 365 -38 362 -45 359 b -51 355 -55 348 -55 338 b -55 338 -55 338 -51 335 b -48 328 -45 318 -41 308 b -38 301 -34 295 -24 291 b -4 278 -4 278 23 278 b 26 278 26 278 30 278 b 36 274 46 274 53 274 b 63 271 70 271 77 274 b 90 274 97 281 107 281 b 110 285 114 285 117 285 b 124 285 127 281 134 278 b 134 271 131 264 134 258 b 134 254 131 254 131 251 b 117 241 104 231 93 217 b 80 207 70 197 60 187 b 46 177 33 167 19 153 b 13 146 3 140 -4 133 b -24 123 -41 113 -58 99 b -78 83 -102 76 -125 76 b -149 76 -169 76 -193 76 b -199 76 -203 76 -209 79 z m 565 699 b 568 699 572 699 575 699 b 572 692 568 695 565 692 b 565 688 565 685 565 682 b 561 685 561 688 565 692 b 565 692 565 692 565 692 b 565 695 565 695 565 699 b 565 699 561 702 561 702 b 561 702 561 705 561 705 b 565 705 565 705 565 705 b 565 702 565 699 565 699 z m 427 109 b 430 109 430 106 430 99 b 430 99 430 99 430 99 b 430 99 430 99 430 103 b 427 106 427 106 427 109 b 427 109 423 109 423 113 b 423 113 420 113 420 113 b 427 116 427 116 427 109 z m 585 726 b 592 726 588 729 588 732 b 595 729 595 726 592 722 b 588 719 588 719 585 719 b 585 715 585 715 585 712 b 582 715 578 715 572 719 b 575 722 575 726 582 726 b 582 722 578 719 585 719 b 585 722 585 722 585 726 b 585 726 582 726 582 726 b 582 732 582 732 585 732 b 585 732 585 729 585 726 z m 528 372 b 524 369 524 369 521 369 b 521 369 521 365 521 362 b 521 362 521 362 518 362 b 518 365 518 369 518 369 b 514 372 514 372 514 375 b 518 382 511 386 511 389 b 511 389 514 392 518 389 b 518 386 521 386 521 386 b 524 386 524 386 528 382 b 528 382 528 382 528 382 b 524 382 524 382 521 382 b 521 379 521 375 521 375 b 524 375 524 375 528 379 b 528 375 528 372 528 369 b 531 372 531 372 534 372 b 538 365 538 362 541 355 b 538 355 534 355 534 355 b 531 359 531 365 528 372 z m 487 372 b 491 379 494 379 497 375 b 494 375 491 375 487 372 b 487 369 491 369 494 369 b 494 365 494 365 497 365 b 497 362 497 362 494 362 b 491 362 494 355 491 352 b 494 352 494 352 497 348 b 494 348 494 348 491 345 b 491 348 491 352 491 355 b 491 352 487 352 484 348 b 484 352 481 355 481 359 b 484 359 484 359 487 359 b 487 362 484 365 484 365 b 477 365 481 362 481 359 b 477 359 477 359 477 362 b 474 365 474 369 471 372 b 477 372 481 372 484 369 b 484 372 484 375 487 372 z m 646 763 b 646 763 642 763 642 763 b 642 756 642 756 635 756 b 632 756 632 756 629 759 b 632 749 635 749 642 749 b 642 749 646 749 649 749 b 649 746 652 742 656 742 b 656 739 656 739 656 739 b 652 739 649 739 649 742 b 642 742 639 742 635 739 b 635 739 632 739 632 742 b 629 739 629 732 629 729 b 632 729 635 732 635 732 b 635 732 639 729 639 729 b 635 726 632 726 629 722 b 632 722 632 719 632 715 b 635 715 639 719 639 719 b 642 719 642 715 642 712 b 639 712 635 712 632 712 b 632 705 625 709 622 709 b 622 709 625 705 625 702 b 622 702 622 702 619 702 b 615 699 612 699 609 695 b 609 695 605 695 602 692 b 602 692 602 692 602 695 b 602 695 605 699 605 702 b 602 702 598 702 598 702 b 598 699 598 695 598 695 b 602 688 609 688 615 685 b 615 685 615 685 615 685 b 622 688 625 685 629 682 b 625 678 625 678 622 672 b 619 675 619 675 619 678 b 615 678 615 682 615 682 b 612 682 609 682 605 685 b 609 678 612 675 615 668 b 612 668 609 668 605 668 b 605 665 609 658 602 658 b 602 662 595 665 592 672 b 592 672 592 672 588 675 b 592 675 592 675 595 678 b 595 678 595 678 595 678 b 598 678 598 678 602 678 b 602 682 598 682 598 682 b 598 685 598 685 598 685 b 595 685 595 682 595 682 b 595 682 595 682 595 682 b 598 685 595 688 598 695 b 595 692 592 692 588 688 b 592 692 592 692 592 695 b 592 695 588 699 592 702 b 592 702 595 705 595 709 b 592 702 588 705 582 705 b 585 712 585 712 592 712 b 595 712 595 715 598 715 b 598 719 598 719 602 722 b 602 712 609 709 612 705 b 612 709 615 712 612 715 b 609 715 609 719 609 722 b 605 722 598 722 598 726 b 598 729 602 732 602 732 b 605 736 609 739 612 732 b 615 739 615 742 619 746 b 615 746 612 746 612 746 b 609 756 609 763 615 766 b 619 763 619 763 619 759 b 622 759 622 759 625 763 b 629 763 632 766 635 763 b 639 763 639 763 642 763 b 642 763 642 766 639 766 b 639 769 635 769 635 773 b 639 776 646 773 652 776 b 646 779 642 779 639 783 b 642 783 642 786 646 786 b 649 786 656 786 662 786 b 659 783 659 776 659 773 b 656 766 652 766 646 766 b 646 766 646 763 646 763 b 649 763 652 763 656 763 b 652 759 652 756 649 752 b 646 756 646 759 646 763 z m 481 328 b 481 328 481 325 481 322 b 477 322 477 322 477 322 b 477 325 477 325 477 328 b 477 328 481 328 481 328 b 481 332 477 335 477 335 b 474 338 477 338 477 342 b 484 345 487 348 491 345 b 491 342 491 342 491 338 b 491 338 487 338 487 335 b 484 335 484 335 484 335 b 484 335 487 335 487 335 b 487 335 491 332 494 338 b 494 335 497 335 501 335 b 501 338 501 345 501 352 b 504 348 504 348 508 345 b 508 345 508 345 504 342 b 508 345 511 345 514 345 b 514 345 514 345 518 345 b 514 342 514 342 514 338 b 514 338 518 335 518 335 b 524 338 524 338 531 332 b 531 338 534 342 534 345 b 538 342 538 338 538 335 b 541 335 538 332 534 332 b 531 328 531 328 528 328 b 524 328 524 328 521 328 b 521 325 521 325 524 322 b 524 322 528 318 528 318 b 528 318 528 318 524 318 b 528 315 528 315 528 315 b 528 311 524 308 524 305 b 521 308 521 308 518 308 b 518 305 514 301 511 298 b 511 295 518 298 514 291 b 508 291 504 298 501 305 b 504 305 504 305 508 308 b 508 308 508 311 504 311 b 508 315 511 315 511 315 b 514 311 518 311 521 318 b 518 318 514 322 514 322 b 514 325 514 325 518 328 b 514 328 511 332 508 335 b 508 328 508 322 508 318 b 504 318 501 322 497 322 b 497 325 497 328 501 332 b 497 328 494 328 494 328 b 494 325 494 322 494 322 b 494 318 497 315 501 311 b 497 308 491 311 494 301 b 484 305 484 315 481 322 b 481 322 481 322 481 322 b 484 322 484 318 487 318 b 484 322 484 322 487 328 b 484 328 484 328 481 328 z m 545 655 b 548 648 548 645 551 638 b 551 638 551 638 551 635 b 545 618 538 598 531 581 b 528 567 524 554 521 540 b 521 534 521 530 518 527 b 518 520 514 513 511 507 b 501 500 501 490 497 480 b 497 470 494 460 491 449 b 491 446 487 443 487 439 b 484 436 484 433 484 429 b 484 429 481 426 481 426 b 467 419 454 412 440 409 b 437 409 433 406 433 406 b 427 406 420 406 413 402 b 410 402 407 402 407 402 b 400 409 393 406 383 406 b 383 406 380 406 380 409 b 373 412 373 423 380 429 b 383 433 386 439 390 446 b 390 449 393 456 396 460 b 403 466 410 476 417 483 b 427 493 437 507 444 520 b 447 527 450 530 454 534 b 464 544 471 554 474 564 b 474 564 474 564 477 564 b 487 574 497 587 504 601 b 514 618 528 631 538 648 b 538 648 541 651 545 655 z m 605 641 b 595 641 588 641 578 641 b 578 641 578 641 578 645 b 578 645 578 645 578 645 b 582 645 585 648 588 648 b 588 648 588 648 588 648 b 592 641 595 648 598 648 b 602 648 602 648 605 648 b 605 645 605 645 605 641 z m 497 264 b 491 268 484 271 481 274 b 481 278 484 281 484 285 b 491 278 494 271 497 264 z m 444 153 b 447 153 450 150 457 150 b 457 150 457 150 457 150 b 450 150 447 146 444 146 b 440 150 437 153 437 160 b 437 160 440 163 440 167 b 444 163 444 163 444 163 b 444 160 444 157 444 153 z m 501 365 b 504 365 504 365 508 365 b 508 369 508 372 504 372 b 508 372 511 372 511 372 b 511 369 514 365 511 362 b 508 359 504 359 504 359 b 501 359 497 362 501 365 z m 646 712 b 642 709 642 709 642 709 b 642 705 642 702 642 699 b 639 695 635 695 632 695 b 629 695 629 699 632 699 b 635 702 639 709 642 712 b 642 712 646 712 646 712 z m 619 618 b 619 621 619 625 619 628 b 619 631 619 631 619 631 b 622 631 625 635 625 635 b 629 635 629 635 629 635 b 629 635 629 635 629 635 b 629 631 625 631 622 628 b 622 628 622 625 622 625 b 622 621 622 618 619 614 b 619 618 619 618 619 618 z m 575 685 b 575 688 578 688 582 692 b 582 692 585 692 585 692 b 585 688 585 688 585 685 b 585 685 588 685 588 682 b 588 682 585 685 585 685 b 582 682 578 682 575 685 z m 592 658 b 592 651 592 651 582 655 b 582 655 582 658 582 662 b 585 658 588 658 592 658 z m 575 709 b 575 709 578 705 582 705 b 578 699 578 699 575 699 b 575 702 575 705 575 709 z m 477 305 b 474 305 467 305 464 305 b 467 308 467 311 467 315 b 471 311 474 308 477 308 b 477 305 477 305 477 305 z m 467 288 b 471 285 474 281 477 278 b 474 278 471 278 471 278 b 467 281 467 285 467 288 b 467 288 467 288 467 288 z m 511 396 b 514 399 518 402 521 406 b 521 406 521 402 521 399 b 518 399 514 399 511 396 z m 508 382 b 508 379 508 379 504 375 b 504 375 504 375 504 375 b 501 375 501 375 501 379 b 501 379 501 379 501 382 b 504 382 504 382 508 382 z m 578 668 b 582 668 582 668 585 668 b 585 665 585 665 582 665 b 582 662 582 662 578 662 b 578 662 578 662 578 665 b 578 665 578 668 578 668 z m 471 291 b 474 291 474 295 474 298 b 477 295 477 295 481 291 b 477 288 474 291 471 291 z m 635 789 b 639 789 639 789 639 796 b 639 796 639 796 642 800 b 642 800 642 800 642 800 b 639 793 639 786 635 783 b 635 783 635 783 635 783 b 635 783 635 786 635 789 z m 575 668 b 572 665 572 665 572 662 b 568 665 568 665 565 668 b 565 668 565 668 565 668 b 568 668 572 668 572 668 b 572 668 575 668 575 668 z m 494 301 b 494 298 497 298 501 295 b 501 295 501 295 501 295 b 497 295 494 295 494 295 b 494 295 494 298 491 301 b 494 301 494 301 494 301 z m 602 611 b 605 611 605 611 609 611 b 609 608 609 604 609 601 b 605 604 605 608 602 611 z m 602 776 b 598 776 595 773 588 773 b 592 776 592 776 592 776 b 592 779 598 776 602 776 z m 615 783 b 615 779 615 779 615 779 b 612 779 609 779 605 779 b 605 779 605 779 605 779 b 609 783 612 783 615 783 z m 572 675 b 568 678 568 682 572 685 b 572 682 572 678 572 675 z m 534 291 b 531 291 528 288 524 288 b 524 291 524 291 524 295 b 528 295 531 291 534 291 b 534 291 534 291 534 291 z m 612 655 b 612 655 612 651 612 648 b 612 648 609 648 605 648 b 609 651 612 651 612 655 z m 508 396 b 508 392 508 392 508 389 b 504 389 504 389 501 392 b 501 392 504 396 508 396 z m 598 749 b 598 749 598 746 598 746 b 595 746 595 746 592 746 b 592 746 592 746 588 746 b 592 749 592 749 592 749 b 592 749 595 749 598 749 z m 521 352 b 524 352 528 352 531 352 b 528 348 524 348 521 352 z m 642 719 b 642 722 642 726 646 726 b 646 719 646 719 642 719 z m 558 699 b 555 702 551 702 548 705 b 551 705 555 705 558 705 b 558 705 558 702 558 699 z m 471 251 b 471 254 467 258 467 258 b 467 258 471 261 471 261 b 471 261 471 261 471 261 b 471 258 471 254 471 254 b 471 251 471 251 471 251 z m 521 362 b 524 362 524 362 528 362 b 528 362 528 359 528 359 b 524 359 524 359 521 359 b 521 359 521 359 521 362 z m 622 662 b 619 655 615 658 615 658 b 615 662 619 662 622 662 z m 598 628 b 595 628 592 628 588 631 b 592 631 595 635 598 628 z m 619 641 b 615 641 612 641 612 641 b 612 641 612 641 609 641 b 612 641 612 645 612 645 b 615 645 619 645 619 641 z m 575 668 b 575 668 572 668 572 672 b 575 672 578 675 582 675 b 578 675 578 672 575 668 z m 545 345 b 548 345 548 342 548 335 b 545 338 545 342 545 345 z m 548 369 b 545 372 545 375 545 375 b 545 375 548 375 548 375 b 548 375 548 372 548 369 b 548 369 548 369 548 369 z m 662 769 b 666 769 666 769 669 769 b 669 769 669 766 669 766 b 666 766 666 766 662 766 b 662 766 662 769 662 769 z m 477 200 b 481 200 481 200 484 200 b 477 197 477 197 477 200 z m 669 776 b 666 776 666 773 662 776 b 666 776 666 776 669 776 b 669 776 669 776 669 776 z m 669 759 b 669 752 666 752 662 756 b 666 756 666 756 669 759 z m 652 702 b 652 699 649 695 646 699 b 649 699 649 702 652 702 z m 555 665 b 555 665 558 665 561 665 b 561 665 561 662 558 662 b 558 662 555 662 555 662 b 555 662 555 662 555 665 z m 605 769 b 605 766 605 766 605 763 b 605 763 602 763 602 763 b 602 766 602 766 602 769 b 602 769 602 769 605 769 z m 474 113 b 467 113 467 113 471 120 b 471 116 471 116 474 113 z m 447 133 b 444 126 440 126 440 130 b 444 130 444 130 447 133 z m 619 729 b 622 726 625 726 625 726 b 625 729 622 729 619 729 z"}}}
